<?xml version="1.0" standalone="no"?>
<!DOCTYPE svg PUBLIC "-//W3C//DTD SVG 1.1//EN" "http://www.w3.org/Graphics/SVG/1.1/DTD/svg11.dtd" >
<svg xmlns="http://www.w3.org/2000/svg">
<metadata></metadata>
<defs>
<font id="houschka_headmedium" horiz-adv-x="1228" >
<font-face units-per-em="2048" ascent="1556" descent="-492" />
<missing-glyph horiz-adv-x="520" />
<glyph unicode="ffj" horiz-adv-x="1558" d="M37 866q0 24 17.5 41t41.5 17h99v153q0 68 14 124t44.5 102t84.5 72t127 26q100 0 180 -41q78 -38 78 -88q0 -25 -13.5 -41.5t-35.5 -16.5q-7 0 -14 2.5t-23.5 12t-26.5 14.5q-49 25 -110 25q-86 0 -121 -52t-35 -149v-143h397v139q0 350 316 350q129 0 235 -45 q92 -36 92 -90q0 -27 -17 -44t-52 -17q-9 0 -18.5 2.5t-16 5.5t-22.5 11t-27 13q-76 37 -154 37q-101 0 -143.5 -62t-42.5 -182v-118h444q31 0 53.5 -21t22.5 -51v-913q0 -214 -80 -326q-28 -40 -70 -64t-83 -24q-34 0 -56 16t-22 47q0 24 15 37t44.5 35t52.5 55 q50 69 50 269v821h-371v-754q0 -29 -22.5 -50t-53.5 -21t-52.5 21t-21.5 50v754h-397v-754q0 -29 -21.5 -50t-52.5 -21t-53 21t-22 50v754h-99q-25 0 -42 17.5t-17 43.5z" />
<glyph unicode="fj" horiz-adv-x="1019" d="M37 866q0 24 17.5 41t41.5 17h99v139q0 350 315 350q123 0 235 -45q93 -39 93 -90q0 -27 -17 -45.5t-51 -18.5q-22 0 -57.5 18t-83.5 36t-99 18q-101 0 -143.5 -62t-42.5 -182v-118h447q31 0 52 -20.5t21 -51.5v-913q0 -218 -80 -326q-28 -40 -69.5 -64t-83.5 -24 q-34 0 -56 16t-22 47q0 19 10 32t24 21.5t37 28t42 45.5q28 37 38.5 100t10.5 169v821h-371v-754q0 -29 -21.5 -50t-52.5 -21t-53 21t-22 50v754h-99q-25 0 -42 17.5t-17 43.5z" />
<glyph unicode="ff" horiz-adv-x="1253" d="M37 866q0 24 17.5 41t41.5 17h99v145q0 68 14 124t44.5 102t84.5 72t127 26q100 0 180 -41q78 -38 78 -88q0 -25 -13.5 -41.5t-35.5 -16.5q-7 0 -14 2.5t-23.5 12t-26.5 14.5q-49 25 -110 25q-86 0 -121 -52t-35 -149v-135h397v143q0 59 8.5 109t28.5 94.5t51 75.5 t78.5 49t108.5 18q111 0 196 -43q82 -42 82 -90q0 -24 -16.5 -40.5t-40.5 -16.5q-9 0 -18 5t-24.5 15t-29.5 17q-53 26 -121 26q-86 0 -119.5 -49.5t-33.5 -157.5v-155h260q23 0 40 -17.5t17 -40.5q0 -26 -16.5 -43.5t-40.5 -17.5h-260v-754q0 -29 -22.5 -50t-53.5 -21 t-52.5 21t-21.5 50v754h-397v-754q0 -29 -21.5 -50t-52.5 -21t-53 21t-22 50v754h-99q-25 0 -42 17.5t-17 43.5z" />
<glyph unicode="fi" horiz-adv-x="1013" d="M37 866q0 24 17.5 41t41.5 17h99v139q0 350 315 350q133 0 235 -41q93 -39 93 -94q0 -27 -17.5 -44t-52.5 -17q-22 0 -86 30q-76 37 -152 37q-101 0 -143.5 -61.5t-42.5 -180.5v-118h447q35 0 54 -20t19 -52v-801q0 -29 -22 -50t-51 -21q-32 0 -54 21t-22 50v754h-371 v-754q0 -29 -21.5 -50t-52.5 -21t-53 21t-22 50v754h-99q-25 0 -42 17.5t-17 43.5z" />
<glyph unicode="fl" horiz-adv-x="1015" d="M37 866q0 24 17.5 41t41.5 17h99v141q0 74 16 133.5t51.5 109.5t100 77.5t153.5 27.5q142 0 236 -43q69 -29 91.5 -67t22.5 -105v-1147q0 -29 -22 -50t-51 -21q-31 0 -53.5 21t-22.5 50v1145q0 35 -51 62.5t-131 27.5q-102 0 -146.5 -61.5t-44.5 -180.5v-120h248 q24 0 40.5 -17t16.5 -41q0 -26 -16 -43.5t-41 -17.5h-248v-754q0 -29 -21.5 -50t-52.5 -21t-53 21t-22 50v754h-99q-25 0 -42 17.5t-17 43.5z" />
<glyph unicode="ffi" horiz-adv-x="1558" d="M37 866q0 24 17.5 41t41.5 17h99v153q0 68 14 124t44.5 102t84.5 72t127 26q100 0 180 -41q78 -38 78 -88q0 -25 -13.5 -41.5t-35.5 -16.5q-7 0 -14 2.5t-23.5 12t-26.5 14.5q-49 25 -110 25q-86 0 -121 -52t-35 -149v-143h397v139q0 350 316 350q129 0 235 -45 q92 -36 92 -90q0 -27 -17 -44t-52 -17q-9 0 -18.5 2.5t-16 5.5t-22.5 11t-27 13q-76 37 -154 37q-101 0 -143.5 -62t-42.5 -182v-118h444q36 0 56 -20t20 -52v-801q0 -29 -22.5 -50t-53.5 -21t-52 21t-21 50v754h-371v-754q0 -29 -22.5 -50t-53.5 -21t-52.5 21t-21.5 50v754 h-397v-754q0 -29 -21.5 -50t-52.5 -21t-53 21t-22 50v754h-99q-25 0 -42 17.5t-17 43.5z" />
<glyph unicode="ffl" horiz-adv-x="1562" d="M37 866q0 24 17.5 41t41.5 17h99v153q0 68 14 124t44.5 102t84.5 72t127 26q100 0 180 -41q78 -38 78 -88q0 -25 -13.5 -41.5t-35.5 -16.5q-7 0 -14 2.5t-23.5 12t-26.5 14.5q-49 25 -110 25q-86 0 -121 -52t-35 -149v-143h397v141q0 348 316 348q133 0 231 -43 q72 -32 98.5 -69.5t26.5 -102.5v-1147q0 -29 -21.5 -50t-52.5 -21t-53 21t-22 50v1145q0 34 -52 62t-133 28q-100 0 -144 -61.5t-44 -180.5v-120h235q23 0 40.5 -17.5t17.5 -40.5q0 -26 -17 -43.5t-41 -17.5h-235v-754q0 -29 -22.5 -50t-53.5 -21t-52.5 21t-21.5 50v754 h-397v-754q0 -29 -21.5 -50t-52.5 -21t-53 21t-22 50v754h-99q-25 0 -42 17.5t-17 43.5z" />
<glyph unicode=" "  horiz-adv-x="520" />
<glyph unicode="&#x09;" horiz-adv-x="520" />
<glyph unicode="&#xa0;" horiz-adv-x="520" />
<glyph unicode="!" horiz-adv-x="497" d="M145 1233q0 180 105 180q104 0 104 -180q0 -28 -2.5 -64.5t-6.5 -80.5t-5 -62l-39 -586q-3 -61 -51 -61t-51 61l-41 586q-13 192 -13 207zM156 76q0 40 27 67t67 27t66 -27t26 -67t-26 -67t-66 -27t-67 27t-27 67z" />
<glyph unicode="&#x22;" horiz-adv-x="581" d="M80 1339q0 35 19 55.5t53 20.5t52.5 -20.5t18.5 -55.5q0 -30 -2 -69l-16 -236q-3 -32 -14.5 -46.5t-38.5 -14.5t-39 14.5t-15 46.5l-16 236q-2 39 -2 69zM358 1339q0 35 19 55.5t53 20.5t53 -20.5t19 -55.5q0 -30 -2 -69l-17 -236q-3 -32 -14.5 -46.5t-38.5 -14.5 t-38.5 14.5t-14.5 46.5l-17 236q-2 39 -2 69z" />
<glyph unicode="#" horiz-adv-x="1392" d="M0 309q0 25 17 42.5t42 17.5h283l78 370h-262q-25 0 -42.5 17.5t-17.5 42.5t17.5 43t42.5 18h286l78 363q4 23 25.5 36.5t46.5 8.5q23 -6 36 -26.5t9 -43.5l-72 -338h383l76 363q4 23 26 36.5t46 8.5q25 -6 38.5 -26.5t8.5 -43.5l-72 -338h260q25 0 42.5 -18t17.5 -43 t-17.5 -42.5t-42.5 -17.5h-286l-76 -370h264q23 0 40 -17.5t17 -42.5t-17 -43t-40 -18h-291l-76 -363q-6 -25 -26 -37.5t-45 -7.5q-23 5 -36 25t-9 45l69 338h-381l-78 -363q-4 -24 -24.5 -37t-44.5 -8q-25 4 -38.5 24.5t-8.5 45.5l71 338h-258q-25 0 -42 18t-17 43z M465 369h383l76 370h-381z" />
<glyph unicode="$" d="M156 160q0 32 22 54t53 22q16 0 31 -9t44 -29t63 -36q103 -49 233 -49q149 0 224 66.5t75 174.5q0 126 -139 189q-49 23 -182 63t-209 76q-209 95 -209 297q0 151 107 240.5t304 99.5v125q0 17 12 29t31 12t31 -12t12 -29v-123q146 -6 271 -57q24 -10 39.5 -19t30 -27.5 t14.5 -41.5q0 -30 -20 -50t-52 -20q-14 0 -30.5 6.5t-42 18.5t-48.5 20q-115 39 -198 39q-299 0 -299 -211q0 -115 159 -182q46 -19 197.5 -63.5t226.5 -90.5q160 -100 160 -274q0 -169 -110 -270t-298 -115v-119q0 -17 -12 -29t-31 -12t-31 12t-12 29v115q-172 5 -350 96 q-67 33 -67 84z" />
<glyph unicode="%" horiz-adv-x="1343" d="M51 1098q0 129 92.5 221t221.5 92q128 0 220.5 -92t92.5 -221t-92.5 -221.5t-220.5 -92.5q-129 0 -221.5 92t-92.5 222zM137 1098q0 -95 67 -161.5t161 -66.5t160.5 67t66.5 161t-66.5 160.5t-160.5 66.5t-161 -66.5t-67 -160.5zM195 29q0 15 10 32l852 1323q17 29 43 29 q21 0 35 -14t14 -35q0 -18 -10 -31l-850 -1327q-1 -1 -2.5 -3t-2.5 -3.5t-3 -3.5l-3.5 -3.5t-4 -3.5t-4.5 -3l-5 -2.5t-6 -2t-6.5 -1t-7.5 -0.5q-20 0 -34.5 14.5t-14.5 34.5zM666 293q0 129 92.5 221t220.5 92q129 0 221 -92t92 -221t-92 -221t-221 -92q-128 0 -220.5 91.5 t-92.5 221.5zM752 293q0 -95 67 -161t162 -66q94 0 159.5 66t65.5 161q0 94 -65.5 160.5t-159.5 66.5q-95 0 -162 -66.5t-67 -160.5z" />
<glyph unicode="&#x26;" horiz-adv-x="1343" d="M88 387q0 69 23.5 127.5t68 104.5t95 81.5t118.5 69.5q-88 169 -88 299q0 149 88.5 234.5t239.5 85.5q144 0 224.5 -78.5t80.5 -208.5q0 -41 -11 -78.5t-27.5 -66.5t-46 -58.5t-54.5 -50t-66.5 -46t-69 -40.5t-73.5 -39q63 -108 153 -216.5t183 -189.5q39 61 58 130 t30 178q3 27 23 42t44 15q32 0 54 -22.5t22 -53.5q0 -227 -104 -373q63 -46 112 -70.5t107 -39.5q47 -10 47 -64q0 -35 -22 -57t-56 -22q-114 0 -293 135q-154 -135 -383 -135q-215 0 -346 108t-131 299zM240 381q0 -135 91.5 -209t246.5 -74q152 0 258 101 q-109 94 -209 213t-172 241q-105 -58 -160 -120t-55 -152zM455 1069q0 -99 73 -233q120 63 163 96q104 78 104 172q0 79 -42.5 123.5t-119.5 44.5q-81 0 -129.5 -56t-48.5 -147z" />
<glyph unicode="'" horiz-adv-x="303" d="M80 1339q0 35 19 55.5t53 20.5t52.5 -20.5t18.5 -55.5q0 -30 -2 -69l-16 -236q-3 -32 -14.5 -46.5t-38.5 -14.5t-39 14.5t-15 46.5l-16 236q-2 39 -2 69z" />
<glyph unicode="(" horiz-adv-x="544" d="M104 479q0 247 58.5 483.5t187.5 426.5q24 36 64 36q33 0 54 -21t21 -54q0 -28 -14 -56q-211 -387 -211 -815q0 -475 211 -817q14 -25 14 -55q0 -32 -21.5 -53t-53.5 -21q-39 0 -64 35q-246 350 -246 911z" />
<glyph unicode=")" horiz-adv-x="544" d="M53 -393q0 29 17 55q209 343 209 817q0 468 -209 815q-17 28 -17 56q0 33 21.5 54t54.5 21q39 0 66 -36q245 -335 245 -910q0 -563 -245 -911q-25 -35 -66 -35q-32 0 -54 21t-22 53z" />
<glyph unicode="*" horiz-adv-x="866" d="M96 1239q15 46 72 29q7 -2 78 -29l151 -59l-10 163q-4 78 -4 82q0 60 51 60q24 0 36.5 -16.5t12.5 -43.5q0 -4 -4 -82l-8 -163l152 59q65 26 75 29q57 16 72 -29q17 -48 -41 -68l-78 -20l-157 -41l102 -127q41 -47 53 -63q34 -50 -4 -78q-43 -30 -76 18q-7 9 -20.5 30.5 t-26.5 39.5l-88 135l-90 -135q-38 -60 -45 -70q-36 -45 -76 -18q-38 28 -4 78q11 17 51 63l103 127l-156 41q-15 4 -31.5 7.5t-27.5 6t-21 6.5q-25 8 -36.5 26t-4.5 42z" />
<glyph unicode="+" horiz-adv-x="1148" d="M72 723q0 28 20 50t49 22h361v360q0 29 21 49.5t50 20.5t50.5 -20.5t21.5 -49.5v-360h363q27 0 47 -22t20 -50q0 -29 -19.5 -50.5t-47.5 -21.5h-363v-362q0 -28 -21.5 -48t-50.5 -20t-50 20t-21 48v362h-361q-29 0 -49 21t-20 51z" />
<glyph unicode="," horiz-adv-x="401" d="M100 78q0 38 25 64t72 26q55 0 84.5 -36.5t29.5 -100.5q0 -89 -63 -154t-113 -65q-13 0 -22 8t-9 20q0 17 17.5 33t35 35.5t17.5 44.5q0 14 -7.5 25t-18.5 18.5t-22 17t-18.5 25.5t-7.5 39z" />
<glyph unicode="-" horiz-adv-x="1024" d="M174 594q0 28 20.5 49t49.5 21h536q29 0 49.5 -21t20.5 -49q0 -29 -20.5 -50.5t-49.5 -21.5h-536q-29 0 -49.5 21.5t-20.5 50.5z" />
<glyph unicode="." horiz-adv-x="376" d="M100 76q0 39 27.5 65.5t67.5 26.5t67 -26t27 -66t-27 -67t-67 -27t-67.5 27t-27.5 67z" />
<glyph unicode="/" horiz-adv-x="763" d="M-27 51q0 19 15 49l649 1266q24 49 76 49q30 0 52.5 -21.5t22.5 -50.5q0 -23 -14 -51l-649 -1263q-25 -49 -76 -49q-30 0 -53 21t-23 50z" />
<glyph unicode="0" d="M96 696q0 352 132.5 534.5t385.5 182.5t386 -182.5t133 -534.5t-133 -534t-386 -182t-385.5 182t-132.5 534zM258 696q0 -293 94 -430q88 -137 262 -137q172 0 263 137q92 142 92 430q0 290 -92 432q-89 138 -263 138q-172 0 -262 -138q-94 -145 -94 -432z" />
<glyph unicode="1" d="M219 1204q0 50 51 70l332 129q30 10 57 10q36 0 54 -22.5t18 -57.5v-1192h254q28 0 48 -20.5t20 -48.5q0 -30 -20 -51t-48 -21h-688q-29 0 -49.5 20.5t-20.5 51.5q0 28 20.5 48.5t49.5 20.5h270v1096l-245 -96q-14 -6 -33 -6q-29 0 -49.5 18t-20.5 51z" />
<glyph unicode="2" d="M160 76q0 143 30.5 229t104.5 162q58 59 141 109.5t173 99t145 90.5q129 97 129 240q0 108 -68 182q-78 88 -225 88q-105 0 -201 -47q-27 -14 -56.5 -34t-47 -29t-33.5 -9q-31 0 -51.5 19.5t-20.5 52.5t44.5 69t99.5 60q127 55 278 55q103 0 190 -36t148 -101 q98 -109 98 -266q0 -107 -44 -187t-126 -147q-69 -56 -224.5 -141.5t-221.5 -147.5q-49 -45 -67.5 -99t-18.5 -147h657q29 0 49.5 -20.5t20.5 -48.5q0 -31 -20.5 -51.5t-49.5 -20.5h-764q-30 0 -49.5 20t-19.5 56z" />
<glyph unicode="3" d="M154 119q0 30 20.5 50.5t50.5 20.5q20 0 62.5 -21t62.5 -28q81 -30 178 -30q149 0 235.5 75t86.5 199q0 181 -178 244q-65 22 -164 22q-33 0 -55.5 16.5t-22.5 51.5q0 25 18 44t50 19q104 0 170 31q137 59 137 213q0 105 -71.5 176.5t-192.5 71.5q-102 0 -179 -41 q-20 -9 -45.5 -24t-40 -21t-28.5 -6q-31 0 -51.5 20t-20.5 49q0 33 26 55.5t74 45.5q122 61 275 61q183 0 293 -104.5t110 -261.5q0 -112 -57 -196t-168 -124q132 -38 203.5 -129.5t71.5 -224.5q0 -175 -126.5 -284t-336.5 -109q-127 0 -242 28q-145 44 -145 111z" />
<glyph unicode="4" d="M84 387q0 27 16 49l650 922q42 55 88 55q34 0 53.5 -22t19.5 -56v-880h166q26 0 45 -20t19 -48t-19 -48t-45 -20h-166v-262q0 -32 -22.5 -54.5t-54.5 -22.5q-34 0 -57 22.5t-23 54.5v262h-604q-28 0 -47 20t-19 48zM285 455h469v675z" />
<glyph unicode="5" d="M164 164q0 29 21 49t51 20q14 0 29 -9t38 -27t41 -29q95 -57 236 -57q143 0 234 91.5t91 235.5q0 147 -81.5 236.5t-215.5 89.5q-105 0 -200 -68q-24 -17 -56.5 -44t-49.5 -37.5t-34 -10.5q-30 0 -46.5 17.5t-16.5 46.5q0 9 4 67l43 592q2 28 21.5 48t48.5 20h632 q30 0 50 -21t20 -51t-20 -50t-50 -20h-559l-37 -454q118 96 271 96q203 0 318.5 -126t115.5 -329q0 -201 -133.5 -330.5t-349.5 -129.5q-198 0 -326 77q-90 56 -90 107z" />
<glyph unicode="6" d="M139 633q0 67 5 131.5t20.5 144.5t40 148.5t67.5 135.5t98.5 114.5t137 76.5t180.5 29q162 0 260 -43q109 -43 109 -98q0 -31 -21 -52.5t-53 -21.5q-18 0 -63.5 20t-73.5 29q-80 25 -160 25q-131 0 -214 -80.5t-124 -210.5q-39 -124 -43 -301q117 182 342 182 q200 0 318 -116t118 -318q0 -198 -126 -323t-328 -125q-242 0 -366 172.5t-124 480.5zM301 518q12 -193 95 -296t233 -103q135 0 216 86t81 219q0 141 -78.5 221t-216.5 80q-108 0 -192 -56t-138 -151z" />
<glyph unicode="7" d="M150 1087v238q0 28 20.5 49t50.5 21h791q29 0 49 -21t20 -51q0 -14 -18 -59l-576 -1235q-12 -30 -43 -42t-61 -1q-34 14 -47 45t2 63l469 981q32 71 96 178h-610v-166q0 -29 -21 -49t-51 -20q-31 0 -51 20t-20 49z" />
<glyph unicode="8" d="M123 356q0 63 23 118.5t55.5 93.5t82.5 73t89.5 55t91.5 41q-62 29 -104 54t-89 65t-71.5 93.5t-24.5 119.5q0 157 116.5 250.5t321.5 93.5q204 0 322.5 -94t118.5 -250q0 -53 -18 -99.5t-44.5 -79t-68 -63.5t-76.5 -49.5t-82 -40.5q61 -28 100 -48.5t90 -56.5t80.5 -72 t50.5 -88.5t21 -113.5q0 -177 -131 -277.5t-361 -100.5q-231 0 -362 99.5t-131 276.5zM285 371q0 -119 83.5 -189.5t247.5 -70.5q163 0 247.5 69.5t84.5 188.5q0 57 -27 103.5t-79.5 82t-106 60.5t-129.5 51q-70 -24 -123.5 -50t-100.5 -61.5t-72 -82t-25 -101.5zM334 1069 q0 -51 25.5 -93.5t73 -74.5t90 -52t100.5 -42q58 23 102.5 46.5t85.5 55t63.5 71t22.5 85.5q0 104 -73 163.5t-208 59.5q-138 0 -210 -57.5t-72 -161.5z" />
<glyph unicode="9" d="M141 965q0 198 126.5 323t328.5 125q242 0 366.5 -172.5t124.5 -480.5q0 -66 -5.5 -131.5t-21 -145t-40 -148t-67.5 -135.5t-99 -114.5t-137.5 -76.5t-179.5 -29q-163 0 -261 40q-108 43 -108 101q0 31 21.5 52.5t52.5 21.5q19 0 64 -20.5t75 -29.5q74 -24 160 -24 q241 0 336 291q39 124 43 301q-118 -183 -342 -183q-200 0 -318.5 116t-118.5 319zM301 969q0 -141 77.5 -221t215.5 -80q110 0 193.5 55t136.5 151q-12 193 -95 296.5t-233 103.5q-134 0 -214.5 -86.5t-80.5 -218.5z" />
<glyph unicode=":" horiz-adv-x="393" d="M104 76q0 39 27.5 65.5t67.5 26.5q39 0 66.5 -26.5t27.5 -65.5t-27.5 -66.5t-66.5 -27.5q-40 0 -67.5 27t-27.5 67zM104 850q0 38 27.5 65t67.5 27q38 0 66 -27t28 -65q0 -39 -27.5 -66.5t-66.5 -27.5q-40 0 -67.5 27t-27.5 67z" />
<glyph unicode=";" horiz-adv-x="393" d="M104 78q0 38 26 64t73 26q55 0 84.5 -36.5t29.5 -100.5q0 -89 -64 -154t-114 -65q-12 0 -20 8t-8 20q0 13 10.5 26.5t23 23t23 26.5t10.5 37q0 14 -7.5 25t-18.5 18.5t-22 17t-18.5 25.5t-7.5 39zM111 850q0 38 28 65t68 27q38 0 65 -27t27 -65q0 -40 -27 -67t-65 -27 q-40 0 -68 27t-28 67z" />
<glyph unicode="&#x3c;" horiz-adv-x="1257" d="M88 723q0 83 92 119l846 368q26 11 43 11q32 0 55 -23t23 -57q0 -49 -51 -72l-820 -346l820 -346q51 -23 51 -72q0 -34 -23 -57t-55 -23q-17 0 -43 11l-846 368q-92 36 -92 119z" />
<glyph unicode="=" horiz-adv-x="1146" d="M72 477q0 28 20 49t49 21h867q27 0 47 -21t20 -49q0 -30 -19.5 -50.5t-47.5 -20.5h-867q-29 0 -49 20t-20 51zM72 969q0 28 20 48.5t49 20.5h867q28 0 47.5 -20.5t19.5 -48.5q0 -31 -19.5 -51.5t-47.5 -20.5h-867q-29 0 -49 20.5t-20 51.5z" />
<glyph unicode="&#x3e;" horiz-adv-x="1261" d="M111 305q0 49 51 72l819 346l-819 346q-51 23 -51 72q0 34 22.5 57t54.5 23q17 0 43 -11l846 -368q92 -40 92 -119t-92 -119l-846 -368q-26 -11 -43 -11q-32 0 -54.5 22.5t-22.5 57.5z" />
<glyph unicode="?" horiz-adv-x="1003" d="M51 1188q0 32 26 59.5t79 61.5q158 104 350 104q184 0 307 -110.5t123 -286.5q0 -112 -52 -185.5t-159 -148.5q-39 -28 -62 -47t-52.5 -48.5t-46.5 -63.5t-23 -74q-9 -54 -25 -75.5t-51 -21.5q-31 0 -51.5 22t-20.5 56q0 69 49 158q19 35 49.5 69.5t50.5 52.5t71 59 t67 54q102 85 102 193q0 118 -80.5 189t-205.5 71q-79 0 -136 -20t-120 -62q-18 -13 -45.5 -35.5t-42.5 -30.5t-35 -8q-28 0 -47 20t-19 48zM369 76q0 39 28 65.5t68 26.5q39 0 65.5 -26.5t26.5 -65.5q0 -40 -27 -67t-65 -27q-40 0 -68 27t-28 67z" />
<glyph unicode="@" horiz-adv-x="1640" d="M100 694q0 145 61 278t163 230t243 155t295 58q191 0 344 -72.5t243.5 -212t90.5 -323.5q0 -144 -44 -264.5t-127 -193.5t-189 -73q-114 0 -123 107q-91 -111 -269 -111q-112 0 -192 56q-98 63 -98 182q0 159 209 223q122 38 337 47q0 134 -63 197q-62 59 -168 59 q-92 0 -158 -37q-17 -9 -33.5 -20.5t-26.5 -17t-22 -5.5q-17 0 -29 11t-12 28q0 29 76 70q89 49 205 49q134 0 221 -78q94 -87 94 -256v-352q0 -82 68 -82q107 0 188.5 124.5t81.5 332.5q0 166 -79 290.5t-215 188.5t-310 64q-139 0 -266.5 -52.5t-219.5 -140.5t-147 -209 t-55 -252q0 -197 90 -348t247.5 -232t358.5 -81q241 0 437 75q15 6 33 14.5t28 12.5t18 4q15 0 26 -11t11 -26q0 -20 -19.5 -31.5t-70.5 -29.5q-210 -78 -463 -78q-221 0 -395.5 90t-274.5 257.5t-100 385.5zM580 506q0 -73 61 -121q55 -43 150 -43q180 0 253 125v244 q-214 -10 -323 -47q-141 -50 -141 -158z" />
<glyph unicode="A" horiz-adv-x="1415" d="M150 59v754q0 127 43 244t129 205q151 151 385 151q239 0 387 -151q85 -88 128.5 -205.5t43.5 -243.5v-754q0 -32 -24.5 -55.5t-57.5 -23.5q-35 0 -58.5 23t-23.5 56v426h-789v-426q0 -32 -24 -55.5t-58 -23.5t-57.5 23.5t-23.5 55.5zM313 631h789v178q0 207 -113 332 q-111 121 -282 121q-175 0 -283 -121q-111 -120 -111 -332v-178z" />
<glyph unicode="B" horiz-adv-x="1296" d="M154 80v1235q0 33 23.5 56.5t58.5 23.5h421q83 0 157.5 -21.5t135 -64t96 -112t35.5 -157.5q0 -114 -48.5 -191.5t-133.5 -115.5v-4q145 -29 221 -123t76 -233q0 -94 -38.5 -167.5t-104 -117t-146.5 -66t-172 -22.5h-499q-35 0 -58.5 23.5t-23.5 56.5zM317 135h385 q69 0 125 13.5t103 42t73 79.5t27 121q0 109 -76 180.5t-221 71.5h-416v-508zM317 776h342q112 0 185.5 60t73.5 186q0 116 -81.5 178t-203.5 62h-316v-486z" />
<glyph unicode="C" horiz-adv-x="1349" d="M96 698q0 144 59 277t157.5 228.5t233 152.5t279.5 57q194 0 342 -67q99 -42 99 -103q0 -33 -21.5 -54.5t-54.5 -21.5q-14 0 -33.5 10t-52 27t-66.5 29q-97 33 -215 33q-149 0 -277.5 -76.5t-204 -207.5t-75.5 -284q0 -166 76.5 -297.5t203.5 -202.5t277 -71 q114 0 217 35q37 13 71.5 30.5t54.5 27t34 9.5q31 0 53.5 -21.5t22.5 -53.5q0 -33 -25.5 -56.5t-74.5 -46.5q-152 -71 -351 -71q-201 0 -366 87.5t-264 253t-99 377.5z" />
<glyph unicode="D" horiz-adv-x="1511" d="M154 80v1235q0 33 23.5 56.5t58.5 23.5h436q385 0 581 -219q162 -180 162 -480q0 -367 -260 -555q-194 -141 -514 -141h-405q-35 0 -58.5 23.5t-23.5 56.5zM317 139h308q249 0 407 111q215 153 215 446q0 238 -131 385q-158 174 -471 174h-328v-1116z" />
<glyph unicode="E" horiz-adv-x="1163" d="M131 590v215q0 255 111 403q141 187 465 187h323q29 0 49.5 -21.5t20.5 -50.5q0 -31 -20.5 -52.5t-49.5 -21.5h-319q-248 0 -346 -139q-70 -103 -70 -262v-74h629q30 0 50.5 -21t20.5 -51q0 -31 -20 -51t-51 -20h-629v-80q0 -197 94 -297q103 -109 320 -109h321 q29 0 49.5 -21t20.5 -52q0 -29 -20.5 -50.5t-49.5 -21.5h-323q-308 0 -451 168q-125 146 -125 422z" />
<glyph unicode="F" horiz-adv-x="1103" d="M131 59v746q0 271 119 414q137 176 457 176h280q32 0 54 -20t22 -52q0 -33 -22 -53.5t-54 -20.5h-278q-245 0 -344 -135q-70 -97 -70 -268v-72h584q32 0 53.5 -19.5t21.5 -52.5t-21.5 -52t-53.5 -19h-584v-572q0 -32 -24.5 -55.5t-57.5 -23.5q-35 0 -58.5 23t-23.5 56z " />
<glyph unicode="G" horiz-adv-x="1607" d="M96 698q0 203 100.5 367.5t272.5 256t379 91.5q186 0 358 -70q50 -21 76.5 -44t26.5 -56q0 -34 -22.5 -55t-57.5 -21q-18 0 -38 9t-58 27t-80 32q-95 31 -207 31q-158 0 -290.5 -72.5t-211 -203.5t-78.5 -292q0 -128 45 -235.5t123.5 -181t185 -114t228.5 -40.5 q195 0 328 92q154 106 174 303h-455q-29 0 -49.5 20.5t-20.5 51.5q0 29 20.5 50.5t49.5 21.5h555q31 0 51.5 -19t20.5 -57q0 -143 -55.5 -260.5t-155.5 -198.5q-187 -151 -469 -151q-156 0 -291.5 48t-237 137t-159.5 226.5t-58 306.5z" />
<glyph unicode="H" horiz-adv-x="1470" d="M154 59v1274q0 32 24 56t58 24t57.5 -23.5t23.5 -56.5v-561h838v561q0 33 23.5 56.5t58.5 23.5q34 0 58 -24t24 -56v-1274q0 -32 -24.5 -55.5t-57.5 -23.5q-35 0 -58.5 23t-23.5 56v568h-838v-568q0 -32 -23.5 -55.5t-57.5 -23.5t-58 23.5t-24 55.5z" />
<glyph unicode="I" horiz-adv-x="471" d="M154 59v1274q0 32 24 56t58 24t57.5 -23.5t23.5 -56.5v-1274q0 -32 -23.5 -55.5t-57.5 -23.5t-58 23.5t-24 55.5z" />
<glyph unicode="J" horiz-adv-x="1050" d="M20 168q0 32 22 54t54 22q27 0 56 -25q105 -94 235 -94q160 0 256 96t96 293v819q0 32 24 56t58 24q35 0 58.5 -23.5t23.5 -56.5v-821q0 -267 -149 -403q-144 -129 -365 -129q-88 0 -176.5 30.5t-157.5 87.5q-35 32 -35 70z" />
<glyph unicode="K" horiz-adv-x="1214" d="M154 59v1274q0 32 24 56t58 24t57.5 -23.5t23.5 -56.5v-608l656 661q27 27 61 27q31 0 53.5 -23.5t22.5 -56.5q0 -30 -23 -53l-503 -496l563 -678q14 -20 14 -45q0 -33 -23 -57t-57 -24q-43 0 -75 43l-533 647l-156 -152v-459q0 -32 -23.5 -55.5t-57.5 -23.5t-58 23.5 t-24 55.5z" />
<glyph unicode="L" horiz-adv-x="1069" d="M131 582v751q0 33 23.5 56.5t58.5 23.5q34 0 58 -24t24 -56v-774q0 -202 86 -301q98 -113 324 -113h258q29 0 49 -21t20 -52q0 -30 -20 -51t-49 -21h-261q-324 0 -460 172q-111 141 -111 410z" />
<glyph unicode="M" horiz-adv-x="1703" d="M154 57v1256q0 42 27.5 71t72.5 29q59 0 90 -53l508 -838l508 838q31 53 90 53q45 0 72.5 -29t27.5 -71v-1256q0 -33 -21 -55t-56 -22q-36 0 -58 22t-22 55v1053l-461 -745q-31 -52 -80 -52t-80 52l-461 745v-1053q0 -33 -21.5 -55t-56.5 -22q-36 0 -57.5 22t-21.5 55z " />
<glyph unicode="N" horiz-adv-x="1515" d="M154 53v1272q0 36 27 62t65 26q46 0 82 -45l876 -1102v1071q0 31 23.5 53.5t56.5 22.5q32 0 55 -22.5t23 -53.5v-1269q0 -37 -27 -62.5t-67 -25.5q-44 0 -82 45l-875 1101v-1073q0 -31 -23 -52t-57 -21q-33 0 -55 21t-22 52z" />
<glyph unicode="O" horiz-adv-x="1650" d="M96 694q0 149 58 283t156.5 229t233 151t281.5 56t281.5 -56t233 -151t156.5 -229t58 -283q0 -199 -98.5 -363.5t-266 -257.5t-364.5 -93q-147 0 -281.5 55.5t-233 150t-156.5 227.5t-58 281zM270 694q0 -154 73 -283t200.5 -204.5t281.5 -75.5t282 76t201.5 205 t73.5 282t-73.5 283t-202 206.5t-281.5 76.5t-281 -76.5t-201 -206.5t-73 -283z" />
<glyph unicode="P" horiz-adv-x="1282" d="M154 59v1256q0 32 24 56t58 24h485q193 0 321 -99q164 -131 164 -360q0 -117 -46.5 -213.5t-129.5 -157.5q-120 -88 -330 -88h-383v-418q0 -32 -23.5 -55.5t-57.5 -23.5t-58 23.5t-24 55.5zM317 621h357q156 0 239 55q60 41 93.5 108t33.5 152q0 171 -118 252 q-84 63 -226 63h-379v-630z" />
<glyph unicode="Q" horiz-adv-x="1650" d="M96 694q0 149 58 283t156.5 229t233 151t281.5 56t281 -56t232.5 -151t157 -229t58.5 -283q0 -134 -47 -255.5t-128.5 -213t-193.5 -153.5t-239 -82q2 -3 5.5 -6t8.5 -6t9.5 -5.5t12 -5.5l12.5 -5t14 -4.5t14.5 -4t15 -4.5t13.5 -4q148 -46 424 -119q84 -23 102 -35 q29 -19 29 -55q0 -33 -24.5 -52.5t-70.5 -19.5q-19 0 -44.5 4t-61.5 13t-69.5 18.5t-84 26t-88 29t-100.5 35t-101.5 36t-109.5 39.5t-109 39q-47 15 -47 57q0 17 6 29q-127 20 -238.5 82t-193 153.5t-128 213t-46.5 255.5zM268 694q0 -153 73.5 -282.5t201.5 -205 t282 -75.5t281.5 75.5t200.5 204.5t73 283q0 153 -73 283t-201 206.5t-281 76.5t-281.5 -76.5t-202 -206.5t-73.5 -283z" />
<glyph unicode="R" horiz-adv-x="1331" d="M154 59v1256q0 33 23.5 56.5t58.5 23.5h489q221 0 340 -80q166 -111 166 -346q0 -213 -164 -334q-84 -62 -201 -82l342 -436q23 -26 23 -56q0 -33 -24.5 -57t-59.5 -24q-44 0 -70 38l-399 527h-361v-486q0 -32 -23.5 -55.5t-57.5 -23.5q-35 0 -58.5 23t-23.5 56zM317 682 h385q158 0 240 47q121 72 121 240t-117 237q-81 49 -239 49h-390v-573z" />
<glyph unicode="S" horiz-adv-x="1138" d="M88 172q0 35 23 57.5t57 22.5q15 0 31.5 -9.5t48.5 -29.5t69 -37q112 -55 246 -55q159 0 239.5 71.5t80.5 186.5q0 137 -176 213q-50 22 -187.5 62.5t-218.5 80.5q-207 101 -207 307q0 174 128 272.5t366 98.5q185 0 319 -59q94 -38 94 -97q0 -33 -21 -54t-56 -21 q-16 0 -35.5 8t-49.5 22t-55 23q-105 37 -204 37q-157 0 -235.5 -57.5t-78.5 -167.5q0 -73 51.5 -122t149.5 -85q50 -18 133 -41t152.5 -46.5t126.5 -56.5q180 -107 180 -303q0 -193 -136 -303t-360 -110q-103 0 -212 28.5t-185 69.5q-78 44 -78 94z" />
<glyph unicode="T" horiz-adv-x="1155" d="M0 1323q0 30 21 51t51 21h1013q29 0 49.5 -21.5t20.5 -50.5q0 -31 -20.5 -52.5t-49.5 -21.5h-426v-1190q0 -32 -23.5 -55.5t-57.5 -23.5t-58 23.5t-24 55.5v1190h-424q-31 0 -51.5 21.5t-20.5 52.5z" />
<glyph unicode="U" horiz-adv-x="1478" d="M150 551v782q0 33 24 56.5t57 23.5q35 0 58.5 -23.5t23.5 -56.5v-762q0 -202 105 -319q113 -125 319 -125q211 0 324 125q104 116 104 319v762q0 33 23.5 56.5t58.5 23.5q34 0 58 -24t24 -56v-782q0 -248 -135 -395q-156 -176 -455 -176q-298 0 -454 176 q-135 147 -135 395z" />
<glyph unicode="V" horiz-adv-x="1265" d="M14 1331q0 35 23.5 58.5t60.5 23.5q28 0 49.5 -15.5t30.5 -41.5l453 -1159l454 1159q23 57 82 57q35 0 59.5 -22t24.5 -58q0 -11 -8 -35l-498 -1235q-32 -83 -116 -83q-83 0 -115 83l-491 1233q-9 27 -9 35z" />
<glyph unicode="W" horiz-adv-x="2197" d="M150 508v825q0 33 24 56.5t57 23.5q35 0 58.5 -23.5t23.5 -56.5v-825q0 -179 86 -275q94 -102 269 -102q138 0 225 84q123 113 123 326v792q0 32 24 56t58 24q35 0 58.5 -23.5t23.5 -56.5v-792q0 -211 125 -326q87 -84 225 -84q175 0 266 102q88 94 88 275v825 q0 33 23.5 56.5t58.5 23.5q34 0 58 -24t24 -56v-825q0 -244 -127 -381q-70 -75 -171.5 -111t-215.5 -36q-147 0 -258 71q-118 72 -178 223q-56 -150 -176 -223q-111 -71 -258 -71q-249 0 -388 147q-126 136 -126 381z" />
<glyph unicode="X" horiz-adv-x="1269" d="M18 66q0 29 23 55l491 575l-485 576q-22 29 -22 55q0 35 28.5 60.5t65.5 25.5q43 0 76 -41l442 -545l440 545q35 41 76 41q35 0 64.5 -25.5t29.5 -60.5q0 -28 -24 -55l-482 -574l490 -577q20 -23 20 -55q0 -35 -27.5 -60.5t-64.5 -25.5q-44 0 -76 40l-446 549l-449 -549 q-32 -40 -77 -40q-36 0 -64.5 24.5t-28.5 61.5z" />
<glyph unicode="Y" horiz-adv-x="1169" d="M8 1335q0 34 23 56t57 22q44 0 72 -41l424 -596l426 596q28 41 71 41q34 0 57 -23t23 -55q0 -28 -16 -57l-479 -666v-553q0 -32 -24 -55.5t-58 -23.5t-58 23.5t-24 55.5v553l-475 668q-19 30 -19 55z" />
<glyph unicode="Z" horiz-adv-x="1134" d="M16 1323q0 28 20.5 50t49.5 22h911q30 0 51 -22t21 -50q0 -27 -14 -47l-787 -1131h772q29 0 50.5 -22t21.5 -51t-21.5 -50.5t-50.5 -21.5h-921q-29 0 -50.5 21.5t-21.5 50.5q0 24 19 51l784 1126h-764q-29 0 -49.5 21.5t-20.5 52.5z" />
<glyph unicode="[" horiz-adv-x="671" d="M147 -377v1694q0 32 24 55t56 23h322q29 0 49 -21t20 -49q0 -29 -20 -49.5t-49 -20.5h-244v-1570h244q29 0 49 -21t20 -51q0 -28 -20 -47t-49 -19h-322q-33 0 -56.5 22t-23.5 54z" />
<glyph unicode="\" horiz-adv-x="565" d="M45 1317q-8 30 7 58.5t44 35.5q31 9 58 -6.5t36 -46.5l359 -1282q8 -29 -7 -56t-44 -36q-30 -8 -57.5 6.5t-34.5 44.5z" />
<glyph unicode="]" horiz-adv-x="669" d="M53 -387q0 29 20 50.5t48 21.5h244v1570h-244q-28 0 -48 20.5t-20 49.5q0 28 20 49t48 21h323q32 0 55 -23t23 -55v-1694q0 -32 -23 -54t-55 -22h-323q-28 0 -48 19t-20 47z" />
<glyph unicode="^" horiz-adv-x="1019" d="M90 889q0 17 14 41l338 526q24 39 68 39t68 -39l337 -526q13 -23 13 -41q0 -28 -19 -47t-47 -19q-35 0 -57 31l-295 467l-297 -467q-22 -31 -55 -31q-28 0 -48 19t-20 47z" />
<glyph unicode="_" horiz-adv-x="991" d="M-59 -225q0 24 17.5 41.5t41.5 17.5h991q24 0 41 -17.5t17 -41.5q0 -25 -16.5 -42.5t-41.5 -17.5h-991q-25 0 -42 17.5t-17 42.5z" />
<glyph unicode="`" horiz-adv-x="854" d="M283 1520q0 23 18 40t43 17q35 0 57 -43l158 -283q12 -21 12 -39q0 -21 -15.5 -35t-37.5 -14q-32 0 -53 37l-166 275q-16 27 -16 45z" />
<glyph unicode="a" horiz-adv-x="1148" d="M92 463q0 197 111 330q130 149 360 149q227 0 344 -139q109 -128 109 -365v-387q0 -30 -22.5 -50.5t-53.5 -20.5t-52.5 19.5t-21.5 51.5v31q-129 -102 -319 -102q-213 0 -330 126q-125 134 -125 357zM242 459q0 -159 86 -258q86 -95 237 -95q91 0 162 29t139 86v213 q0 192 -80 285q-75 92 -223 92q-165 0 -252 -121q-69 -92 -69 -231z" />
<glyph unicode="b" horiz-adv-x="1157" d="M133 479v862q0 29 22.5 50.5t53.5 21.5q29 0 51.5 -21.5t22.5 -50.5v-499q66 52 141.5 77t177.5 25q214 0 334 -129q121 -130 121 -356q0 -197 -111 -330q-128 -147 -360 -147q-227 0 -344 137q-109 128 -109 360zM283 475q0 -182 79 -274q78 -90 222 -90q161 0 254 118 q69 92 69 234q0 171 -84 264q-83 96 -241 96q-98 0 -166.5 -29t-132.5 -89v-230z" />
<glyph unicode="c" horiz-adv-x="964" d="M92 463q0 181 105 305q70 84 173 129t222 45q129 0 227 -49q70 -34 70 -80q0 -25 -18 -42t-44 -17q-8 0 -16 2t-14 4.5t-18.5 8.5t-22.5 11q-79 35 -164 35q-163 0 -266 -119q-82 -95 -82 -233q0 -160 94 -260q96 -99 256 -99q99 0 168 29q15 6 29.5 14t23 11.5t19.5 3.5 q24 0 41.5 -18.5t17.5 -43.5q0 -27 -20.5 -45.5t-65.5 -36.5q-96 -38 -217 -38q-238 0 -371 139q-127 133 -127 344z" />
<glyph unicode="d" horiz-adv-x="1148" d="M92 459q0 222 125 356q120 129 330 129q193 0 319 -92v489q0 29 22.5 50.5t51.5 21.5q31 0 53.5 -21.5t22.5 -50.5v-862q0 -232 -109 -360q-117 -137 -344 -137q-232 0 -360 147q-111 133 -111 330zM242 463q0 -142 69 -234q93 -118 254 -118q143 0 221 90q80 93 80 274 v215q-71 66 -138.5 99.5t-160.5 33.5q-158 0 -241 -96q-84 -93 -84 -264z" />
<glyph unicode="e" horiz-adv-x="1073" d="M92 473q0 202 123 334q125 135 338 135q202 0 321 -129q113 -119 113 -301q0 -38 -21 -65t-59 -27h-659q12 -126 80 -205q95 -113 258 -113q126 0 221 50q10 5 25.5 13.5t22.5 12.5t17 7t19 3q24 0 40.5 -18t16.5 -43q0 -22 -17.5 -39.5t-58.5 -40.5q-127 -67 -292 -67 q-232 0 -367 151q-121 130 -121 342zM248 528h594q-6 127 -76 203q-83 90 -213 90q-146 0 -231 -98q-64 -73 -74 -195z" />
<glyph unicode="f" horiz-adv-x="706" d="M37 866q0 24 17.5 41t41.5 17h99v166q0 323 276 323q113 0 195 -39t82 -98q0 -24 -17 -41.5t-41 -17.5q-20 0 -46.5 15.5t-63 30.5t-80.5 15q-86 0 -121 -47.5t-35 -151.5v-155h260q23 0 40.5 -17.5t17.5 -40.5q0 -26 -17 -43.5t-41 -17.5h-260v-754q0 -29 -21.5 -50 t-52.5 -21t-53 21t-22 50v754h-99q-25 0 -42 17.5t-17 43.5z" />
<glyph unicode="g" horiz-adv-x="1157" d="M98 463q0 198 113 330q126 151 358 151q228 0 346 -141q109 -131 109 -365v-432q0 -206 -109 -336q-60 -70 -152.5 -106.5t-197.5 -36.5q-147 0 -266 45q-65 24 -90 44t-25 52q0 28 18.5 47t47.5 19q21 0 67.5 -23.5t79.5 -34.5q73 -26 166 -26q69 0 131.5 24t102.5 70 q41 47 58 107t17 151v74q-119 -96 -319 -96q-211 0 -328 126q-127 137 -127 357zM248 459q0 -167 86 -262t237 -95q93 0 164 28t137 85v219q0 192 -77 285q-77 92 -226 92q-161 0 -250 -121q-71 -95 -71 -231z" />
<glyph unicode="h" horiz-adv-x="1134" d="M147 51v1288q0 31 22.5 52.5t53.5 21.5t53.5 -21.5t22.5 -52.5v-571q46 87 131 130.5t193 43.5q171 0 268 -84q110 -96 110 -309v-498q0 -29 -22 -50t-53 -21t-52.5 21t-21.5 50v465q0 166 -76 236q-62 59 -182 59q-166 0 -242 -141q-53 -101 -53 -244v-375 q0 -29 -22.5 -50t-53.5 -21t-53.5 21t-22.5 50z" />
<glyph unicode="i" horiz-adv-x="446" d="M131 1366q0 37 26.5 63.5t63.5 26.5t63.5 -26.5t26.5 -63.5t-26.5 -63.5t-63.5 -26.5t-63.5 26.5t-26.5 63.5zM147 51v819q0 30 22.5 51t53.5 21t53.5 -21t22.5 -51v-819q0 -29 -22.5 -50t-53.5 -21t-53.5 21t-22.5 50z" />
<glyph unicode="j" horiz-adv-x="446" d="M-12 -412q0 24 15 37t44.5 35t52.5 55q27 37 37 100.5t10 168.5v886q0 31 22.5 52.5t53.5 21.5t53.5 -21.5t22.5 -52.5v-931q0 -214 -80 -326q-29 -40 -70.5 -64t-82.5 -24q-34 0 -56 16t-22 47zM131 1366q0 37 26.5 63.5t63.5 26.5t63.5 -26.5t26.5 -63.5t-26.5 -63.5 t-63.5 -26.5t-63.5 26.5t-26.5 63.5z" />
<glyph unicode="k" horiz-adv-x="954" d="M147 51v1286q0 31 22.5 52.5t53.5 21.5t53.5 -21.5t22.5 -52.5v-858l473 443q23 20 47 20q31 0 50.5 -21t19.5 -47q0 -31 -21 -49l-331 -303l358 -420q20 -24 20 -51q0 -30 -21.5 -50.5t-51.5 -20.5q-35 0 -62 34l-348 416l-133 -123v-256q0 -29 -22.5 -50t-53.5 -21 t-53.5 21t-22.5 50z" />
<glyph unicode="l" horiz-adv-x="446" d="M147 51v1288q0 31 22.5 52.5t53.5 21.5t53.5 -21.5t22.5 -52.5v-1288q0 -29 -22.5 -50t-53.5 -21t-53.5 21t-22.5 50z" />
<glyph unicode="m" horiz-adv-x="1665" d="M133 53v479q0 159 64 263q43 72 126 110.5t197 38.5q226 0 311 -182q85 182 314 182q114 0 197 -38.5t126 -110.5q64 -104 64 -263v-479q0 -31 -22 -52t-54 -21q-30 0 -52 21.5t-22 51.5v467q0 112 -32 180q-56 111 -205 111q-107 0 -176 -72q-62 -70 -62 -219v-467 q0 -30 -22.5 -51.5t-53.5 -21.5t-52 21t-21 52v467q0 149 -62 219q-69 72 -176 72q-76 0 -128.5 -30t-76.5 -81q-32 -68 -32 -180v-467q0 -30 -22 -51.5t-52 -21.5q-32 0 -54 21t-22 52z" />
<glyph unicode="n" horiz-adv-x="1118" d="M133 51v481q0 157 68 263q50 72 142 110.5t216 38.5q126 0 217.5 -38.5t141.5 -110.5q36 -53 51.5 -114t15.5 -149v-481q0 -29 -21.5 -50t-52.5 -21q-32 0 -53.5 20.5t-21.5 50.5v471q0 113 -37 180q-29 52 -90 82.5t-150 30.5q-174 0 -237 -113q-39 -71 -39 -180v-471 q0 -29 -21.5 -50t-52.5 -21q-32 0 -54 21t-22 50z" />
<glyph unicode="o" horiz-adv-x="1163" d="M92 461q0 210 137 344q67 65 158.5 101t194.5 36q212 0 352 -137q139 -136 139 -344q0 -101 -36.5 -189.5t-102.5 -152.5q-139 -139 -352 -139q-104 0 -195.5 36.5t-157.5 102.5q-137 134 -137 342zM240 461q0 -148 92 -250q98 -109 250 -109q154 0 252 109q90 99 90 250 t-90 250q-97 108 -252 108q-153 0 -250 -108q-92 -102 -92 -250z" />
<glyph unicode="p" horiz-adv-x="1157" d="M133 -408v852q0 233 109 361q119 139 344 139q233 0 360 -149q111 -133 111 -330q0 -222 -125 -356q-118 -129 -330 -129q-193 0 -319 92v-480q0 -30 -22 -50.5t-52 -20.5q-31 0 -53.5 20.5t-22.5 50.5zM283 223q66 -61 134.5 -92t164.5 -31q151 0 241 97q84 96 84 266 q0 139 -69 231q-92 121 -254 121q-147 0 -222 -90q-79 -91 -79 -274v-228z" />
<glyph unicode="q" horiz-adv-x="1148" d="M92 465q0 197 111 330q127 149 360 149q225 0 344 -139q109 -128 109 -361v-852q0 -30 -22.5 -50.5t-53.5 -20.5q-30 0 -52 20.5t-22 50.5v490q-67 -53 -141.5 -77.5t-177.5 -24.5q-212 0 -330 129q-125 134 -125 356zM242 463q0 -170 84 -266q90 -97 241 -97 q97 0 165 28.5t134 88.5v234q0 181 -80 274q-75 90 -221 90q-162 0 -254 -121q-69 -92 -69 -231z" />
<glyph unicode="r" horiz-adv-x="774" d="M133 53v486q0 158 66 258q47 72 134 109.5t204 37.5q91 0 163 -29q80 -33 80 -81q0 -29 -18.5 -48.5t-46.5 -19.5q-12 0 -22.5 3.5t-27 11t-30.5 12.5q-52 20 -103 20q-78 0 -133 -28.5t-80 -79.5q-36 -65 -36 -177v-475q0 -31 -21.5 -52t-52.5 -21q-32 0 -54 21t-22 52z " />
<glyph unicode="s" horiz-adv-x="825" d="M74 123q0 25 16.5 42t42.5 17q29 0 82 -30q88 -52 191 -52q192 0 192 140q0 53 -32.5 84.5t-98.5 60.5q-26 12 -104.5 39.5t-118.5 46.5q-152 71 -152 223q0 118 88 184t250 66q125 0 213 -31q86 -29 86 -82q0 -25 -16 -41t-41 -16q-26 0 -96.5 22.5t-139.5 22.5 q-188 0 -188 -125q0 -46 28.5 -73.5t83.5 -51.5q31 -14 111 -41.5t113 -44.5q170 -80 170 -231q0 -126 -92.5 -199t-249.5 -73q-150 0 -260 51q-34 16 -56 40t-22 52z" />
<glyph unicode="t" horiz-adv-x="722" d="M29 866q0 24 17.5 41t41.5 17h88v153q0 31 22 52.5t54 21.5q30 0 52 -22t22 -52v-153h282q25 0 42.5 -17.5t17.5 -40.5q0 -25 -17.5 -43t-42.5 -18h-282v-496q0 -101 38 -149.5t130 -48.5q44 0 82.5 16.5t65.5 33.5t42 17q26 0 40.5 -16.5t14.5 -42.5q0 -58 -98 -103 q-80 -36 -174 -36q-153 0 -222 85t-69 230v510h-88q-25 0 -42 18t-17 43z" />
<glyph unicode="u" horiz-adv-x="1118" d="M133 391v479q0 31 22 51.5t54 20.5q31 0 52.5 -20.5t21.5 -51.5v-467q0 -111 39 -180q28 -50 88.5 -80t148.5 -30t149 30t89 80q37 65 37 180v467q0 30 22 51t53 21t53.5 -21t22.5 -51v-479q0 -158 -70 -262q-47 -72 -139 -110.5t-217 -38.5q-256 0 -358 149 q-68 106 -68 262z" />
<glyph unicode="v" horiz-adv-x="901" d="M14 870q0 33 22 52.5t60 19.5q50 0 72 -63l281 -729h8l280 733q21 59 74 59q36 0 56 -19t20 -49q0 -23 -19 -67l-305 -733q-20 -47 -47 -70.5t-70 -23.5q-45 0 -70.5 22.5t-45.5 71.5l-299 735q-17 43 -17 61z" />
<glyph unicode="w" horiz-adv-x="1630" d="M133 391v479q0 31 22 52.5t54 21.5q31 0 52.5 -21.5t21.5 -52.5v-471q0 -117 34 -184q51 -100 191 -100q146 0 199 110q32 63 32 178v467q0 31 22.5 52.5t53.5 21.5t53.5 -21.5t22.5 -52.5v-467q0 -112 31 -178q50 -110 200 -110q136 0 191 98q35 69 35 186v471 q0 31 21 52.5t52 21.5t53.5 -21.5t22.5 -52.5v-479q0 -161 -55 -262q-41 -72 -120 -110.5t-187 -38.5q-176 0 -265 110q-39 49 -55 84q-19 -41 -55 -84q-92 -110 -262 -110q-109 0 -188.5 39t-121.5 112q-55 96 -55 260z" />
<glyph unicode="x" horiz-adv-x="917" d="M14 55q0 6 1 11.5t2 9.5t4.5 9.5t5 8.5t7 9t7 8t8 9t8.5 9l303 344l-294 334q-2 2 -9.5 11t-9.5 12.5t-6.5 10.5t-6 13.5t-1.5 13.5q0 32 23 54t57 22q43 0 77 -43l269 -321l270 319q35 45 76 45q32 0 54 -21t22 -51q0 -27 -29 -59l-297 -332l317 -362q33 -41 33 -64 q0 -31 -22.5 -53t-57.5 -22q-48 0 -86 51l-280 334l-287 -342q-38 -43 -78 -43q-34 0 -57 21.5t-23 53.5z" />
<glyph unicode="y" horiz-adv-x="1138" d="M133 373v497q0 30 22.5 51t53.5 21t52.5 -20.5t21.5 -51.5v-458q0 -172 75 -242q60 -57 183 -57q159 0 239 123q56 89 56 231v403q0 30 22 51t53 21t52.5 -20.5t21.5 -51.5v-888q0 -202 -96 -318q-58 -68 -148 -102.5t-194 -34.5q-145 0 -264 45q-64 24 -88.5 44 t-24.5 52q0 27 18.5 46.5t47.5 19.5q16 0 33.5 -6t49 -20t54.5 -23q83 -31 172 -31q67 0 126.5 22.5t96.5 65.5t52.5 98t15.5 135v166q-53 -85 -132 -123t-194 -38q-175 0 -270 88q-107 96 -107 305z" />
<glyph unicode="z" horiz-adv-x="808" d="M10 860q0 26 19 46t45 20h643q28 0 45.5 -16.5t17.5 -41.5q0 -27 -28 -67l-516 -670h503q26 0 45 -19.5t19 -45.5q0 -28 -19 -47t-45 -19h-647q-28 0 -45.5 16t-17.5 43q0 30 26 62l518 674h-499q-26 0 -45 18.5t-19 46.5z" />
<glyph unicode="{" horiz-adv-x="681" d="M39 528q0 72 47 72h8q187 0 187 303q0 45 -4.5 153t-4.5 134q0 147 71 224t228 77q28 0 45 -17.5t17 -41.5q0 -25 -17 -41t-45 -19q-35 -3 -60.5 -11.5t-49 -29.5t-35 -62.5t-10.5 -101.5l6 -280q3 -144 -45.5 -232t-159.5 -127q111 -38 159.5 -125.5t45.5 -232.5 l-6 -279q-1 -61 10 -102t35 -62t49 -29t61 -11q28 -3 45 -19t17 -41t-16.5 -42t-45.5 -17q-157 0 -228 76.5t-71 222.5q0 28 4.5 136t4.5 153q0 303 -187 303h-8q-47 0 -47 69z" />
<glyph unicode="|" horiz-adv-x="458" d="M154 -393v1732q0 31 21.5 52.5t53.5 21.5t55 -21.5t23 -52.5v-1732q0 -31 -23 -52.5t-55 -21.5t-54 21.5t-21 52.5z" />
<glyph unicode="}" horiz-adv-x="681" d="M49 -373q0 25 16 41t44 19q36 3 61 11t48.5 29t35 62t10.5 102l-4 279q-2 146 45.5 233.5t157.5 124.5q-110 39 -157.5 126.5t-45.5 232.5l4 280q1 115 -39 157.5t-116 47.5q-28 3 -44 19t-16 41q0 24 16.5 41.5t43.5 17.5q157 0 228 -77t71 -224q0 -26 -3.5 -134 t-3.5 -153q0 -303 185 -303h10q45 0 45 -72q0 -69 -45 -69h-10q-185 0 -185 -303q0 -45 3.5 -153t3.5 -136q0 -146 -71 -222.5t-228 -76.5q-27 0 -43.5 17t-16.5 42z" />
<glyph unicode="~" horiz-adv-x="1189" d="M111 551q0 74 80.5 140.5t189.5 66.5q68 0 131 -26t103 -57t90 -57t94 -26q48 0 82.5 20.5t51 45t39 45t48.5 20.5q33 0 50 -20t17 -54q0 -73 -79 -139t-191 -66q-50 0 -97 17t-84 41t-72.5 48t-77.5 41t-85 17q-40 0 -70 -13.5t-48 -33t-32.5 -38.5t-32.5 -32.5 t-40 -13.5q-32 0 -49.5 20.5t-17.5 53.5z" />
<glyph unicode="&#xa0;" />
<glyph unicode="&#xa1;" horiz-adv-x="505" d="M150 -309q0 29 2.5 66t6.5 80t5 61l39 585q3 62 51 62t51 -62l41 -585q12 -177 12 -207q0 -180 -104 -180t-104 180zM162 848q0 40 26 67t66 27t67 -27t27 -67t-27 -66t-67 -26t-66 26t-26 66z" />
<glyph unicode="&#xa2;" d="M213 463q0 180 111 311q63 72 151 115.5t189 50.5v127q0 17 13 29t30 12q19 0 31 -12t12 -29v-127q101 -3 192 -49q38 -21 54 -37t16 -39q0 -25 -18.5 -43t-43.5 -18q-9 0 -17 2t-13.5 4.5t-17.5 8.5t-23 11q-80 37 -166 37q-80 0 -151 -32.5t-118 -90.5 q-77 -93 -77 -231q0 -161 94 -258q93 -101 254 -101q94 0 168 31q12 5 24.5 11.5t18 9t13 4.5t17.5 2q25 0 42.5 -18.5t17.5 -43.5q0 -26 -20 -44t-66 -36q-69 -31 -180 -38v-123q0 -17 -13 -29t-30 -12t-30 12t-13 29v123q-195 15 -310 127q-141 131 -141 354z" />
<glyph unicode="&#xa3;" d="M137 72q0 28 20 48.5t48 20.5h71q113 95 113 258q0 78 -35 181h-108q-26 0 -45 19t-19 46q0 26 19 46t45 20h61q-55 156 -55 272q0 82 27 157t80.5 137t142.5 99t203 37q127 0 239 -31q96 -28 96 -82q0 -28 -18.5 -48.5t-44.5 -20.5q-12 0 -27 3.5t-40.5 12t-41.5 13.5 q-70 18 -149 18q-81 0 -143 -26t-97.5 -70t-53 -95.5t-17.5 -107.5q0 -108 59 -268h387q26 0 45 -20t19 -46q0 -27 -19 -46t-45 -19h-340q31 -110 31 -181q0 -151 -107 -258h578q29 0 49 -20.5t20 -48.5q0 -31 -20 -51.5t-49 -20.5h-811q-28 0 -48 21t-20 51z" />
<glyph unicode="&#xa4;" horiz-adv-x="1415" d="M103 259.5q0 26.5 20 45.5l168 168q-113 142 -113 322q0 183 113 321l-168 170q-19 21 -19 47t21 47q20 20 46.5 20.5t45.5 -18.5l168 -172q141 115 324 115q180 0 319 -113l170 168q19 19 46 19t48 -21q20 -21 19.5 -47t-19.5 -45l-168 -168q115 -141 115 -323 q0 -183 -115 -324l168 -164q20 -21 19.5 -47t-19.5 -45q-21 -21 -47.5 -22t-46.5 18l-168 166q-138 -113 -321 -113t-324 115l-168 -168q-19 -20 -45 -19.5t-47 19.5q-22 22 -22 48.5zM283 795q0 -177 124.5 -301.5t301.5 -124.5q175 0 299.5 124.5t124.5 301.5 q0 175 -124.5 299.5t-299.5 124.5q-177 0 -301.5 -124.5t-124.5 -299.5z" />
<glyph unicode="&#xa5;" d="M37 1333q0 34 23 56t57 22q43 0 71 -41l424 -596l426 598q26 39 72 39q34 0 57 -23t23 -55q0 -29 -16 -55l-410 -563h285q23 0 39 -17t16 -41q0 -23 -16 -39t-39 -16h-355v-176h355q23 0 39 -17t16 -40t-16 -39.5t-39 -16.5h-355v-256q0 -32 -24 -56t-58 -24 q-35 0 -58.5 23.5t-23.5 56.5v256h-354q-23 0 -39 16.5t-16 39.5t16 40t39 17h354v176h-354q-23 0 -39 16t-16 39q0 24 16 41t39 17h287l-408 563q-18 29 -18 55z" />
<glyph unicode="&#xa6;" horiz-adv-x="458" d="M154 299q0 31 21.5 52.5t53.5 21.5t54 -21.5t22 -52.5v-692q0 -31 -22.5 -52.5t-53.5 -21.5q-32 0 -53.5 21.5t-21.5 52.5v692zM154 647v692q0 31 21.5 52.5t53.5 21.5t54 -21.5t22 -52.5v-692q0 -31 -22.5 -52.5t-53.5 -21.5q-32 0 -53.5 21.5t-21.5 52.5z" />
<glyph unicode="&#xa7;" horiz-adv-x="964" d="M100 549q0 178 154 301q-96 96 -96 227q0 161 101 249.5t253 88.5q155 0 262 -63q70 -42 70 -84q0 -27 -19.5 -46.5t-46.5 -19.5q-16 0 -29 6t-35.5 22.5t-31.5 22.5q-65 43 -166 43q-82 0 -141.5 -49t-59.5 -151q0 -61 30.5 -112.5t79 -89.5t107 -74.5t117.5 -77 t107.5 -86.5t79 -112.5t30.5 -146.5q0 -179 -155 -303q96 -96 96 -227q0 -159 -100 -247.5t-252 -88.5q-159 0 -262 61q-70 42 -70 84q0 28 18.5 47t46.5 19q16 0 29.5 -6t36 -22t33.5 -23q68 -41 162 -41q82 0 142 49t60 151q0 60 -30.5 111.5t-79 89.5t-107 74.5 t-117.5 77t-107.5 87t-79 113t-30.5 146.5zM256 567q0 -49 16.5 -91.5t41 -72t63 -60.5t72.5 -52t81.5 -51t77.5 -52q103 79 103 189q0 49 -16.5 91.5t-41 72.5t-63.5 61.5t-73.5 52.5t-82.5 51t-78 52q-100 -84 -100 -191z" />
<glyph unicode="&#xa8;" horiz-adv-x="854" d="M143 1368q0 37 26.5 62.5t63.5 25.5q38 0 64.5 -25.5t26.5 -62.5q0 -38 -26.5 -65t-64.5 -27q-37 0 -63.5 27t-26.5 65zM528 1368q0 37 26.5 62.5t63.5 25.5t64 -26t27 -62q0 -38 -27 -65t-64 -27t-63.5 27t-26.5 65z" />
<glyph unicode="&#xa9;" horiz-adv-x="1705" d="M96 733q0 154 59.5 294t160.5 241t241 161t295 60q154 0 293.5 -60t240.5 -161t160.5 -241t59.5 -294t-59.5 -293t-160.5 -239.5t-240.5 -159.5t-293.5 -59t-294 59t-241 159.5t-161 239.5t-60 293zM186 733q0 -136 52 -259t140.5 -212t212.5 -141.5t261 -52.5 t260.5 52.5t212 141.5t141 212t52.5 259q0 183 -88.5 337t-242 243.5t-335.5 89.5t-335.5 -89.5t-242 -243.5t-88.5 -337zM489 727q0 161 115 269t273 108q93 0 170 -31q57 -23 57 -57q0 -19 -12 -31t-31 -12q-10 0 -32 10t-34 14q-57 21 -121 21q-119 0 -203.5 -83 t-84.5 -208q0 -130 84 -210.5t207 -80.5q71 0 122 19q10 3 23.5 8.5t23.5 8.5t19 3q20 0 32.5 -12.5t12.5 -32.5q0 -32 -55 -51q-85 -29 -178 -29q-168 0 -278 103.5t-110 273.5z" />
<glyph unicode="&#xaa;" horiz-adv-x="579" d="M70 1004q0 95 98 143q69 32 248 43v12q0 81 -41 115q-28 22 -80 22q-44 0 -78.5 -11.5t-55 -22.5t-30.5 -11q-15 0 -25 10t-10 25q0 32 67 59t142 27q82 0 135 -39q68 -52 68 -184v-313q0 -21 -12 -33t-33 -12q-38 0 -41 49q-68 -45 -160 -45q-84 0 -135 43 q-57 44 -57 123zM141 571q0 14 10 25.5t23 11.5h229q13 0 24 -11.5t11 -25.5q0 -13 -10.5 -22.5t-24.5 -9.5h-229q-14 0 -23.5 9.5t-9.5 22.5zM160 1006q0 -46 35.5 -70.5t93.5 -24.5q68 0 127 33v180q-122 -10 -168 -24q-88 -24 -88 -94z" />
<glyph unicode="&#xab;" horiz-adv-x="1177" d="M80 461q0 25 20 49l398 410q17 20 49 20q29 0 49 -19t20 -47q0 -29 -20 -49l-352 -364l352 -365q20 -20 20 -49t-19.5 -47t-49.5 -18q-32 0 -49 20l-398 410q-20 24 -20 49zM563 461q0 28 21 49l395 410q20 20 51 20q29 0 49.5 -19t20.5 -47t-21 -49l-352 -364l352 -365 q21 -21 21 -49t-20.5 -46.5t-49.5 -18.5q-31 0 -51 20l-395 410q-21 21 -21 49z" />
<glyph unicode="&#xac;" horiz-adv-x="1142" d="M72 719q0 31 21 52.5t50 21.5h856q29 0 50.5 -21.5t21.5 -52.5v-279q0 -29 -21 -49t-51 -20q-29 0 -50 20t-21 49v205h-785q-29 0 -50 21.5t-21 52.5z" />
<glyph unicode="&#xad;" horiz-adv-x="1024" d="M174 594q0 28 20.5 49t49.5 21h536q29 0 49.5 -21t20.5 -49q0 -29 -20.5 -50.5t-49.5 -21.5h-536q-29 0 -49.5 21.5t-20.5 50.5z" />
<glyph unicode="&#xae;" horiz-adv-x="950" d="M96 1096q0 157 110 267t265 110q157 0 268 -110t111 -267q0 -155 -110 -265t-267 -110q-155 0 -266 110t-111 265zM147 1096q0 -134 95 -230t231 -96q135 0 230.5 96t95.5 230q0 137 -95 232t-231 95t-231 -95t-95 -232zM322 936v324q0 24 26 24h137q63 0 101.5 -27 t38.5 -86q0 -84 -90 -106l81 -104q15 -19 15 -27q0 -11 -8 -18t-19 -7q-14 0 -29 21l-98 131h-102v-125q0 -11 -7.5 -19t-19.5 -8t-19 8t-7 19zM375 1108h102q94 0 94 66q0 65 -90 65h-106v-131z" />
<glyph unicode="&#xaf;" horiz-adv-x="854" d="M154 1348q0 25 18 43t43 18h422q26 0 43.5 -18t17.5 -43q0 -26 -17.5 -44t-43.5 -18h-422q-25 0 -43 18t-18 44z" />
<glyph unicode="&#xb0;" horiz-adv-x="757" d="M102 1214q0 116 81 196.5t196 80.5t195.5 -80.5t80.5 -196.5t-80.5 -196t-195.5 -80q-116 0 -196.5 80.5t-80.5 195.5zM174 1214q0 -86 59 -145t146 -59t147 59t60 145q0 87 -60 147t-147 60q-88 0 -146.5 -59.5t-58.5 -147.5z" />
<glyph unicode="&#xb1;" horiz-adv-x="1146" d="M72 72q0 28 20 48.5t49 20.5h867q28 0 47.5 -20.5t19.5 -48.5q0 -31 -19.5 -51.5t-47.5 -20.5h-867q-29 0 -49 20.5t-20 51.5zM72 803q0 28 20 48.5t49 20.5h361v363q0 29 21 49.5t50 20.5t50.5 -20.5t21.5 -49.5v-363h363q28 0 47.5 -20.5t19.5 -48.5q0 -31 -19.5 -51.5 t-47.5 -20.5h-363v-362q0 -28 -21.5 -48t-50.5 -20t-50 20t-21 48v362h-361q-29 0 -49 20.5t-20 51.5z" />
<glyph unicode="&#xb2;" horiz-adv-x="854" d="M188 723q0 67 15 114t59 91q37 39 121 86.5t102 60.5q37 27 56.5 56t19.5 69q0 62 -42 98.5t-107 36.5q-45 0 -95 -24q-11 -5 -23.5 -12.5t-19.5 -11t-15.5 -6.5t-16.5 -3q-16 0 -27.5 11.5t-11.5 29.5q0 31 55 59q76 37 156 37q101 0 168 -59t67 -154q0 -96 -71 -160 q-38 -36 -120.5 -80.5t-115.5 -72.5q-55 -49 -55 -125h336q17 0 28 -12t11 -29t-11 -29t-28 -12h-392q-20 0 -31.5 11.5t-11.5 29.5z" />
<glyph unicode="&#xb3;" horiz-adv-x="854" d="M203 745q0 17 12 29t29 12q9 0 17.5 -3t23.5 -10.5t22 -10.5q46 -17 90 -17q76 0 120 39t44 101q0 90 -90 121q-19 7 -53.5 9t-48.5 5q-25 9 -25 35t25 35q5 1 43.5 4.5t58.5 11.5q66 28 66 106q0 52 -36 87.5t-98 35.5q-43 0 -88 -20q-48 -21 -55 -21q-18 0 -30.5 12 t-12.5 27q0 12 7.5 21.5t14 14t19.5 11.5q82 35 152 35q96 0 153.5 -55t57.5 -137q0 -117 -109 -162q135 -48 135 -182q0 -92 -66 -149.5t-180 -57.5q-73 0 -129 18q-69 19 -69 55z" />
<glyph unicode="&#xb4;" horiz-adv-x="854" d="M283 1212q0 18 12 39l156 283q21 43 57 43q26 0 43.5 -16.5t17.5 -40.5q0 -18 -16 -45l-166 -275q-23 -37 -53 -37q-21 0 -36 14t-15 35z" />
<glyph unicode="&#xb5;" horiz-adv-x="1118" d="M133 -285v1155q0 31 22 51.5t54 20.5q31 0 52.5 -20.5t21.5 -51.5v-467q0 -111 39 -180q62 -110 237 -110q88 0 149 30t89 80q37 65 37 180v467q0 30 22 51t53 21t53.5 -21t22.5 -51v-479q0 -158 -70 -262q-47 -72 -139 -110.5t-217 -38.5q-169 0 -276 69v-334 q0 -29 -22 -50t-52 -21q-32 0 -54 21t-22 50z" />
<glyph unicode="&#xb6;" horiz-adv-x="1269" d="M78 1055q0 198 122.5 305.5t348.5 107.5h627q25 0 43 -19t18 -44q0 -27 -18 -45.5t-43 -18.5h-183v-1683q0 -27 -20.5 -46.5t-48.5 -19.5q-29 0 -48.5 19t-19.5 47v1683h-240v-1683q0 -28 -19.5 -47t-47.5 -19q-29 0 -49.5 19t-20.5 47l2 981q-189 10 -296 121.5 t-107 294.5z" />
<glyph unicode="&#xb7;" horiz-adv-x="393" d="M100 707q0 41 29 69.5t70 28.5t69.5 -28.5t28.5 -69.5t-28.5 -70t-69.5 -29t-70 29t-29 70z" />
<glyph unicode="&#xb8;" horiz-adv-x="819" d="M244 -356q0 17 12.5 29t28.5 12q8 0 31 -3.5t44 -3.5q59 0 102.5 24t43.5 75q0 43 -36.5 64.5t-90.5 21.5q-21 0 -33.5 12.5t-9.5 36.5l10 108h78l2 -92q81 -6 131.5 -46.5t50.5 -106.5q0 -64 -40.5 -106.5t-95.5 -58.5t-120 -16q-43 0 -73 9q-35 11 -35 41z" />
<glyph unicode="&#xb9;" horiz-adv-x="854" d="M213 1300q0 30 35 43l168 66q24 6 28 6q45 0 45 -47v-604h123q18 0 28.5 -11.5t10.5 -29.5t-10.5 -29.5t-28.5 -11.5h-354q-17 0 -29 12t-12 29t12 29t29 12h137v549l-112 -43q-19 -8 -31 -8q-16 0 -27.5 10t-11.5 28z" />
<glyph unicode="&#xba;" horiz-adv-x="788" d="M100 1126q0 113 72 195q84 94 221 94q139 0 223 -94q72 -82 72 -195q0 -112 -72 -194q-87 -94 -223 -94q-134 0 -221 94q-72 82 -72 194zM195 1126q0 -82 49 -137q57 -67 149 -67t152 67q49 55 49 137q0 83 -49 138q-62 69 -152 69t-149 -69q-49 -55 -49 -138zM246 571 q0 14 10 25.5t23 11.5h229q13 0 24 -11.5t11 -25.5q0 -13 -10.5 -22.5t-24.5 -9.5h-229q-14 0 -23.5 9.5t-9.5 22.5z" />
<glyph unicode="&#xbb;" horiz-adv-x="1177" d="M80 47q0 26 20 49l351 365l-351 364q-20 23 -20 49q0 28 19.5 47t47.5 19q32 0 52 -20l395 -410q22 -22 22 -49t-22 -49l-395 -410q-20 -20 -49 -20q-30 0 -50 18t-20 47zM563 47q0 30 19 49l352 365l-352 364q-19 19 -19 49q0 28 19.5 47t48.5 19q31 0 51 -20l395 -410 q23 -23 23 -49t-23 -49l-395 -410q-20 -20 -51 -20q-28 0 -48 18t-20 47z" />
<glyph unicode="&#xbc;" horiz-adv-x="854" d="M80 485q0 17 12 29t29 12h610q15 0 27 -12t12 -29t-12 -29t-27 -12h-610q-17 0 -29 12t-12 29zM121 -225q0 15 10 28l334 473q18 27 43 27q21 0 34 -14t13 -33v-442h84q15 0 26 -12t11 -27q0 -17 -11 -28t-26 -11h-84v-131q0 -19 -13 -32t-32 -13q-20 0 -32.5 13 t-12.5 32v131h-305q-17 0 -28 11t-11 28zM205 1300q0 31 35 43l166 66q24 6 30 6q43 0 43 -47v-604h123q18 0 28.5 -11.5t10.5 -29.5t-10.5 -29.5t-28.5 -11.5h-354q-17 0 -28 12t-11 29t11 29t28 12h137v549l-111 -43q-21 -8 -32 -8q-16 0 -26.5 10t-10.5 28zM236 -186h229 v325z" />
<glyph unicode="&#xbd;" horiz-adv-x="854" d="M80 485q0 17 12 29t29 12h610q18 0 28.5 -11.5t10.5 -29.5t-10.5 -29.5t-28.5 -11.5h-610q-18 0 -29.5 11.5t-11.5 29.5zM186 -389q0 67 15 114t59 91q37 39 122.5 88.5t98.5 58.5q78 57 78 125q0 62 -42 98.5t-107 36.5q-51 0 -97 -24q-13 -6 -28 -15t-25 -13.5 t-20 -4.5q-18 0 -29.5 11.5t-11.5 29.5q0 30 57 59q76 37 156 37q101 0 168 -59t67 -154t-72 -160q-38 -36 -120 -80.5t-115 -72.5q-57 -51 -57 -125h338q15 0 26.5 -12t11.5 -29t-11.5 -29t-26.5 -12h-392q-20 0 -31.5 11.5t-11.5 29.5zM205 1300q0 31 35 43l166 66 q24 6 30 6q43 0 43 -47v-604h123q18 0 28.5 -11.5t10.5 -29.5t-10.5 -29.5t-28.5 -11.5h-354q-17 0 -28 12t-11 29t11 29t28 12h137v549l-111 -43q-28 -8 -32 -8q-16 0 -26.5 10t-10.5 28z" />
<glyph unicode="&#xbe;" horiz-adv-x="854" d="M80 485q0 17 12 29t29 12h610q15 0 27 -12t12 -29t-12 -29t-27 -12h-610q-17 0 -29 12t-12 29zM121 -225q0 15 10 28l334 473q18 27 43 27q21 0 34 -14t13 -33v-442h84q15 0 26 -12t11 -27q0 -17 -11 -28t-26 -11h-84v-131q0 -19 -13 -32t-32 -13q-20 0 -32.5 13 t-12.5 32v131h-305q-17 0 -28 11t-11 28zM184 745q0 17 12 29t29 12q9 0 17.5 -2.5t24.5 -10.5l22 -11q46 -17 90 -17q76 0 120 39t44 101q0 90 -90 121q-19 7 -54 9t-49 5q-24 9 -24 35t24 35q5 1 44 4.5t59 11.5q65 27 65 106q0 52 -35.5 87.5t-97.5 35.5q-43 0 -88 -20 q-48 -21 -55 -21q-18 0 -30.5 12t-12.5 27q0 12 7.5 21.5t14 14t19.5 11.5q82 35 151 35q96 0 153.5 -55t57.5 -137q0 -117 -108 -162q135 -48 135 -182q0 -92 -66 -149.5t-180 -57.5q-73 0 -129 18q-70 19 -70 55zM236 -186h229v325z" />
<glyph unicode="&#xbf;" horiz-adv-x="1021" d="M90 -92q0 112 52 185.5t159 148.5q39 28 62 47t52.5 48.5t46.5 63.5t23 74q9 53 25 74.5t51 21.5q31 0 51.5 -21.5t20.5 -55.5q0 -69 -49 -158q-19 -35 -49.5 -70t-49.5 -52t-72 -60t-67 -54q-102 -85 -102 -192q0 -118 80.5 -189t205.5 -71q79 0 136 20t120 62 q17 12 45 35t43 30.5t35 7.5q28 0 47 -19.5t19 -47.5q0 -32 -26 -59.5t-79 -61.5q-158 -104 -350 -104q-184 0 -307 110.5t-123 286.5zM467 850q0 40 27 67t67 27t67 -27t27 -67t-27 -67t-67 -27t-67 27t-27 67z" />
<glyph unicode="&#xc0;" horiz-adv-x="1415" d="M150 59v754q0 127 43 244t129 205q151 151 385 151q239 0 387 -151q85 -88 128.5 -205.5t43.5 -243.5v-754q0 -32 -24.5 -55.5t-57.5 -23.5q-35 0 -58.5 23t-23.5 56v426h-789v-426q0 -32 -24 -55.5t-58 -23.5t-57.5 23.5t-23.5 55.5zM313 631h789v178q0 207 -113 332 q-111 121 -282 121q-175 0 -283 -121q-111 -120 -111 -332v-178zM563 1933q0 23 18.5 40.5t43.5 17.5q35 0 57 -43l158 -283q12 -21 12 -39q0 -21 -15.5 -35t-37.5 -14q-33 0 -54 37l-165 274q-17 28 -17 45z" />
<glyph unicode="&#xc1;" horiz-adv-x="1415" d="M150 59v754q0 127 43 244t129 205q151 151 385 151q239 0 387 -151q85 -88 128.5 -205.5t43.5 -243.5v-754q0 -32 -24.5 -55.5t-57.5 -23.5q-35 0 -58.5 23t-23.5 56v426h-789v-426q0 -32 -24 -55.5t-58 -23.5t-57.5 23.5t-23.5 55.5zM313 631h789v178q0 207 -113 332 q-111 121 -282 121q-175 0 -283 -121q-111 -120 -111 -332v-178zM563 1626q0 18 12 39l156 283q21 43 57 43q26 0 44 -17t18 -41q0 -18 -16 -45l-166 -274q-23 -37 -54 -37q-21 0 -36 14t-15 35z" />
<glyph unicode="&#xc2;" horiz-adv-x="1415" d="M150 59v754q0 127 43 244t129 205q151 151 385 151q239 0 387 -151q85 -88 128.5 -205.5t43.5 -243.5v-754q0 -32 -24.5 -55.5t-57.5 -23.5q-35 0 -58.5 23t-23.5 56v426h-789v-426q0 -32 -24 -55.5t-58 -23.5t-57.5 23.5t-23.5 55.5zM313 631h789v178q0 207 -113 332 q-111 121 -282 121q-175 0 -283 -121q-111 -120 -111 -332v-178zM381 1659q0 20 25 45l253 260q25 25 48 25q24 0 49 -25l252 -260q26 -30 26 -45q0 -25 -16 -40t-39 -15t-39 16l-233 240l-232 -240q-16 -16 -39 -16q-24 0 -39.5 14.5t-15.5 40.5z" />
<glyph unicode="&#xc3;" horiz-adv-x="1415" d="M150 59v754q0 127 43 244t129 205q151 151 385 151q239 0 387 -151q85 -88 128.5 -205.5t43.5 -243.5v-754q0 -32 -24.5 -55.5t-57.5 -23.5q-35 0 -58.5 23t-23.5 56v426h-789v-426q0 -32 -24 -55.5t-58 -23.5t-57.5 23.5t-23.5 55.5zM313 631h789v178q0 207 -113 332 q-111 121 -282 121q-175 0 -283 -121q-111 -120 -111 -332v-178zM371 1794q0 41 45 86q56 59 143 59q82 0 162 -53q7 -4 25 -16.5t26.5 -17.5t22.5 -12t26.5 -10t26.5 -3q28 0 50.5 14.5t34 31.5t28 31.5t34.5 14.5q23 0 36 -15.5t13 -39.5q0 -43 -43 -86q-55 -58 -143 -58 q-75 0 -162 56q-6 4 -20.5 13.5t-21 13l-19.5 10.5t-21.5 10t-20.5 5.5t-24 2.5q-29 0 -51 -14t-33.5 -31t-27.5 -31t-35 -14q-23 0 -37 15t-14 38z" />
<glyph unicode="&#xc4;" horiz-adv-x="1415" d="M150 59v754q0 127 43 244t129 205q151 151 385 151q239 0 387 -151q85 -88 128.5 -205.5t43.5 -243.5v-754q0 -32 -24.5 -55.5t-57.5 -23.5q-35 0 -58.5 23t-23.5 56v426h-789v-426q0 -32 -24 -55.5t-58 -23.5t-57.5 23.5t-23.5 55.5zM313 631h789v178q0 207 -113 332 q-111 121 -282 121q-175 0 -283 -121q-111 -120 -111 -332v-178zM424 1782q0 37 26.5 62.5t63.5 25.5q38 0 64 -25.5t26 -62.5q0 -38 -26 -65t-64 -27q-37 0 -63.5 27t-26.5 65zM809 1782q0 37 26.5 62.5t63.5 25.5t63.5 -25.5t26.5 -62.5q0 -38 -26.5 -65t-63.5 -27 t-63.5 27t-26.5 65z" />
<glyph unicode="&#xc5;" horiz-adv-x="1415" d="M150 59v754q0 127 43 244t129 205q151 151 385 151q239 0 387 -151q85 -88 128.5 -205.5t43.5 -243.5v-754q0 -32 -24.5 -55.5t-57.5 -23.5q-35 0 -58.5 23t-23.5 56v426h-789v-426q0 -32 -24 -55.5t-58 -23.5t-57.5 23.5t-23.5 55.5zM313 631h789v178q0 207 -113 332 q-111 121 -282 121q-175 0 -283 -121q-111 -120 -111 -332v-178zM469 1765q0 98 70 168t168 70t166.5 -69.5t68.5 -168.5q0 -100 -68.5 -168.5t-166.5 -68.5q-99 0 -168.5 69t-69.5 168zM545 1765q0 -69 47 -116t115 -47t114.5 47t46.5 116q0 68 -47 116t-114 48t-114.5 -48 t-47.5 -116z" />
<glyph unicode="&#xc6;" horiz-adv-x="2060" d="M150 59v754q0 127 42 245t127 204q144 151 381 151q233 0 385 -158v60q0 33 23.5 56.5t58.5 23.5h758q29 0 49.5 -22t20.5 -50q0 -31 -20.5 -52.5t-49.5 -21.5h-676v-477h570q29 0 50 -22t21 -52q0 -29 -21 -50t-50 -21h-570v-482h676q29 0 49.5 -21.5t20.5 -51.5 q0 -29 -20.5 -50.5t-49.5 -21.5h-758q-35 0 -58.5 23.5t-23.5 56.5v405h-772v-426q0 -32 -24 -55.5t-58 -23.5t-57.5 23.5t-23.5 55.5zM313 631h772v178q0 209 -108 332q-108 121 -277 121q-170 0 -278 -121q-109 -124 -109 -332v-178z" />
<glyph unicode="&#xc7;" horiz-adv-x="1349" d="M96 698q0 144 59 277t157.5 228.5t233 152.5t279.5 57q194 0 342 -67q99 -42 99 -103q0 -33 -21.5 -54.5t-54.5 -21.5q-14 0 -33.5 10t-52 27t-66.5 29q-97 33 -215 33q-149 0 -277.5 -76.5t-204 -207.5t-75.5 -284q0 -166 76.5 -297.5t203.5 -202.5t277 -71 q114 0 217 35q37 13 71.5 30.5t54.5 27t34 9.5q31 0 53.5 -21.5t22.5 -53.5q0 -33 -25.5 -56.5t-74.5 -46.5q-138 -65 -320 -71l2 -52q81 -6 131.5 -46.5t50.5 -106.5q0 -64 -40.5 -106.5t-95.5 -58.5t-120 -16q-43 0 -73 9q-35 11 -35 41q0 17 12.5 29t28.5 12 q8 0 31.5 -3.5t44.5 -3.5q59 0 102 24t43 75q0 43 -36.5 64.5t-90.5 21.5q-21 0 -33.5 12.5t-9.5 36.5l6 70q-142 9 -266 63.5t-215.5 145.5t-144 222.5t-52.5 284.5z" />
<glyph unicode="&#xc8;" horiz-adv-x="1163" d="M131 590v215q0 255 111 403q141 187 465 187h323q29 0 49.5 -21.5t20.5 -50.5q0 -31 -20.5 -52.5t-49.5 -21.5h-319q-248 0 -346 -139q-70 -103 -70 -262v-74h629q30 0 50.5 -21t20.5 -51q0 -31 -20 -51t-51 -20h-629v-80q0 -197 94 -297q103 -109 320 -109h321 q29 0 49.5 -21t20.5 -52q0 -29 -20.5 -50.5t-49.5 -21.5h-323q-308 0 -451 168q-125 146 -125 422zM510 1933q0 23 18 40.5t43 17.5q36 0 58 -43l157 -283q13 -23 13 -39q0 -21 -16 -35t-38 -14q-32 0 -53 37l-166 274q-16 27 -16 45z" />
<glyph unicode="&#xc9;" horiz-adv-x="1163" d="M131 590v215q0 255 111 403q141 187 465 187h323q29 0 49.5 -21.5t20.5 -50.5q0 -31 -20.5 -52.5t-49.5 -21.5h-319q-248 0 -346 -139q-70 -103 -70 -262v-74h629q30 0 50.5 -21t20.5 -51q0 -31 -20 -51t-51 -20h-629v-80q0 -197 94 -297q103 -109 320 -109h321 q29 0 49.5 -21t20.5 -52q0 -29 -20.5 -50.5t-49.5 -21.5h-323q-308 0 -451 168q-125 146 -125 422zM518 1626q0 18 12 39l156 283q21 43 57 43q26 0 44 -17t18 -41q0 -17 -17 -45l-165 -274q-23 -37 -54 -37q-21 0 -36 14t-15 35z" />
<glyph unicode="&#xca;" horiz-adv-x="1163" d="M131 590v215q0 255 111 403q141 187 465 187h323q29 0 49.5 -21.5t20.5 -50.5q0 -31 -20.5 -52.5t-49.5 -21.5h-319q-248 0 -346 -139q-70 -103 -70 -262v-74h629q30 0 50.5 -21t20.5 -51q0 -31 -20 -51t-51 -20h-629v-80q0 -197 94 -297q103 -109 320 -109h321 q29 0 49.5 -21t20.5 -52q0 -29 -20.5 -50.5t-49.5 -21.5h-323q-308 0 -451 168q-125 146 -125 422zM334 1659q0 21 24 45l254 260q25 25 47 25q25 0 50 -25l252 -260q26 -30 26 -45q0 -25 -16 -40t-39 -15t-39 16l-234 240l-231 -240q-16 -16 -39 -16q-24 0 -39.5 14.5 t-15.5 40.5z" />
<glyph unicode="&#xcb;" horiz-adv-x="1163" d="M131 590v215q0 255 111 403q141 187 465 187h323q29 0 49.5 -21.5t20.5 -50.5q0 -31 -20.5 -52.5t-49.5 -21.5h-319q-248 0 -346 -139q-70 -103 -70 -262v-74h629q30 0 50.5 -21t20.5 -51q0 -31 -20 -51t-51 -20h-629v-80q0 -197 94 -297q103 -109 320 -109h321 q29 0 49.5 -21t20.5 -52q0 -29 -20.5 -50.5t-49.5 -21.5h-323q-308 0 -451 168q-125 146 -125 422zM371 1782q0 37 26.5 62.5t63.5 25.5q38 0 64 -25.5t26 -62.5q0 -38 -26 -65t-64 -27q-37 0 -63.5 27t-26.5 65zM756 1782q0 37 26.5 62.5t63.5 25.5t63.5 -25.5t26.5 -62.5 q0 -38 -26.5 -65t-63.5 -27t-63.5 27t-26.5 65z" />
<glyph unicode="&#xcc;" horiz-adv-x="471" d="M96 1933q0 23 18.5 40.5t43.5 17.5q35 0 57 -43l158 -283q12 -21 12 -39q0 -21 -15.5 -35t-37.5 -14q-32 0 -53 37l-166 274q-17 28 -17 45zM154 59v1274q0 32 24 56t58 24t57.5 -23.5t23.5 -56.5v-1274q0 -32 -23.5 -55.5t-57.5 -23.5t-58 23.5t-24 55.5z" />
<glyph unicode="&#xcd;" horiz-adv-x="471" d="M96 1626q0 16 13 39l155 283q21 43 58 43q26 0 43.5 -17t17.5 -41q0 -18 -16 -45l-166 -274q-23 -37 -54 -37q-21 0 -36 14t-15 35zM154 59v1274q0 32 24 56t58 24t57.5 -23.5t23.5 -56.5v-1274q0 -32 -23.5 -55.5t-57.5 -23.5t-58 23.5t-24 55.5z" />
<glyph unicode="&#xce;" horiz-adv-x="471" d="M-86 1659q0 20 25 45l254 260q25 25 47 25q24 0 49 -25l252 -260q26 -30 26 -45q0 -25 -16 -40t-39 -15t-39 16l-233 240l-232 -240q-16 -16 -39 -16q-24 0 -39.5 14.5t-15.5 40.5zM154 59v1274q0 32 24 56t58 24t57.5 -23.5t23.5 -56.5v-1274q0 -32 -23.5 -55.5 t-57.5 -23.5t-58 23.5t-24 55.5z" />
<glyph unicode="&#xcf;" horiz-adv-x="471" d="M-43 1782q0 37 26.5 62.5t63.5 25.5q38 0 64 -25.5t26 -62.5q0 -38 -26 -65t-64 -27q-37 0 -63.5 27t-26.5 65zM154 59v1274q0 32 24 56t58 24t57.5 -23.5t23.5 -56.5v-1274q0 -32 -23.5 -55.5t-57.5 -23.5t-58 23.5t-24 55.5zM342 1782q0 37 26.5 62.5t63.5 25.5 t63.5 -25.5t26.5 -62.5q0 -38 -26.5 -65t-63.5 -27t-63.5 27t-26.5 65z" />
<glyph unicode="&#xd0;" horiz-adv-x="1521" d="M-45 696q0 28 20 49t48 21h141v549q0 33 23.5 56.5t58.5 23.5h436q386 0 582 -219q161 -182 161 -480q0 -365 -260 -553q-197 -143 -514 -143h-405q-35 0 -58.5 23.5t-23.5 56.5v547h-141q-28 0 -48 20t-20 49zM328 139h307q232 0 381 86q115 65 178 184t63 287 q0 240 -129 385q-152 174 -473 174h-327v-489h293q27 0 47 -21t20 -49q0 -29 -19.5 -49t-47.5 -20h-293v-488z" />
<glyph unicode="&#xd1;" horiz-adv-x="1515" d="M154 53v1272q0 36 27 62t65 26q46 0 82 -45l876 -1102v1071q0 31 23.5 53.5t56.5 22.5q32 0 55 -22.5t23 -53.5v-1269q0 -37 -27 -62.5t-67 -25.5q-44 0 -82 45l-875 1101v-1073q0 -31 -23 -52t-57 -21q-33 0 -55 21t-22 52zM422 1794q0 41 45 86q56 59 143 59 q82 0 162 -53q7 -4 25 -16.5t26.5 -17.5t22.5 -12t26.5 -10t26.5 -3q28 0 50.5 14.5t34.5 31.5t28.5 31.5t34.5 14.5q23 0 36 -15.5t13 -39.5q0 -43 -43 -86q-55 -58 -144 -58q-74 0 -161 56q-6 4 -20.5 13.5t-21 13l-19.5 10.5t-21.5 10t-20.5 5.5t-24 2.5q-29 0 -51.5 -14 t-33.5 -31t-27.5 -31t-35.5 -14q-23 0 -37 15t-14 38z" />
<glyph unicode="&#xd2;" horiz-adv-x="1650" d="M96 694q0 149 58 283t156.5 229t233 151t281.5 56t281.5 -56t233 -151t156.5 -229t58 -283q0 -199 -98.5 -363.5t-266 -257.5t-364.5 -93q-147 0 -281.5 55.5t-233 150t-156.5 227.5t-58 281zM270 694q0 -154 73 -283t200.5 -204.5t281.5 -75.5t282 76t201.5 205 t73.5 282t-73.5 283t-202 206.5t-281.5 76.5t-281 -76.5t-201 -206.5t-73 -283zM680 1933q0 23 18 40.5t43 17.5q36 0 58 -43l157 -283q13 -23 13 -39q0 -21 -16 -35t-38 -14q-32 0 -53 37l-166 274q-16 27 -16 45z" />
<glyph unicode="&#xd3;" horiz-adv-x="1650" d="M96 694q0 149 58 283t156.5 229t233 151t281.5 56t281.5 -56t233 -151t156.5 -229t58 -283q0 -199 -98.5 -363.5t-266 -257.5t-364.5 -93q-147 0 -281.5 55.5t-233 150t-156.5 227.5t-58 281zM270 694q0 -154 73 -283t200.5 -204.5t281.5 -75.5t282 76t201.5 205 t73.5 282t-73.5 283t-202 206.5t-281.5 76.5t-281 -76.5t-201 -206.5t-73 -283zM682 1626q0 18 12 39l156 283q21 43 57 43q26 0 44 -17t18 -41q0 -17 -17 -45l-166 -274q-23 -37 -53 -37q-21 0 -36 14t-15 35z" />
<glyph unicode="&#xd4;" horiz-adv-x="1650" d="M96 694q0 149 58 283t156.5 229t233 151t281.5 56t281.5 -56t233 -151t156.5 -229t58 -283q0 -199 -98.5 -363.5t-266 -257.5t-364.5 -93q-147 0 -281.5 55.5t-233 150t-156.5 227.5t-58 281zM270 694q0 -154 73 -283t200.5 -204.5t281.5 -75.5t282 76t201.5 205 t73.5 282t-73.5 283t-202 206.5t-281.5 76.5t-281 -76.5t-201 -206.5t-73 -283zM498 1659q0 21 24 45l254 260q25 25 47 25q24 0 49 -25l252 -260q27 -31 27 -45q0 -25 -16 -40t-39 -15t-39 16l-234 240l-231 -240q-16 -16 -39 -16q-24 0 -39.5 14.5t-15.5 40.5z" />
<glyph unicode="&#xd5;" horiz-adv-x="1650" d="M96 694q0 149 58 283t156.5 229t233 151t281.5 56t281.5 -56t233 -151t156.5 -229t58 -283q0 -199 -98.5 -363.5t-266 -257.5t-364.5 -93q-147 0 -281.5 55.5t-233 150t-156.5 227.5t-58 281zM270 694q0 -154 73 -283t200.5 -204.5t281.5 -75.5t282 76t201.5 205 t73.5 282t-73.5 283t-202 206.5t-281.5 76.5t-281 -76.5t-201 -206.5t-73 -283zM485 1794q0 41 45 86q56 59 144 59q82 0 162 -53q7 -4 25 -16.5t26.5 -17.5t22.5 -12t26.5 -10t26.5 -3q28 0 50.5 14.5t34 31.5t28 31.5t34.5 14.5q23 0 36 -15.5t13 -39.5q0 -43 -43 -86 q-55 -58 -143 -58q-75 0 -162 56q-6 4 -20.5 13.5t-21 13l-19.5 10.5t-21.5 10t-20.5 5.5t-24 2.5q-29 0 -51 -14t-33.5 -31t-27.5 -31t-35 -14q-23 0 -37.5 15t-14.5 38z" />
<glyph unicode="&#xd6;" horiz-adv-x="1650" d="M96 694q0 149 58 283t156.5 229t233 151t281.5 56t281.5 -56t233 -151t156.5 -229t58 -283q0 -199 -98.5 -363.5t-266 -257.5t-364.5 -93q-147 0 -281.5 55.5t-233 150t-156.5 227.5t-58 281zM270 694q0 -154 73 -283t200.5 -204.5t281.5 -75.5t282 76t201.5 205 t73.5 282t-73.5 283t-202 206.5t-281.5 76.5t-281 -76.5t-201 -206.5t-73 -283zM541 1782q0 37 26.5 62.5t63.5 25.5q38 0 64 -25.5t26 -62.5q0 -38 -26 -65t-64 -27q-37 0 -63.5 27t-26.5 65zM926 1782q0 37 26.5 62.5t63.5 25.5t63.5 -25.5t26.5 -62.5q0 -38 -26.5 -65 t-63.5 -27t-63.5 27t-26.5 65z" />
<glyph unicode="&#xd7;" horiz-adv-x="987" d="M69 370q0 29 21 50l303 303l-303 303q-21 21 -21 49.5t21 50.5q22 21 50 21t50 -21l304 -303l303 303q21 21 49.5 21t50.5 -21q21 -23 20 -51t-20 -49l-303 -303l303 -303q19 -21 20 -49.5t-20 -51.5q-24 -21 -51.5 -21t-48.5 21l-303 304l-304 -304q-22 -21 -50 -21 t-50 21q-21 22 -21 51z" />
<glyph unicode="&#xd8;" horiz-adv-x="1650" d="M96 694q0 149 58.5 283t157 229t233.5 151t282 56q236 0 424 -139l95 108q18 21 43 21q22 0 37.5 -16.5t15.5 -40.5q0 -22 -15 -37l-90 -105q102 -97 159.5 -229.5t57.5 -280.5q0 -199 -98.5 -363.5t-265.5 -257.5t-363 -93q-242 0 -430 137l-94 -111q-17 -20 -43 -20 q-22 0 -37.5 16.5t-15.5 40.5q0 23 14 37l90 106q-102 97 -158.5 228.5t-56.5 279.5zM270 694q0 -108 40.5 -207.5t113.5 -173.5l719 836q-140 111 -318 111q-151 0 -279.5 -78t-202 -208t-73.5 -280zM506 240q137 -109 319 -109q113 0 217 45.5t178 122t118 180t44 215.5 q0 108 -41.5 207.5t-115.5 173.5z" />
<glyph unicode="&#xd9;" horiz-adv-x="1478" d="M150 551v782q0 33 24 56.5t57 23.5q35 0 58.5 -23.5t23.5 -56.5v-762q0 -202 105 -319q113 -125 319 -125q211 0 324 125q104 116 104 319v762q0 33 23.5 56.5t58.5 23.5q34 0 58 -24t24 -56v-782q0 -248 -135 -395q-156 -176 -455 -176q-298 0 -454 176 q-135 147 -135 395zM592 1933q0 23 18 40.5t43 17.5q36 0 58 -43l157 -283q13 -23 13 -39q0 -21 -16 -35t-38 -14q-32 0 -53 37l-166 274q-16 27 -16 45z" />
<glyph unicode="&#xda;" horiz-adv-x="1478" d="M150 551v782q0 33 24 56.5t57 23.5q35 0 58.5 -23.5t23.5 -56.5v-762q0 -202 105 -319q113 -125 319 -125q211 0 324 125q104 116 104 319v762q0 33 23.5 56.5t58.5 23.5q34 0 58 -24t24 -56v-782q0 -248 -135 -395q-156 -176 -455 -176q-298 0 -454 176 q-135 147 -135 395zM594 1626q0 18 12 39l156 283q21 43 57 43q26 0 44 -17t18 -41q0 -17 -17 -45l-166 -274q-23 -37 -53 -37q-21 0 -36 14t-15 35z" />
<glyph unicode="&#xdb;" horiz-adv-x="1478" d="M150 551v782q0 33 24 56.5t57 23.5q35 0 58.5 -23.5t23.5 -56.5v-762q0 -202 105 -319q113 -125 319 -125q211 0 324 125q104 116 104 319v762q0 33 23.5 56.5t58.5 23.5q34 0 58 -24t24 -56v-782q0 -248 -135 -395q-156 -176 -455 -176q-298 0 -454 176 q-135 147 -135 395zM412 1659q0 21 24 45l254 260q25 25 47 25q24 0 49 -25l252 -260q27 -31 27 -45q0 -25 -16 -40t-39 -15t-39 16l-234 240l-231 -240q-16 -16 -39 -16q-24 0 -39.5 14.5t-15.5 40.5z" />
<glyph unicode="&#xdc;" horiz-adv-x="1478" d="M150 551v782q0 33 24 56.5t57 23.5q35 0 58.5 -23.5t23.5 -56.5v-762q0 -202 105 -319q113 -125 319 -125q211 0 324 125q104 116 104 319v762q0 33 23.5 56.5t58.5 23.5q34 0 58 -24t24 -56v-782q0 -248 -135 -395q-156 -176 -455 -176q-298 0 -454 176 q-135 147 -135 395zM442 1782q0 37 26.5 62.5t63.5 25.5q38 0 64.5 -25.5t26.5 -62.5q0 -38 -26.5 -65t-64.5 -27q-37 0 -63.5 27t-26.5 65zM827 1782q0 36 27 62t64 26t63.5 -25.5t26.5 -62.5q0 -38 -26.5 -65t-63.5 -27t-64 27t-27 65z" />
<glyph unicode="&#xdd;" horiz-adv-x="1157" d="M2 1335q0 34 23 56t57 22q44 0 72 -41l424 -596l426 596q28 41 71 41q34 0 57 -23t23 -55q0 -28 -16 -57l-480 -666v-553q0 -32 -23.5 -55.5t-57.5 -23.5t-58 23.5t-24 55.5v553l-476 668q-18 29 -18 55zM442 1626q0 16 13 39l155 283q21 43 58 43q26 0 43.5 -17 t17.5 -41q0 -18 -16 -45l-166 -274q-23 -37 -53 -37q-21 0 -36.5 14t-15.5 35z" />
<glyph unicode="&#xde;" horiz-adv-x="1282" d="M154 57v1276q0 32 24 56t58 24t57.5 -23.5t23.5 -56.5v-227h404q199 0 321 -86q164 -116 164 -324q0 -103 -46.5 -189.5t-129.5 -141.5q-121 -78 -330 -78h-383v-230q0 -32 -23.5 -54.5t-57.5 -22.5t-58 22.5t-24 54.5zM317 422h357q167 0 248 51q118 75 118 223 q0 143 -106 213q-91 62 -238 62h-379v-549z" />
<glyph unicode="&#xdf;" horiz-adv-x="1140" d="M147 -61v1079q0 190 103 292.5t278 102.5q181 0 282 -76t101 -223q0 -66 -28.5 -116t-69 -77t-81 -46.5t-69 -37t-28.5 -36.5q0 -26 32 -47.5t96 -49t95 -45.5q191 -107 191 -309q0 -157 -108.5 -263.5t-278.5 -106.5q-150 0 -246 49q-84 43 -84 96q0 30 16 49t43 19 q9 0 18.5 -3.5t17 -8t21 -13.5t23.5 -14q68 -45 186 -45q108 0 178 66t70 165q0 80 -38.5 128t-106.5 83q-20 10 -59 28t-62.5 29.5t-54.5 31.5t-49 39t-30.5 47.5t-12.5 61.5q0 35 27 61t66 44.5t78 41t66 63.5t27 98q0 96 -60.5 145t-163.5 49q-106 0 -168.5 -66 t-62.5 -206v-1079q0 -31 -22.5 -52.5t-53.5 -21.5q-32 0 -55 21.5t-23 52.5z" />
<glyph unicode="&#xe0;" horiz-adv-x="1148" d="M92 463q0 197 111 330q130 149 360 149q227 0 344 -139q109 -128 109 -365v-387q0 -30 -22.5 -50.5t-53.5 -20.5t-52.5 19.5t-21.5 51.5v31q-129 -102 -319 -102q-213 0 -330 126q-125 134 -125 357zM242 459q0 -159 86 -258q86 -95 237 -95q91 0 162 29t139 86v213 q0 192 -80 285q-75 92 -223 92q-165 0 -252 -121q-69 -92 -69 -231zM416 1520q0 23 18 40t43 17q36 0 58 -43l157 -283q13 -23 13 -39q0 -21 -16 -35t-38 -14q-32 0 -53 37l-166 275q-16 27 -16 45z" />
<glyph unicode="&#xe1;" horiz-adv-x="1148" d="M92 463q0 197 111 330q130 149 360 149q227 0 344 -139q109 -128 109 -365v-387q0 -30 -22.5 -50.5t-53.5 -20.5t-52.5 19.5t-21.5 51.5v31q-129 -102 -319 -102q-213 0 -330 126q-125 134 -125 357zM242 459q0 -159 86 -258q86 -95 237 -95q91 0 162 29t139 86v213 q0 192 -80 285q-75 92 -223 92q-165 0 -252 -121q-69 -92 -69 -231zM420 1212q0 18 12 39l156 283q21 43 57 43q26 0 44 -17t18 -40q0 -17 -17 -45l-166 -275q-23 -37 -53 -37q-21 0 -36 14t-15 35z" />
<glyph unicode="&#xe2;" horiz-adv-x="1148" d="M92 463q0 197 111 330q130 149 360 149q227 0 344 -139q109 -128 109 -365v-387q0 -30 -22.5 -50.5t-53.5 -20.5t-52.5 19.5t-21.5 51.5v31q-129 -102 -319 -102q-213 0 -330 126q-125 134 -125 357zM238 1245q0 21 24 45l254 260q25 25 47 25q24 0 49 -25l252 -260 q27 -31 27 -45q0 -25 -16 -40t-39 -15t-39 16l-234 240l-231 -240q-16 -16 -39 -16q-24 0 -39.5 14.5t-15.5 40.5zM242 459q0 -159 86 -258q86 -95 237 -95q91 0 162 29t139 86v213q0 192 -80 285q-75 92 -223 92q-165 0 -252 -121q-69 -92 -69 -231z" />
<glyph unicode="&#xe3;" horiz-adv-x="1148" d="M92 463q0 197 111 330q130 149 360 149q227 0 344 -139q109 -128 109 -365v-387q0 -30 -22.5 -50.5t-53.5 -20.5t-52.5 19.5t-21.5 51.5v31q-129 -102 -319 -102q-213 0 -330 126q-125 134 -125 357zM221 1331q0 41 45 86q57 60 144 60q79 0 161 -54q7 -4 25 -16.5 t26.5 -17.5t22.5 -12t26.5 -10t26.5 -3q28 0 50.5 14.5t34.5 31.5t28.5 31.5t34.5 14.5q23 0 36 -15.5t13 -39.5q0 -43 -43 -86q-55 -58 -143 -58q-75 0 -162 56q-6 4 -20.5 13.5t-21 13l-19.5 10.5t-21.5 10t-20.5 5.5t-24 2.5q-29 0 -51.5 -14t-33.5 -31t-27.5 -31 t-35.5 -14q-23 0 -37 15t-14 38zM242 459q0 -159 86 -258q86 -95 237 -95q91 0 162 29t139 86v213q0 192 -80 285q-75 92 -223 92q-165 0 -252 -121q-69 -92 -69 -231z" />
<glyph unicode="&#xe4;" horiz-adv-x="1148" d="M92 463q0 197 111 330q130 149 360 149q227 0 344 -139q109 -128 109 -365v-387q0 -30 -22.5 -50.5t-53.5 -20.5t-52.5 19.5t-21.5 51.5v31q-129 -102 -319 -102q-213 0 -330 126q-125 134 -125 357zM242 459q0 -159 86 -258q86 -95 237 -95q91 0 162 29t139 86v213 q0 192 -80 285q-75 92 -223 92q-165 0 -252 -121q-69 -92 -69 -231zM283 1368q0 37 26.5 62.5t63.5 25.5q38 0 64 -25.5t26 -62.5q0 -38 -26 -65t-64 -27q-37 0 -63.5 27t-26.5 65zM668 1368q0 37 26.5 62.5t63.5 25.5t63.5 -25.5t26.5 -62.5q0 -38 -26.5 -65t-63.5 -27 t-63.5 27t-26.5 65z" />
<glyph unicode="&#xe5;" horiz-adv-x="1148" d="M92 463q0 197 111 330q130 149 360 149q227 0 344 -139q109 -128 109 -365v-387q0 -30 -22.5 -50.5t-53.5 -20.5t-52.5 19.5t-21.5 51.5v31q-129 -102 -319 -102q-213 0 -330 126q-125 134 -125 357zM242 459q0 -159 86 -258q86 -95 237 -95q91 0 162 29t139 86v213 q0 192 -80 285q-75 92 -223 92q-165 0 -252 -121q-69 -92 -69 -231zM324 1356q0 98 69.5 167.5t167.5 69.5t167 -69.5t69 -167.5q0 -100 -69 -169t-167 -69q-99 0 -168 69t-69 169zM399 1356q0 -69 47 -116.5t115 -47.5t115 47.5t47 116.5q0 68 -47.5 116t-114.5 48 t-114.5 -48t-47.5 -116z" />
<glyph unicode="&#xe6;" horiz-adv-x="1847" d="M92 463q0 197 111 330q130 149 360 149q227 0 344 -139q29 -39 37 -53q21 30 45 57q125 135 338 135q203 0 322 -129q112 -118 112 -301q0 -38 -21 -65t-59 -27h-659q12 -126 80 -205q95 -113 258 -113q126 0 221 50q10 5 25.5 13.5t22.5 12.5t17 7t19 3q24 0 40.5 -18 t16.5 -43q0 -23 -17 -40t-58 -40q-127 -67 -293 -67q-209 0 -338 120v-49q0 -30 -22.5 -50.5t-53.5 -20.5t-52.5 19.5t-21.5 51.5v31q-129 -102 -319 -102q-213 0 -330 126q-125 134 -125 357zM242 459q0 -159 86 -258q86 -95 237 -95q91 0 162 29t139 86v232 q-6 179 -80 266q-75 92 -223 92q-165 0 -252 -121q-69 -92 -69 -231zM1022 528h594q-6 127 -76 203q-83 90 -213 90q-146 0 -231 -98q-64 -73 -74 -195z" />
<glyph unicode="&#xe7;" horiz-adv-x="964" d="M92 463q0 181 105 305q70 84 173 129t222 45q129 0 227 -49q70 -34 70 -80q0 -25 -18 -42t-44 -17q-8 0 -16 2t-14 4.5t-18.5 8.5t-22.5 11q-79 35 -164 35q-163 0 -266 -119q-82 -95 -82 -233q0 -160 94 -260q96 -99 256 -99q99 0 168 29q15 6 29.5 14t23 11.5t19.5 3.5 q24 0 41.5 -18.5t17.5 -43.5q0 -27 -20.5 -45.5t-65.5 -36.5q-89 -32 -186 -38l2 -52q81 -6 131.5 -46.5t50.5 -106.5q0 -64 -40.5 -106.5t-95.5 -58.5t-120 -16q-44 0 -74 9q-35 11 -35 41q0 17 12.5 29t28.5 12q8 0 31.5 -3.5t44.5 -3.5q59 0 102 24t43 75 q0 43 -36.5 64.5t-90.5 21.5q-21 0 -33.5 12.5t-9.5 36.5l7 70q-201 12 -320 137q-127 133 -127 344z" />
<glyph unicode="&#xe8;" horiz-adv-x="1073" d="M92 473q0 202 123 334q125 135 338 135q202 0 321 -129q113 -119 113 -301q0 -38 -21 -65t-59 -27h-659q12 -126 80 -205q95 -113 258 -113q126 0 221 50q10 5 25.5 13.5t22.5 12.5t17 7t19 3q24 0 40.5 -18t16.5 -43q0 -22 -17.5 -39.5t-58.5 -40.5q-127 -67 -292 -67 q-232 0 -367 151q-121 130 -121 342zM248 528h594q-6 127 -76 203q-83 90 -213 90q-146 0 -231 -98q-64 -73 -74 -195zM397 1520q0 23 18.5 40t43.5 17q35 0 57 -43l158 -283q12 -21 12 -39q0 -21 -15.5 -35t-37.5 -14q-32 0 -53 37l-166 275q-17 28 -17 45z" />
<glyph unicode="&#xe9;" horiz-adv-x="1073" d="M92 473q0 202 123 334q125 135 338 135q202 0 321 -129q113 -119 113 -301q0 -38 -21 -65t-59 -27h-659q12 -126 80 -205q95 -113 258 -113q126 0 221 50q10 5 25.5 13.5t22.5 12.5t17 7t19 3q24 0 40.5 -18t16.5 -43q0 -22 -17.5 -39.5t-58.5 -40.5q-127 -67 -292 -67 q-232 0 -367 151q-121 130 -121 342zM248 528h594q-6 127 -76 203q-83 90 -213 90q-146 0 -231 -98q-64 -73 -74 -195zM387 1212q0 18 12 39l156 283q21 43 57 43q26 0 44 -17t18 -40q0 -17 -17 -45l-165 -275q-23 -37 -54 -37q-21 0 -36 14t-15 35z" />
<glyph unicode="&#xea;" horiz-adv-x="1073" d="M92 473q0 202 123 334q125 135 338 135q202 0 321 -129q113 -119 113 -301q0 -38 -21 -65t-59 -27h-659q12 -126 80 -205q95 -113 258 -113q126 0 221 50q10 5 25.5 13.5t22.5 12.5t17 7t19 3q24 0 40.5 -18t16.5 -43q0 -22 -17.5 -39.5t-58.5 -40.5q-127 -67 -292 -67 q-232 0 -367 151q-121 130 -121 342zM205 1245q0 21 24 45l254 260q25 25 47 25q25 0 50 -25l251 -260q27 -31 27 -45q0 -25 -16 -40t-39 -15t-39 16l-234 240l-231 -240q-16 -16 -39 -16q-24 0 -39.5 14.5t-15.5 40.5zM248 528h594q-6 127 -76 203q-83 90 -213 90 q-146 0 -231 -98q-64 -73 -74 -195z" />
<glyph unicode="&#xeb;" horiz-adv-x="1073" d="M92 473q0 202 123 334q125 135 338 135q202 0 321 -129q113 -119 113 -301q0 -38 -21 -65t-59 -27h-659q12 -126 80 -205q95 -113 258 -113q126 0 221 50q10 5 25.5 13.5t22.5 12.5t17 7t19 3q24 0 40.5 -18t16.5 -43q0 -22 -17.5 -39.5t-58.5 -40.5q-127 -67 -292 -67 q-232 0 -367 151q-121 130 -121 342zM248 528h594q-6 127 -76 203q-83 90 -213 90q-146 0 -231 -98q-64 -73 -74 -195zM248 1368q0 37 26.5 62.5t63.5 25.5q38 0 64 -25.5t26 -62.5q0 -38 -26 -65t-64 -27q-37 0 -63.5 27t-26.5 65zM633 1368q0 37 26.5 62.5t63.5 25.5 t63.5 -25.5t26.5 -62.5q0 -38 -26.5 -65t-63.5 -27t-63.5 27t-26.5 65z" />
<glyph unicode="&#xec;" horiz-adv-x="446" d="M82 1520q0 23 18 40t43 17q36 0 58 -43l157 -283q13 -23 13 -39q0 -21 -16 -35t-38 -14q-32 0 -53 37l-166 275q-16 27 -16 45zM147 51v819q0 30 22.5 51t53.5 21t53.5 -21t22.5 -51v-819q0 -29 -22.5 -50t-53.5 -21t-53.5 21t-22.5 50z" />
<glyph unicode="&#xed;" horiz-adv-x="446" d="M82 1212q0 18 12 39l156 283q21 43 57 43q26 0 44 -17t18 -40q0 -17 -17 -45l-166 -275q-23 -37 -53 -37q-21 0 -36 14t-15 35zM147 51v819q0 30 22.5 51t53.5 21t53.5 -21t22.5 -51v-819q0 -29 -22.5 -50t-53.5 -21t-53.5 21t-22.5 50z" />
<glyph unicode="&#xee;" horiz-adv-x="446" d="M-100 1245q0 21 24 45l254 260q25 25 47 25q24 0 49 -25l252 -260q27 -31 27 -45q0 -25 -16 -40t-39 -15t-39 16l-234 240l-231 -240q-16 -16 -39 -16q-24 0 -39.5 14.5t-15.5 40.5zM147 51v819q0 30 22.5 51t53.5 21t53.5 -21t22.5 -51v-819q0 -29 -22.5 -50t-53.5 -21 t-53.5 21t-22.5 50z" />
<glyph unicode="&#xef;" horiz-adv-x="446" d="M-57 1368q0 37 26.5 62.5t63.5 25.5q38 0 64 -25.5t26 -62.5q0 -38 -26 -65t-64 -27q-37 0 -63.5 27t-26.5 65zM147 51v819q0 30 22.5 51t53.5 21t53.5 -21t22.5 -51v-819q0 -29 -22.5 -50t-53.5 -21t-53.5 21t-22.5 50zM328 1368q0 37 26.5 62.5t63.5 25.5t63.5 -25.5 t26.5 -62.5q0 -38 -26.5 -65t-63.5 -27t-63.5 27t-26.5 65z" />
<glyph unicode="&#xf0;" horiz-adv-x="1046" d="M92 424q0 174 113 287q60 60 139.5 91.5t161.5 31.5q126 0 239 -72q-66 197 -231 368l-168 -129q-24 -16 -41 -16q-20 0 -34.5 15.5t-14.5 37.5q0 27 25 43l151 119q-80 76 -108 98q-25 21 -25 45q0 31 20.5 51.5t49.5 20.5q30 0 92 -55q53 -43 84 -76l149 115 q19 16 37 16q23 0 37 -15t14 -38q0 -27 -26 -43l-133 -102q154 -163 242.5 -359t88.5 -401q0 -116 -35 -208.5t-95.5 -150t-138.5 -88t-167 -30.5q-173 0 -285 100q-141 122 -141 344zM231 424q0 -159 93 -246q78 -72 194 -72q128 0 211.5 89t83.5 262q0 90 -18 176 q-129 84 -269 84q-59 0 -117 -24t-100 -68q-78 -78 -78 -201z" />
<glyph unicode="&#xf1;" horiz-adv-x="1118" d="M133 51v481q0 157 68 263q50 72 142 110.5t216 38.5q126 0 217.5 -38.5t141.5 -110.5q36 -53 51.5 -114t15.5 -149v-481q0 -29 -21.5 -50t-52.5 -21q-32 0 -53.5 20.5t-21.5 50.5v471q0 113 -37 180q-29 52 -90 82.5t-150 30.5q-174 0 -237 -113q-39 -71 -39 -180v-471 q0 -29 -21.5 -50t-52.5 -21q-32 0 -54 21t-22 50zM221 1331q0 41 45 86q57 60 144 60q79 0 161 -54q7 -4 25 -16.5t26.5 -17.5t22.5 -12t26.5 -10t26.5 -3q28 0 50.5 14.5t34.5 31.5t28.5 31.5t34.5 14.5q23 0 36 -15.5t13 -39.5q0 -43 -43 -86q-55 -58 -143 -58 q-75 0 -162 56q-6 4 -20.5 13.5t-21 13l-19.5 10.5t-21.5 10t-20.5 5.5t-24 2.5q-29 0 -51.5 -14t-33.5 -31t-27.5 -31t-35.5 -14q-23 0 -37 15t-14 38z" />
<glyph unicode="&#xf2;" horiz-adv-x="1163" d="M92 461q0 210 137 344q67 65 158.5 101t194.5 36q212 0 352 -137q139 -136 139 -344q0 -101 -36.5 -189.5t-102.5 -152.5q-139 -139 -352 -139q-104 0 -195.5 36.5t-157.5 102.5q-137 134 -137 342zM240 461q0 -148 92 -250q98 -109 250 -109q154 0 252 109q90 99 90 250 t-90 250q-97 108 -252 108q-153 0 -250 -108q-92 -102 -92 -250zM436 1520q0 23 18.5 40t43.5 17q35 0 57 -43l158 -283q12 -21 12 -39q0 -21 -15.5 -35t-37.5 -14q-33 0 -54 37l-165 275q-17 28 -17 45z" />
<glyph unicode="&#xf3;" horiz-adv-x="1163" d="M92 461q0 210 137 344q67 65 158.5 101t194.5 36q212 0 352 -137q139 -136 139 -344q0 -101 -36.5 -189.5t-102.5 -152.5q-139 -139 -352 -139q-104 0 -195.5 36.5t-157.5 102.5q-137 134 -137 342zM240 461q0 -148 92 -250q98 -109 250 -109q154 0 252 109q90 99 90 250 t-90 250q-97 108 -252 108q-153 0 -250 -108q-92 -102 -92 -250zM436 1212q0 16 13 39l155 283q21 43 58 43q26 0 43.5 -16.5t17.5 -40.5q0 -18 -16 -45l-166 -275q-23 -37 -54 -37q-21 0 -36 14t-15 35z" />
<glyph unicode="&#xf4;" horiz-adv-x="1163" d="M92 461q0 210 137 344q67 65 158.5 101t194.5 36q212 0 352 -137q139 -136 139 -344q0 -101 -36.5 -189.5t-102.5 -152.5q-139 -139 -352 -139q-104 0 -195.5 36.5t-157.5 102.5q-137 134 -137 342zM240 461q0 -148 92 -250q98 -109 250 -109q154 0 252 109q90 99 90 250 t-90 250q-97 108 -252 108q-153 0 -250 -108q-92 -102 -92 -250zM254 1245q0 20 25 45l253 260q25 25 48 25q24 0 49 -25l252 -260q26 -30 26 -45q0 -25 -16 -40t-39 -15t-39 16l-233 240l-232 -240q-16 -16 -39 -16q-24 0 -39.5 14.5t-15.5 40.5z" />
<glyph unicode="&#xf5;" horiz-adv-x="1163" d="M92 461q0 210 137 344q67 65 158.5 101t194.5 36q212 0 352 -137q139 -136 139 -344q0 -101 -36.5 -189.5t-102.5 -152.5q-139 -139 -352 -139q-104 0 -195.5 36.5t-157.5 102.5q-137 134 -137 342zM240 461q0 -148 92 -250q98 -109 250 -109q154 0 252 109q90 99 90 250 t-90 250q-97 108 -252 108q-153 0 -250 -108q-92 -102 -92 -250zM242 1331q0 41 45 86q57 60 143 60q80 0 162 -54q7 -4 25 -16.5t26.5 -17.5t22.5 -12t26.5 -10t26.5 -3q28 0 50.5 14.5t34 31.5t28 31.5t34.5 14.5q23 0 36 -15.5t13 -39.5q0 -43 -43 -86q-55 -58 -143 -58 q-75 0 -162 56q-6 4 -20.5 13.5t-21 13l-19.5 10.5t-21.5 10t-20.5 5.5t-24 2.5q-29 0 -51 -14t-33.5 -31t-27.5 -31t-35 -14q-23 0 -37 15t-14 38z" />
<glyph unicode="&#xf6;" horiz-adv-x="1163" d="M92 461q0 210 137 344q67 65 158.5 101t194.5 36q212 0 352 -137q139 -136 139 -344q0 -101 -36.5 -189.5t-102.5 -152.5q-139 -139 -352 -139q-104 0 -195.5 36.5t-157.5 102.5q-137 134 -137 342zM240 461q0 -148 92 -250q98 -109 250 -109q154 0 252 109q90 99 90 250 t-90 250q-97 108 -252 108q-153 0 -250 -108q-92 -102 -92 -250zM297 1368q0 37 26.5 62.5t63.5 25.5q38 0 64 -25.5t26 -62.5q0 -38 -26 -65t-64 -27q-37 0 -63.5 27t-26.5 65zM682 1368q0 37 26.5 62.5t63.5 25.5t63.5 -25.5t26.5 -62.5q0 -38 -26.5 -65t-63.5 -27 t-63.5 27t-26.5 65z" />
<glyph unicode="&#xf7;" horiz-adv-x="1191" d="M72 723q0 28 20 49t47 21h912q29 0 49 -21t20 -49q0 -31 -20 -51.5t-49 -20.5h-912q-28 0 -47.5 20.5t-19.5 51.5zM500 1163q0 38 28 65t68 27q38 0 65 -27t27 -65q0 -40 -27 -67t-65 -27q-40 0 -68 27t-28 67zM502 281q0 41 27 68.5t67 27.5t67 -27.5t27 -68.5 q0 -39 -27 -66t-67 -27t-67 27t-27 66z" />
<glyph unicode="&#xf8;" horiz-adv-x="1179" d="M92 461q0 210 137 344q67 65 158.5 101t194.5 36q161 0 292 -88l64 74q11 14 31 14q17 0 28 -11t11 -28q0 -15 -11 -26l-63 -74q66 -64 102.5 -152.5t36.5 -189.5t-36.5 -189.5t-102.5 -152.5q-139 -139 -352 -139q-163 0 -285 81l-57 -67q-14 -14 -33 -14 q-16 0 -27.5 10.5t-11.5 27.5q0 15 12 27l56 66q-144 144 -144 350zM240 461q0 -145 86 -244l460 535q-86 67 -204 67q-153 0 -250 -108q-92 -102 -92 -250zM385 164q87 -62 197 -62q154 0 252 109q90 99 90 250q0 138 -80 237z" />
<glyph unicode="&#xf9;" horiz-adv-x="1118" d="M133 391v479q0 31 22 51.5t54 20.5q31 0 52.5 -20.5t21.5 -51.5v-467q0 -111 39 -180q28 -50 88.5 -80t148.5 -30t149 30t89 80q37 65 37 180v467q0 30 22 51t53 21t53.5 -21t22.5 -51v-479q0 -158 -70 -262q-47 -72 -139 -110.5t-217 -38.5q-256 0 -358 149 q-68 106 -68 262zM414 1520q0 23 18 40t43 17q35 0 57 -43l158 -283q12 -21 12 -39q0 -21 -15.5 -35t-37.5 -14q-32 0 -53 37l-166 275q-16 27 -16 45z" />
<glyph unicode="&#xfa;" horiz-adv-x="1118" d="M133 391v479q0 31 22 51.5t54 20.5q31 0 52.5 -20.5t21.5 -51.5v-467q0 -111 39 -180q28 -50 88.5 -80t148.5 -30t149 30t89 80q37 65 37 180v467q0 30 22 51t53 21t53.5 -21t22.5 -51v-479q0 -158 -70 -262q-47 -72 -139 -110.5t-217 -38.5q-256 0 -358 149 q-68 106 -68 262zM414 1212q0 18 12 39l156 283q21 43 57 43q26 0 43.5 -16.5t17.5 -40.5q0 -18 -16 -45l-166 -275q-23 -37 -53 -37q-21 0 -36 14t-15 35z" />
<glyph unicode="&#xfb;" horiz-adv-x="1118" d="M133 391v479q0 31 22 51.5t54 20.5q31 0 52.5 -20.5t21.5 -51.5v-467q0 -111 39 -180q28 -50 88.5 -80t148.5 -30t149 30t89 80q37 65 37 180v467q0 30 22 51t53 21t53.5 -21t22.5 -51v-479q0 -158 -70 -262q-47 -72 -139 -110.5t-217 -38.5q-256 0 -358 149 q-68 106 -68 262zM231 1245q0 20 25 45l254 260q25 25 47 25q24 0 49 -25l252 -260q27 -31 27 -45q0 -25 -16.5 -40t-39.5 -15q-22 0 -38 16l-234 240l-231 -240q-16 -16 -39 -16q-24 0 -40 15t-16 40z" />
<glyph unicode="&#xfc;" horiz-adv-x="1118" d="M133 391v479q0 31 22 51.5t54 20.5q31 0 52.5 -20.5t21.5 -51.5v-467q0 -111 39 -180q28 -50 88.5 -80t148.5 -30t149 30t89 80q37 65 37 180v467q0 30 22 51t53 21t53.5 -21t22.5 -51v-479q0 -158 -70 -262q-47 -72 -139 -110.5t-217 -38.5q-256 0 -358 149 q-68 106 -68 262zM276 1368q0 36 27 62t64 26q38 0 64 -25.5t26 -62.5q0 -38 -26 -65t-64 -27q-37 0 -64 27t-27 65zM662 1368q0 37 26.5 62.5t63.5 25.5t63.5 -25.5t26.5 -62.5q0 -38 -26.5 -65t-63.5 -27t-63.5 27t-26.5 65z" />
<glyph unicode="&#xfd;" horiz-adv-x="1138" d="M133 373v497q0 30 22.5 51t53.5 21t52.5 -20.5t21.5 -51.5v-458q0 -172 75 -242q60 -57 183 -57q159 0 239 123q56 89 56 231v403q0 30 22 51t53 21t52.5 -20.5t21.5 -51.5v-888q0 -202 -96 -318q-58 -68 -148 -102.5t-194 -34.5q-145 0 -264 45q-64 24 -88.5 44 t-24.5 52q0 27 18.5 46.5t47.5 19.5q16 0 33.5 -6t49 -20t54.5 -23q83 -31 172 -31q67 0 126.5 22.5t96.5 65.5t52.5 98t15.5 135v166q-53 -85 -132 -123t-194 -38q-175 0 -270 88q-107 96 -107 305zM424 1212q0 18 12 39l156 283q21 43 57 43q26 0 44 -17t18 -40 q0 -17 -17 -45l-166 -275q-23 -37 -53 -37q-21 0 -36 14t-15 35z" />
<glyph unicode="&#xfe;" horiz-adv-x="1075" d="M147 -408v1747q0 31 22.5 52.5t53.5 21.5t53.5 -21.5t22.5 -52.5v-407q72 10 145 10q256 0 398 -133q141 -128 141 -346q0 -213 -115 -338q-69 -73 -163 -109t-191 -36q-130 0 -215 40v-428q0 -30 -22.5 -50.5t-53.5 -20.5t-53.5 20.5t-22.5 50.5zM299 145 q85 -43 201 -43q146 0 241 95q93 93 93 266q0 162 -99 258q-100 100 -276 100q-89 0 -160 -12v-664z" />
<glyph unicode="&#xff;" horiz-adv-x="1138" d="M133 373v497q0 30 22.5 51t53.5 21t52.5 -20.5t21.5 -51.5v-458q0 -172 75 -242q60 -57 183 -57q159 0 239 123q56 89 56 231v403q0 30 22 51t53 21t52.5 -20.5t21.5 -51.5v-888q0 -202 -96 -318q-58 -68 -148 -102.5t-194 -34.5q-145 0 -264 45q-64 24 -88.5 44 t-24.5 52q0 27 18.5 46.5t47.5 19.5q16 0 33.5 -6t49 -20t54.5 -23q83 -31 172 -31q67 0 126.5 22.5t96.5 65.5t52.5 98t15.5 135v166q-53 -85 -132 -123t-194 -38q-175 0 -270 88q-107 96 -107 305zM276 1368q0 36 27 62t64 26q38 0 64 -25.5t26 -62.5q0 -38 -26 -65 t-64 -27q-37 0 -64 27t-27 65zM662 1368q0 37 26.5 62.5t63.5 25.5t63.5 -25.5t26.5 -62.5q0 -38 -26.5 -65t-63.5 -27t-63.5 27t-26.5 65z" />
<glyph unicode="&#x100;" horiz-adv-x="1415" d="M150 59v754q0 127 43 244t129 205q151 151 385 151q239 0 387 -151q85 -88 128.5 -205.5t43.5 -243.5v-754q0 -32 -24.5 -55.5t-57.5 -23.5q-35 0 -58.5 23t-23.5 56v426h-789v-426q0 -32 -24 -55.5t-58 -23.5t-57.5 23.5t-23.5 55.5zM313 631h789v178q0 207 -113 332 q-111 121 -282 121q-175 0 -283 -121q-111 -120 -111 -332v-178zM434 1804q0 25 18.5 43.5t43.5 18.5h422q26 0 43.5 -18.5t17.5 -43.5q0 -26 -17.5 -43.5t-43.5 -17.5h-422q-25 0 -43.5 17.5t-18.5 43.5z" />
<glyph unicode="&#x101;" horiz-adv-x="1148" d="M92 463q0 197 111 330q130 149 360 149q227 0 344 -139q109 -128 109 -365v-387q0 -30 -22.5 -50.5t-53.5 -20.5t-52.5 19.5t-21.5 51.5v31q-129 -102 -319 -102q-213 0 -330 126q-125 134 -125 357zM242 459q0 -159 86 -258q86 -95 237 -95q91 0 162 29t139 86v213 q0 192 -80 285q-75 92 -223 92q-165 0 -252 -121q-69 -92 -69 -231zM299 1348q0 25 17 43t42 18h424q25 0 42.5 -18t17.5 -43q0 -26 -17.5 -44t-42.5 -18h-424q-25 0 -42 18t-17 44z" />
<glyph unicode="&#x102;" horiz-adv-x="1415" d="M150 59v754q0 127 43 244t129 205q151 151 385 151q239 0 387 -151q85 -88 128.5 -205.5t43.5 -243.5v-754q0 -32 -24.5 -55.5t-57.5 -23.5q-35 0 -58.5 23t-23.5 56v426h-789v-426q0 -32 -24 -55.5t-58 -23.5t-57.5 23.5t-23.5 55.5zM313 631h789v178q0 207 -113 332 q-111 121 -282 121q-175 0 -283 -121q-111 -120 -111 -332v-178zM410 1919q0 23 16.5 38t40.5 15q19 0 37 -17.5t36 -43t39 -51t54 -43t74 -17.5t74 17.5t54 43t38.5 51t35.5 43t37 17.5q24 0 41 -15t17 -38q0 -36 -62 -111q-94 -118 -235 -118q-142 0 -236 118 q-61 74 -61 111z" />
<glyph unicode="&#x103;" horiz-adv-x="1148" d="M92 463q0 197 111 330q130 149 360 149q227 0 344 -139q109 -128 109 -365v-387q0 -30 -22.5 -50.5t-53.5 -20.5t-52.5 19.5t-21.5 51.5v31q-129 -102 -319 -102q-213 0 -330 126q-125 134 -125 357zM242 459q0 -159 86 -258q86 -95 237 -95q91 0 162 29t139 86v213 q0 192 -80 285q-75 92 -223 92q-165 0 -252 -121q-69 -92 -69 -231zM268 1430q0 23 17 38t41 15q19 0 37 -17.5t35.5 -43t38.5 -51t54 -43t74 -17.5t74 17.5t54 43t39 51t36 43t37 17.5q24 0 40.5 -15t16.5 -38q0 -37 -61 -111q-95 -119 -236 -119q-140 0 -235 119 q-62 75 -62 111z" />
<glyph unicode="&#x104;" horiz-adv-x="1415" d="M150 59v754q0 127 43 244t129 205q151 151 385 151q239 0 387 -151q85 -88 128.5 -205.5t43.5 -243.5v-754q0 -32 -24.5 -55.5t-57.5 -23.5q-20 0 -35 6q-39 -93 -39 -164q0 -23 5 -41.5t19.5 -37.5t47 -29.5t80.5 -10.5q31 0 62.5 7t37.5 7q45 0 45 -45q0 -43 -47 -57 q-52 -18 -109 -18q-241 0 -241 190q0 112 92 281v417h-789v-426q0 -32 -24 -55.5t-58 -23.5t-57.5 23.5t-23.5 55.5zM313 631h789v178q0 207 -113 332q-111 121 -282 121q-175 0 -283 -121q-111 -120 -111 -332v-178z" />
<glyph unicode="&#x105;" horiz-adv-x="1148" d="M92 463q0 197 111 330q130 149 360 149q227 0 344 -139q109 -128 109 -365v-387q0 -30 -22.5 -50.5t-53.5 -20.5q-14 0 -20 2q-39 -89 -39 -160q0 -24 5 -42t19.5 -37t47 -29.5t81.5 -10.5q30 0 61.5 7t39.5 7q21 0 33 -12t12 -33q0 -43 -47 -57q-52 -18 -109 -18 q-244 0 -244 190q0 100 86 268v27q-129 -102 -319 -102q-213 0 -330 126q-125 134 -125 357zM242 459q0 -159 86 -258q86 -95 237 -95q91 0 162 29t139 86v213q0 192 -80 285q-75 92 -223 92q-165 0 -252 -121q-69 -92 -69 -231z" />
<glyph unicode="&#x106;" horiz-adv-x="1349" d="M96 698q0 144 59 277t157.5 228.5t233 152.5t279.5 57q194 0 342 -67q99 -42 99 -103q0 -33 -21.5 -54.5t-54.5 -21.5q-14 0 -33.5 10t-52 27t-66.5 29q-97 33 -215 33q-149 0 -277.5 -76.5t-204 -207.5t-75.5 -284q0 -166 76.5 -297.5t203.5 -202.5t277 -71 q114 0 217 35q37 13 71.5 30.5t54.5 27t34 9.5q31 0 53.5 -21.5t22.5 -53.5q0 -33 -25.5 -56.5t-74.5 -46.5q-152 -71 -351 -71q-201 0 -366 87.5t-264 253t-99 377.5zM645 1626q0 18 12 39l156 283q21 43 57 43q26 0 44 -17t18 -41q0 -17 -17 -45l-165 -274 q-23 -37 -54 -37q-21 0 -36 14t-15 35z" />
<glyph unicode="&#x107;" horiz-adv-x="964" d="M92 463q0 181 105 305q70 84 173 129t222 45q129 0 227 -49q70 -34 70 -80q0 -25 -18 -42t-44 -17q-8 0 -16 2t-14 4.5t-18.5 8.5t-22.5 11q-79 35 -164 35q-163 0 -266 -119q-82 -95 -82 -233q0 -160 94 -260q96 -99 256 -99q99 0 168 29q15 6 29.5 14t23 11.5t19.5 3.5 q24 0 41.5 -18.5t17.5 -43.5q0 -27 -20.5 -45.5t-65.5 -36.5q-96 -38 -217 -38q-238 0 -371 139q-127 133 -127 344zM420 1212q0 18 12 39l156 283q21 43 57 43q26 0 44 -17t18 -40q0 -17 -17 -45l-166 -275q-23 -37 -53 -37q-21 0 -36 14t-15 35z" />
<glyph unicode="&#x10c;" horiz-adv-x="1349" d="M96 698q0 144 59 277t157.5 228.5t233 152.5t279.5 57q194 0 342 -67q99 -42 99 -103q0 -33 -21.5 -54.5t-54.5 -21.5q-14 0 -33.5 10t-52 27t-66.5 29q-97 33 -215 33q-149 0 -277.5 -76.5t-204 -207.5t-75.5 -284q0 -166 76.5 -297.5t203.5 -202.5t277 -71 q114 0 217 35q37 13 71.5 30.5t54.5 27t34 9.5q31 0 53.5 -21.5t22.5 -53.5q0 -33 -25.5 -56.5t-74.5 -46.5q-152 -71 -351 -71q-201 0 -366 87.5t-264 253t-99 377.5zM471 1933q0 25 15.5 40.5t39.5 15.5q26 0 45 -23l226 -233l227 233q19 23 45 23q22 0 38.5 -16t16.5 -40 q0 -21 -26 -47l-252 -260q-22 -22 -49 -22q-25 0 -47 22l-254 260q-25 25 -25 47z" />
<glyph unicode="&#x10d;" horiz-adv-x="964" d="M92 463q0 181 105 305q70 84 173 129t222 45q129 0 227 -49q70 -34 70 -80q0 -25 -18 -42t-44 -17q-8 0 -16 2t-14 4.5t-18.5 8.5t-22.5 11q-79 35 -164 35q-163 0 -266 -119q-82 -95 -82 -233q0 -160 94 -260q96 -99 256 -99q99 0 168 29q15 6 29.5 14t23 11.5t19.5 3.5 q24 0 41.5 -18.5t17.5 -43.5q0 -27 -20.5 -45.5t-65.5 -36.5q-96 -38 -217 -38q-238 0 -371 139q-127 133 -127 344zM213 1520q0 24 15.5 39.5t39.5 15.5q26 0 45 -23l226 -233l227 233q19 23 45 23q22 0 38.5 -15.5t16.5 -39.5q0 -21 -26 -47l-252 -261q-22 -22 -49 -22 q-25 0 -47 22l-254 261q-25 25 -25 47z" />
<glyph unicode="&#x10e;" horiz-adv-x="1511" d="M154 80v1235q0 33 23.5 56.5t58.5 23.5h436q385 0 581 -219q162 -180 162 -480q0 -367 -260 -555q-194 -141 -514 -141h-405q-35 0 -58.5 23.5t-23.5 56.5zM317 139h308q249 0 407 111q215 153 215 446q0 238 -131 385q-158 174 -471 174h-328v-1116zM420 1933 q0 25 16 40.5t39 15.5q26 0 45 -23l225 -233l228 233q19 23 45 23q22 0 38.5 -16t16.5 -40q0 -21 -26 -47l-252 -260q-22 -22 -50 -22q-25 0 -47 22l-254 260q-24 24 -24 47z" />
<glyph unicode="&#x10f;" horiz-adv-x="1386" d="M92 459q0 222 125 356q120 129 330 129q193 0 319 -92v489q0 29 22.5 50.5t51.5 21.5q31 0 53.5 -21.5t22.5 -50.5v-862q0 -232 -109 -360q-117 -137 -344 -137q-232 0 -360 147q-111 133 -111 330zM242 463q0 -142 69 -234q93 -118 254 -118q143 0 221 90q80 93 80 274 v215q-71 66 -138.5 99.5t-160.5 33.5q-158 0 -241 -96q-84 -93 -84 -264zM1159 1323q0 38 24.5 64t71.5 26q55 0 85 -36.5t30 -100.5q0 -89 -63 -154t-113 -65q-13 0 -22 8t-9 20q0 17 17.5 33t35 35.5t17.5 44.5q0 14 -7.5 25t-18.5 18.5t-22 17t-18.5 25.5t-7.5 39z" />
<glyph unicode="&#x110;" horiz-adv-x="1521" d="M-45 696q0 28 20 49t48 21h141v549q0 33 23.5 56.5t58.5 23.5h436q386 0 582 -219q161 -182 161 -480q0 -365 -260 -553q-197 -143 -514 -143h-405q-35 0 -58.5 23.5t-23.5 56.5v547h-141q-28 0 -48 20t-20 49zM328 139h307q232 0 381 86q115 65 178 184t63 287 q0 240 -129 385q-152 174 -473 174h-327v-489h293q27 0 47 -21t20 -49q0 -29 -19.5 -49t-47.5 -20h-293v-488z" />
<glyph unicode="&#x111;" horiz-adv-x="1069" d="M92 459q0 184 94 309q61 82 157 129t218 47q100 0 209 -37v154h-180q-29 0 -49.5 21.5t-20.5 50.5q0 28 20.5 48.5t49.5 20.5h180v137q0 31 22 52.5t54 21.5q31 0 52.5 -21.5t21.5 -52.5v-137h167q29 0 49.5 -20.5t20.5 -48.5q0 -29 -20.5 -50.5t-49.5 -21.5h-167v-981 q0 -38 -24 -59t-60 -21h-213q-269 0 -410 141q-121 121 -121 318zM246 461q0 -145 82 -230q103 -106 309 -106h133v653q-101 37 -201 37q-84 0 -151.5 -34.5t-110.5 -98.5q-61 -88 -61 -221z" />
<glyph unicode="&#x112;" horiz-adv-x="1163" d="M131 590v215q0 255 111 403q141 187 465 187h323q29 0 49.5 -21.5t20.5 -50.5q0 -31 -20.5 -52.5t-49.5 -21.5h-319q-248 0 -346 -139q-70 -103 -70 -262v-74h629q30 0 50.5 -21t20.5 -51q0 -31 -20 -51t-51 -20h-629v-80q0 -197 94 -297q103 -109 320 -109h321 q29 0 49.5 -21t20.5 -52q0 -29 -20.5 -50.5t-49.5 -21.5h-323q-308 0 -451 168q-125 146 -125 422zM389 1804q0 25 18.5 43.5t43.5 18.5h421q26 0 44 -18.5t18 -43.5q0 -26 -18 -43.5t-44 -17.5h-421q-25 0 -43.5 17.5t-18.5 43.5z" />
<glyph unicode="&#x113;" horiz-adv-x="1073" d="M92 473q0 202 123 334q125 135 338 135q202 0 321 -129q113 -119 113 -301q0 -38 -21 -65t-59 -27h-659q12 -126 80 -205q95 -113 258 -113q126 0 221 50q10 5 25.5 13.5t22.5 12.5t17 7t19 3q24 0 40.5 -18t16.5 -43q0 -22 -17.5 -39.5t-58.5 -40.5q-127 -67 -292 -67 q-232 0 -367 151q-121 130 -121 342zM248 528h594q-6 127 -76 203q-83 90 -213 90q-146 0 -231 -98q-64 -73 -74 -195zM262 1348q0 25 17.5 43t42.5 18h423q25 0 42.5 -18t17.5 -43q0 -26 -17.5 -44t-42.5 -18h-423q-25 0 -42.5 18t-17.5 44z" />
<glyph unicode="&#x116;" horiz-adv-x="1163" d="M131 590v215q0 255 111 403q141 187 465 187h323q29 0 49.5 -21.5t20.5 -50.5q0 -31 -20.5 -52.5t-49.5 -21.5h-319q-248 0 -346 -139q-70 -103 -70 -262v-74h629q30 0 50.5 -21t20.5 -51q0 -31 -20 -51t-51 -20h-629v-80q0 -197 94 -297q103 -109 320 -109h321 q29 0 49.5 -21t20.5 -52q0 -29 -20.5 -50.5t-49.5 -21.5h-323q-308 0 -451 168q-125 146 -125 422zM571 1782q0 36 27 62t64 26t63.5 -25.5t26.5 -62.5q0 -38 -26.5 -64t-63.5 -26t-64 26t-27 64z" />
<glyph unicode="&#x117;" horiz-adv-x="1073" d="M92 473q0 202 123 334q125 135 338 135q202 0 321 -129q113 -119 113 -301q0 -38 -21 -65t-59 -27h-659q12 -126 80 -205q95 -113 258 -113q126 0 221 50q10 5 25.5 13.5t22.5 12.5t17 7t19 3q24 0 40.5 -18t16.5 -43q0 -22 -17.5 -39.5t-58.5 -40.5q-127 -67 -292 -67 q-232 0 -367 151q-121 130 -121 342zM248 528h594q-6 127 -76 203q-83 90 -213 90q-146 0 -231 -98q-64 -73 -74 -195zM442 1368q0 37 26.5 62.5t63.5 25.5t64 -26t27 -62q0 -38 -27 -64t-64 -26t-63.5 26t-26.5 64z" />
<glyph unicode="&#x118;" horiz-adv-x="1163" d="M131 623v149q0 290 137 449q150 174 445 174h315q30 0 51 -21t21 -51q0 -33 -21 -52.5t-51 -19.5h-313q-227 0 -332 -137q-90 -114 -90 -311v-33h631q31 0 51 -20t20 -52t-20 -51.5t-51 -19.5h-631v-33q0 -220 108 -334q114 -117 312 -117h315q30 0 51 -20t21 -51 q0 -32 -21 -52t-51 -20h-178q-49 -111 -49 -178q0 -24 5 -42t19.5 -37t47 -29.5t81.5 -10.5q30 0 61.5 7t39.5 7q21 0 33 -12t12 -33q0 -43 -47 -57q-52 -18 -109 -18q-244 0 -244 190q0 81 66 213h-53q-279 0 -428 156q-154 157 -154 467z" />
<glyph unicode="&#x119;" horiz-adv-x="1073" d="M92 473q0 202 123 334q125 135 338 135q202 0 321 -129q113 -119 113 -301q0 -38 -21 -65t-59 -27h-659q12 -126 80 -205q95 -113 258 -113q126 0 221 50q10 5 25.5 13.5t22.5 12.5t17 7t19 3q24 0 40.5 -18t16.5 -43q0 -22 -17.5 -39.5t-58.5 -40.5q-67 -34 -141 -51 q-43 -97 -43 -174q0 -23 5 -41.5t20 -37.5t47.5 -29.5t81.5 -10.5q29 0 60.5 7t39.5 7q43 0 43 -45q0 -42 -45 -57q-56 -18 -111 -18q-241 0 -241 190q0 79 51 195q-20 -2 -59 -2q-232 0 -367 151q-121 130 -121 342zM248 528h594q-6 127 -76 203q-83 90 -213 90 q-146 0 -231 -98q-64 -73 -74 -195z" />
<glyph unicode="&#x11a;" horiz-adv-x="1163" d="M131 590v215q0 255 111 403q141 187 465 187h323q29 0 49.5 -21.5t20.5 -50.5q0 -31 -20.5 -52.5t-49.5 -21.5h-319q-248 0 -346 -139q-70 -103 -70 -262v-74h629q30 0 50.5 -21t20.5 -51q0 -31 -20 -51t-51 -20h-629v-80q0 -197 94 -297q103 -109 320 -109h321 q29 0 49.5 -21t20.5 -52q0 -29 -20.5 -50.5t-49.5 -21.5h-323q-308 0 -451 168q-125 146 -125 422zM373 1933q0 25 15.5 40.5t39.5 15.5q26 0 45 -23l225 -233l228 233q19 23 45 23q22 0 38.5 -16t16.5 -40q0 -20 -27 -47l-251 -260q-22 -22 -50 -22q-25 0 -47 22l-254 260 q-24 24 -24 47z" />
<glyph unicode="&#x11b;" horiz-adv-x="1073" d="M92 473q0 202 123 334q125 135 338 135q202 0 321 -129q113 -119 113 -301q0 -38 -21 -65t-59 -27h-659q12 -126 80 -205q95 -113 258 -113q126 0 221 50q10 5 25.5 13.5t22.5 12.5t17 7t19 3q24 0 40.5 -18t16.5 -43q0 -22 -17.5 -39.5t-58.5 -40.5q-127 -67 -292 -67 q-232 0 -367 151q-121 130 -121 342zM215 1520q0 24 15.5 39.5t39.5 15.5q26 0 45 -23l226 -233l227 233q19 23 45 23q22 0 38.5 -15.5t16.5 -39.5q0 -21 -26 -47l-252 -261q-22 -22 -49 -22q-25 0 -47 22l-254 261q-25 25 -25 47zM248 528h594q-6 127 -76 203 q-83 90 -213 90q-146 0 -231 -98q-64 -73 -74 -195z" />
<glyph unicode="&#x11e;" horiz-adv-x="1607" d="M96 698q0 203 100.5 367.5t272.5 256t379 91.5q186 0 358 -70q50 -21 76.5 -44t26.5 -56q0 -34 -22.5 -55t-57.5 -21q-18 0 -38 9t-58 27t-80 32q-95 31 -207 31q-158 0 -290.5 -72.5t-211 -203.5t-78.5 -292q0 -128 45 -235.5t123.5 -181t185 -114t228.5 -40.5 q195 0 328 92q154 106 174 303h-455q-29 0 -49.5 20.5t-20.5 51.5q0 29 20.5 50.5t49.5 21.5h555q31 0 51.5 -19t20.5 -57q0 -143 -55.5 -260.5t-155.5 -198.5q-187 -151 -469 -151q-156 0 -291.5 48t-237 137t-159.5 226.5t-58 306.5zM526 1874q0 23 17 38t41 15 q19 0 37 -17.5t35.5 -43t38.5 -51t54 -43t74 -17.5t74 17.5t54 43t39 51t36 43t37 17.5q24 0 40.5 -15t16.5 -38q0 -37 -61 -111q-94 -118 -236 -118q-141 0 -235 118q-62 75 -62 111z" />
<glyph unicode="&#x11f;" horiz-adv-x="1157" d="M98 463q0 198 113 330q126 151 358 151q228 0 346 -141q109 -131 109 -365v-432q0 -206 -109 -336q-60 -70 -152.5 -106.5t-197.5 -36.5q-147 0 -266 45q-65 24 -90 44t-25 52q0 28 18.5 47t47.5 19q21 0 67.5 -23.5t79.5 -34.5q73 -26 166 -26q69 0 131.5 24t102.5 70 q41 47 58 107t17 151v74q-119 -96 -319 -96q-211 0 -328 126q-127 137 -127 357zM248 459q0 -167 86 -262t237 -95q93 0 164 28t137 85v219q0 192 -77 285q-77 92 -226 92q-161 0 -250 -121q-71 -95 -71 -231zM274 1430q0 23 17 38t41 15q19 0 37 -17.5t35.5 -43t38.5 -51 t54 -43t74 -17.5t74 17.5t54 43t39 51t36 43t37 17.5q24 0 40.5 -15t16.5 -38q0 -37 -61 -111q-95 -119 -236 -119q-140 0 -235 119q-62 75 -62 111z" />
<glyph unicode="&#x122;" horiz-adv-x="1607" d="M96 698q0 203 100.5 367.5t272.5 256t379 91.5q186 0 358 -70q50 -21 76.5 -44t26.5 -56q0 -34 -22.5 -55t-57.5 -21q-18 0 -38 9t-58 27t-80 32q-95 31 -207 31q-158 0 -290.5 -72.5t-211 -203.5t-78.5 -292q0 -128 45 -235.5t123.5 -181t185 -114t228.5 -40.5 q195 0 328 92q154 106 174 303h-455q-29 0 -49.5 20.5t-20.5 51.5q0 29 20.5 50.5t49.5 21.5h555q31 0 51.5 -19t20.5 -57q0 -143 -55.5 -260.5t-155.5 -198.5q-187 -151 -469 -151q-156 0 -291.5 48t-237 137t-159.5 226.5t-58 306.5zM743 -215q0 38 25 64t72 26 q55 0 84.5 -36.5t29.5 -100.5q0 -89 -63 -154t-113 -65q-13 0 -21.5 8t-8.5 20q0 13 11 26.5t23.5 23t23.5 26.5t11 37q0 14 -7.5 25t-18.5 18.5t-22 17t-18.5 25.5t-7.5 39z" />
<glyph unicode="&#x123;" horiz-adv-x="1163" d="M98 463q0 198 113 330q126 151 358 151q228 0 346 -141q109 -131 109 -365v-432q0 -206 -109 -336q-60 -70 -152.5 -106.5t-197.5 -36.5q-147 0 -266 45q-65 24 -90 44t-25 52q0 28 18.5 47t47.5 19q21 0 67.5 -23.5t79.5 -34.5q73 -26 166 -26q69 0 131.5 24t102.5 70 q41 47 58 107t17 151v74q-119 -96 -319 -96q-211 0 -328 126q-127 137 -127 357zM248 459q0 -167 86 -262t237 -95q93 0 164 28t137 85v219q0 192 -77 285q-77 92 -226 92q-161 0 -250 -121q-71 -95 -71 -231zM457 1278q0 90 63.5 155.5t114.5 65.5q12 0 20.5 -8.5 t8.5 -20.5q0 -20 -34 -51t-34 -61q0 -14 7.5 -25t18 -19t21 -17.5t18 -25.5t7.5 -38q0 -38 -25 -65t-72 -27q-54 0 -84 37t-30 100z" />
<glyph unicode="&#x12a;" horiz-adv-x="471" d="M-35 1804q0 25 18.5 43.5t43.5 18.5h422q26 0 43.5 -18.5t17.5 -43.5q0 -26 -17.5 -43.5t-43.5 -17.5h-422q-25 0 -43.5 17.5t-18.5 43.5zM154 59v1274q0 32 24 56t58 24t57.5 -23.5t23.5 -56.5v-1274q0 -32 -23.5 -55.5t-57.5 -23.5t-58 23.5t-24 55.5z" />
<glyph unicode="&#x12b;" horiz-adv-x="446" d="M-49 1348q0 25 18 43t43 18h424q25 0 42.5 -18t17.5 -43q0 -26 -17.5 -44t-42.5 -18h-424q-25 0 -43 18t-18 44zM147 51v819q0 30 22.5 51t53.5 21t53.5 -21t22.5 -51v-819q0 -29 -22.5 -50t-53.5 -21t-53.5 21t-22.5 50z" />
<glyph unicode="&#x12e;" horiz-adv-x="471" d="M59 -213q0 93 95 283v1263q0 32 24 56t58 24t57.5 -23.5t23.5 -56.5v-1274q0 -32 -23.5 -55.5t-57.5 -23.5q-22 0 -35 8q-41 -93 -41 -166q0 -24 5 -42t19.5 -37t47 -29.5t81.5 -10.5q29 0 61 7t40 7q43 0 43 -45q0 -42 -45 -57q-56 -18 -111 -18q-242 0 -242 190z" />
<glyph unicode="&#x12f;" horiz-adv-x="446" d="M66 -213q0 98 81 260v4v819q0 30 22.5 51t53.5 21t53.5 -21t22.5 -51v-819q0 -29 -22.5 -50t-53.5 -21l-18 2q-37 -84 -37 -160q0 -24 5 -42t19.5 -37t46.5 -29.5t80 -10.5q30 0 61.5 7t39.5 7q45 0 45 -45q0 -43 -47 -57q-52 -18 -109 -18q-243 0 -243 190zM131 1366 q0 37 26.5 63.5t63.5 26.5t63.5 -26.5t26.5 -63.5t-26.5 -63.5t-63.5 -26.5t-63.5 26.5t-26.5 63.5z" />
<glyph unicode="&#x130;" horiz-adv-x="471" d="M145 1792q0 36 27 62t64 26t63.5 -25.5t26.5 -62.5q0 -38 -26.5 -64t-63.5 -26t-64 26t-27 64zM154 59v1274q0 32 24 56t58 24t57.5 -23.5t23.5 -56.5v-1274q0 -32 -23.5 -55.5t-57.5 -23.5t-58 23.5t-24 55.5z" />
<glyph unicode="&#x131;" horiz-adv-x="446" d="M147 51v819q0 30 22.5 51t53.5 21t53.5 -21t22.5 -51v-819q0 -29 -22.5 -50t-53.5 -21t-53.5 21t-22.5 50z" />
<glyph unicode="&#x136;" horiz-adv-x="1214" d="M154 59v1274q0 32 24 56t58 24t57.5 -23.5t23.5 -56.5v-608l656 661q27 27 61 27q31 0 53.5 -23.5t22.5 -56.5q0 -30 -23 -53l-503 -496l563 -678q14 -20 14 -45q0 -33 -23 -57t-57 -24q-43 0 -75 43l-533 647l-156 -152v-459q0 -32 -23.5 -55.5t-57.5 -23.5t-58 23.5 t-24 55.5zM524 -215q0 38 25 64t72 26q55 0 84.5 -36.5t29.5 -100.5q0 -89 -63 -154t-113 -65q-13 0 -22 8t-9 20q0 17 17.5 33t35 35.5t17.5 44.5q0 14 -7.5 25t-18.5 18.5t-22 17t-18.5 25.5t-7.5 39z" />
<glyph unicode="&#x137;" horiz-adv-x="960" d="M152 51v1286q0 31 22 52.5t53 21.5t53.5 -21.5t22.5 -52.5v-858l473 443q23 20 47 20q31 0 50.5 -21t19.5 -47q0 -31 -21 -49l-331 -303l358 -420q21 -25 21 -51q0 -30 -22 -50.5t-52 -20.5q-35 0 -62 34l-348 416l-133 -123v-256q0 -29 -22.5 -50t-53.5 -21t-53 21 t-22 50zM408 -215q0 38 24.5 64t71.5 26q55 0 84.5 -36.5t29.5 -100.5q0 -89 -63 -154t-113 -65q-13 0 -21.5 8t-8.5 20q0 13 11 26.5t23.5 23t23.5 26.5t11 37q0 17 -11.5 30.5t-25 21t-25 26.5t-11.5 47z" />
<glyph unicode="&#x139;" horiz-adv-x="1069" d="M131 582v751q0 33 23.5 56.5t58.5 23.5q34 0 58 -24t24 -56v-774q0 -202 86 -301q98 -113 324 -113h258q29 0 49 -21t20 -52q0 -30 -20 -51t-49 -21h-261q-324 0 -460 172q-111 141 -111 410zM145 1626q0 16 13 39l155 283q21 43 58 43q26 0 43.5 -17t17.5 -41 q0 -18 -16 -45l-166 -274q-23 -37 -53 -37q-21 0 -36.5 14t-15.5 35z" />
<glyph unicode="&#x13a;" horiz-adv-x="456" d="M86 1622q0 18 12 39l156 283q21 43 57 43q26 0 44 -17t18 -41q0 -17 -17 -45l-166 -274q-23 -37 -53 -37q-21 0 -36 14t-15 35zM152 51v1288q0 31 22 52.5t53 21.5t53.5 -21.5t22.5 -52.5v-1288q0 -29 -22.5 -50t-53.5 -21t-53 21t-22 50z" />
<glyph unicode="&#x13b;" horiz-adv-x="1069" d="M131 582v751q0 33 23.5 56.5t58.5 23.5q34 0 58 -24t24 -56v-774q0 -202 86 -301q98 -113 324 -113h258q29 0 49 -21t20 -52q0 -30 -20 -51t-49 -21h-261q-324 0 -460 172q-111 141 -111 410zM475 -215q0 38 24.5 64t71.5 26q55 0 85 -36.5t30 -100.5q0 -89 -63 -154 t-113 -65q-13 0 -22 8t-9 20q0 17 17.5 33t35 35.5t17.5 44.5q0 14 -7.5 25t-18.5 18.5t-22 17t-18.5 25.5t-7.5 39z" />
<glyph unicode="&#x13c;" horiz-adv-x="456" d="M123 -215q0 38 24.5 64t71.5 26q55 0 85 -36.5t30 -100.5q0 -89 -63 -154t-113 -65q-13 0 -22 8t-9 20q0 17 17.5 33t35 35.5t17.5 44.5q0 14 -7.5 25t-18.5 18.5t-22 17t-18.5 25.5t-7.5 39zM152 51v1288q0 31 22 52.5t53 21.5t53.5 -21.5t22.5 -52.5v-1288 q0 -29 -22.5 -50t-53.5 -21t-53 21t-22 50z" />
<glyph unicode="&#x13d;" horiz-adv-x="1069" d="M131 582v751q0 33 23.5 56.5t58.5 23.5q34 0 58 -24t24 -56v-774q0 -202 86 -301q98 -113 324 -113h258q29 0 49 -21t20 -52q0 -30 -20 -51t-49 -21h-261q-324 0 -460 172q-111 141 -111 410zM565 1323q0 38 25 64t72 26q55 0 84.5 -36.5t29.5 -100.5q0 -89 -63 -154 t-113 -65q-13 0 -22 8t-9 20q0 17 17.5 33t35 35.5t17.5 44.5q0 14 -7.5 25t-18.5 18.5t-22 17t-18.5 25.5t-7.5 39z" />
<glyph unicode="&#x13e;" horiz-adv-x="647" d="M152 51v1288q0 31 22 52.5t53 21.5t53.5 -21.5t22.5 -52.5v-1288q0 -29 -22.5 -50t-53.5 -21t-53 21t-22 50zM420 1323q0 38 24.5 64t71.5 26q55 0 85 -36.5t30 -100.5q0 -89 -63 -154t-113 -65q-13 0 -22 8t-9 20q0 17 17.5 33t35 35.5t17.5 44.5q0 14 -7.5 25 t-18.5 18.5t-22 17t-18.5 25.5t-7.5 39z" />
<glyph unicode="&#x141;" horiz-adv-x="1112" d="M-63 494q0 38 32 57l197 125v659q0 32 24 55t58 23q35 0 58.5 -22.5t23.5 -55.5v-555l178 115q17 12 41 12q28 0 45.5 -17.5t17.5 -45.5q0 -39 -32 -58l-250 -159v-484h669q29 0 49.5 -21.5t20.5 -49.5q0 -31 -20.5 -51.5t-49.5 -20.5h-751q-34 0 -58 24t-24 56v442 l-123 -80q-24 -12 -43 -12q-27 0 -45 18.5t-18 45.5z" />
<glyph unicode="&#x142;" horiz-adv-x="456" d="M-87.5 526.5q5.5 26.5 26.5 38.5l215 137v637q0 31 21 52.5t52 21.5q32 0 54 -21.5t22 -52.5v-540l180 116q23 14 50 9.5t42 -25.5q15 -25 9.5 -50.5t-27.5 -39.5l-254 -164v-594q0 -29 -22.5 -50t-53.5 -21t-52 21t-21 50v500l-144 -92q-22 -15 -48.5 -10t-39.5 28 q-15 23 -9.5 49.5z" />
<glyph unicode="&#x143;" horiz-adv-x="1515" d="M154 53v1272q0 36 27 62t65 26q46 0 82 -45l876 -1102v1071q0 31 23.5 53.5t56.5 22.5q32 0 55 -22.5t23 -53.5v-1269q0 -37 -27 -62.5t-67 -25.5q-44 0 -82 45l-875 1101v-1073q0 -31 -23 -52t-57 -21q-33 0 -55 21t-22 52zM614 1626q0 16 13 39l155 283q21 43 58 43 q26 0 43.5 -17t17.5 -41q0 -18 -16 -45l-166 -274q-23 -37 -53 -37q-21 0 -36.5 14t-15.5 35z" />
<glyph unicode="&#x144;" horiz-adv-x="1118" d="M133 51v481q0 157 68 263q50 72 142 110.5t216 38.5q126 0 217.5 -38.5t141.5 -110.5q36 -53 51.5 -114t15.5 -149v-481q0 -29 -21.5 -50t-52.5 -21q-32 0 -53.5 20.5t-21.5 50.5v471q0 113 -37 180q-29 52 -90 82.5t-150 30.5q-174 0 -237 -113q-39 -71 -39 -180v-471 q0 -29 -21.5 -50t-52.5 -21q-32 0 -54 21t-22 50zM420 1212q0 18 12 39l156 283q21 43 57 43q26 0 44 -17t18 -40q0 -17 -17 -45l-166 -275q-23 -37 -53 -37q-21 0 -36 14t-15 35z" />
<glyph unicode="&#x145;" horiz-adv-x="1515" d="M154 53v1272q0 36 27 62t65 26q46 0 82 -45l876 -1102v1071q0 31 23.5 53.5t56.5 22.5q32 0 55 -22.5t23 -53.5v-1269q0 -37 -27 -62.5t-67 -25.5q-44 0 -82 45l-875 1101v-1073q0 -31 -23 -52t-57 -21q-33 0 -55 21t-22 52zM655 -215q0 38 25 64t72 26q55 0 84.5 -36.5 t29.5 -100.5q0 -89 -63 -154t-113 -65q-13 0 -22 8t-9 20q0 17 17.5 33t35 35.5t17.5 44.5q0 14 -7.5 25t-18.5 18.5t-22 17t-18.5 25.5t-7.5 39z" />
<glyph unicode="&#x146;" horiz-adv-x="1118" d="M133 51v481q0 157 68 263q50 72 142 110.5t216 38.5q126 0 217.5 -38.5t141.5 -110.5q36 -53 51.5 -114t15.5 -149v-481q0 -29 -21.5 -50t-52.5 -21q-32 0 -53.5 20.5t-21.5 50.5v471q0 113 -37 180q-29 52 -90 82.5t-150 30.5q-174 0 -237 -113q-39 -71 -39 -180v-471 q0 -29 -21.5 -50t-52.5 -21q-32 0 -54 21t-22 50zM455 -215q0 38 24.5 64t71.5 26q55 0 85 -36.5t30 -100.5q0 -89 -63.5 -154t-113.5 -65q-13 0 -21.5 8t-8.5 20q0 17 17.5 33t34.5 35.5t17 44.5q0 17 -11.5 30.5t-25 21t-25 26.5t-11.5 47z" />
<glyph unicode="&#x147;" horiz-adv-x="1515" d="M154 53v1272q0 36 27 62t65 26q46 0 82 -45l876 -1102v1071q0 31 23.5 53.5t56.5 22.5q32 0 55 -22.5t23 -53.5v-1269q0 -37 -27 -62.5t-67 -25.5q-44 0 -82 45l-875 1101v-1073q0 -31 -23 -52t-57 -21q-33 0 -55 21t-22 52zM434 1933q0 25 16 40.5t39 15.5q27 0 46 -23 l225 -233l227 233q19 23 45 23q22 0 38.5 -16t16.5 -40q0 -21 -26 -47l-252 -260q-22 -22 -49 -22q-25 0 -47 22l-254 260q-25 25 -25 47z" />
<glyph unicode="&#x148;" horiz-adv-x="1118" d="M133 51v481q0 157 68 263q50 72 142 110.5t216 38.5q126 0 217.5 -38.5t141.5 -110.5q36 -53 51.5 -114t15.5 -149v-481q0 -29 -21.5 -50t-52.5 -21q-32 0 -53.5 20.5t-21.5 50.5v471q0 113 -37 180q-29 52 -90 82.5t-150 30.5q-174 0 -237 -113q-39 -71 -39 -180v-471 q0 -29 -21.5 -50t-52.5 -21q-32 0 -54 21t-22 50zM231 1520q0 24 16 39.5t40 15.5q26 0 45 -23l225 -233l227 233q19 23 45 23q23 0 39.5 -15.5t16.5 -39.5q0 -20 -27 -47l-252 -261q-22 -22 -49 -22q-25 0 -47 22l-254 261q-25 25 -25 47z" />
<glyph unicode="&#x14c;" horiz-adv-x="1650" d="M96 694q0 149 58 283t156.5 229t233 151t281.5 56t281.5 -56t233 -151t156.5 -229t58 -283q0 -199 -98.5 -363.5t-266 -257.5t-364.5 -93q-147 0 -281.5 55.5t-233 150t-156.5 227.5t-58 281zM270 694q0 -154 73 -283t200.5 -204.5t281.5 -75.5t282 76t201.5 205 t73.5 282t-73.5 283t-202 206.5t-281.5 76.5t-281 -76.5t-201 -206.5t-73 -283zM555 1804q0 25 18 43.5t43 18.5h422q26 0 44 -18.5t18 -43.5q0 -26 -18 -43.5t-44 -17.5h-422q-25 0 -43 17.5t-18 43.5z" />
<glyph unicode="&#x14d;" horiz-adv-x="1163" d="M92 461q0 210 137 344q67 65 158.5 101t194.5 36q212 0 352 -137q139 -136 139 -344q0 -101 -36.5 -189.5t-102.5 -152.5q-139 -139 -352 -139q-104 0 -195.5 36.5t-157.5 102.5q-137 134 -137 342zM240 461q0 -148 92 -250q98 -109 250 -109q154 0 252 109q90 99 90 250 t-90 250q-97 108 -252 108q-153 0 -250 -108q-92 -102 -92 -250zM311 1348q0 25 17.5 43t42.5 18h424q25 0 42 -18t17 -43q0 -26 -17 -44t-42 -18h-424q-25 0 -42.5 18t-17.5 44z" />
<glyph unicode="&#x150;" horiz-adv-x="1650" d="M96 694q0 149 58 283t156.5 229t233 151t281.5 56t281.5 -56t233 -151t156.5 -229t58 -283q0 -199 -98.5 -363.5t-266 -257.5t-364.5 -93q-147 0 -281.5 55.5t-233 150t-156.5 227.5t-58 281zM270 694q0 -154 73 -283t200.5 -204.5t281.5 -75.5t282 76t201.5 205 t73.5 282t-73.5 283t-202 206.5t-281.5 76.5t-281 -76.5t-201 -206.5t-73 -283zM492 1626q0 18 12 39l155 283q21 43 60 43q25 0 43 -17.5t18 -40.5q0 -15 -18 -45l-166 -274q-23 -37 -53 -37q-21 0 -36 14t-15 35zM870 1626q0 16 13 39l155 283q21 43 58 43q26 0 43.5 -17 t17.5 -41q0 -18 -16 -45l-166 -274q-23 -37 -53 -37q-21 0 -36.5 14t-15.5 35z" />
<glyph unicode="&#x151;" horiz-adv-x="1163" d="M92 461q0 210 137 344q67 65 158.5 101t194.5 36q212 0 352 -137q139 -136 139 -344q0 -101 -36.5 -189.5t-102.5 -152.5q-139 -139 -352 -139q-104 0 -195.5 36.5t-157.5 102.5q-137 134 -137 342zM240 461q0 -148 92 -250q98 -109 250 -109q154 0 252 109q90 99 90 250 t-90 250q-97 108 -252 108q-153 0 -250 -108q-92 -102 -92 -250zM248 1212q0 18 12 39l156 283q21 43 59 43q25 0 43.5 -17t18.5 -40q0 -13 -19 -45l-166 -275q-23 -37 -53 -37q-21 0 -36 14t-15 35zM627 1212q0 18 12 39l156 283q21 43 57 43q26 0 43.5 -16.5t17.5 -40.5 q0 -18 -16 -45l-166 -275q-23 -37 -53 -37q-21 0 -36 14t-15 35z" />
<glyph unicode="&#x152;" horiz-adv-x="2420" d="M96 694q0 149 58.5 283.5t157 230t233.5 151.5t282 56q186 0 346.5 -86.5t260.5 -234.5q27 65 65 114q138 187 465 187h322q29 0 49 -21t20 -51q0 -31 -20 -52.5t-49 -21.5h-320q-246 0 -344 -139q-70 -98 -70 -262v-74h629q29 0 49.5 -21.5t20.5 -50.5 q0 -30 -20.5 -50.5t-49.5 -20.5h-629v-80q0 -196 95 -297q103 -109 319 -109h320q29 0 49 -21t20 -52q0 -30 -20 -51t-49 -21h-322q-308 0 -451 168q-49 54 -79 129q-99 -148 -259.5 -232.5t-347.5 -84.5q-147 0 -282 55.5t-233.5 150t-157 227.5t-58.5 281zM270 694 q0 -113 43.5 -216.5t117.5 -179.5t177 -121.5t217 -45.5t217.5 45.5t178 122t118 180t43.5 215.5q0 150 -73.5 280.5t-202.5 209t-281 78.5q-150 0 -278.5 -78.5t-202.5 -209t-74 -280.5z" />
<glyph unicode="&#x153;" horiz-adv-x="1906" d="M92 461q0 210 137 344q67 65 158.5 101t194.5 36q212 0 352 -137q26 -26 59 -72q12 24 56 74q125 135 337 135q203 0 322 -129q113 -119 113 -301q0 -38 -21 -65t-59 -27h-660q12 -126 80 -205q95 -113 258 -113q126 0 221 50q10 5 25.5 13.5t22.5 12.5t17 7t19 3 q24 0 41 -18t17 -43q0 -22 -17.5 -39.5t-58.5 -40.5q-127 -67 -293 -67q-231 0 -366 151q-28 28 -50 64q-21 -34 -63 -76q-139 -139 -352 -139q-104 0 -195.5 36.5t-157.5 102.5q-137 134 -137 342zM240 461q0 -148 92 -250q98 -109 250 -109q154 0 252 109q90 99 90 250 t-90 250q-97 108 -252 108q-153 0 -250 -108q-92 -102 -92 -250zM1081 528h594q-6 127 -76 203q-83 90 -213 90q-146 0 -231 -98q-64 -73 -74 -195z" />
<glyph unicode="&#x154;" horiz-adv-x="1329" d="M154 59v1256q0 33 23.5 56.5t58.5 23.5h489q221 0 340 -80q166 -111 166 -346q0 -213 -164 -334q-84 -62 -201 -82l342 -436q23 -26 23 -56q0 -33 -24.5 -57t-59.5 -24q-44 0 -70 38l-399 527h-361v-486q0 -32 -23.5 -55.5t-57.5 -23.5q-35 0 -58.5 23t-23.5 56zM317 682 h385q158 0 240 47q121 72 121 240t-117 237q-81 49 -239 49h-390v-573zM514 1626q0 18 12 39l156 283q21 43 57 43q26 0 44 -17t18 -41q0 -17 -17 -45l-166 -274q-23 -37 -53 -37q-21 0 -36 14t-15 35z" />
<glyph unicode="&#x155;" horiz-adv-x="774" d="M133 53v486q0 158 66 258q47 72 134 109.5t204 37.5q91 0 163 -29q80 -33 80 -81q0 -29 -18.5 -48.5t-46.5 -19.5q-12 0 -22.5 3.5t-27 11t-30.5 12.5q-52 20 -103 20q-78 0 -133 -28.5t-80 -79.5q-36 -65 -36 -177v-475q0 -31 -21.5 -52t-52.5 -21q-32 0 -54 21t-22 52z M334 1212q0 18 12 39l156 283q21 43 57 43q26 0 44 -17t18 -40q0 -17 -17 -45l-166 -275q-23 -37 -53 -37q-21 0 -36 14t-15 35z" />
<glyph unicode="&#x156;" horiz-adv-x="1329" d="M154 59v1256q0 33 23.5 56.5t58.5 23.5h489q221 0 340 -80q166 -111 166 -346q0 -213 -164 -334q-84 -62 -201 -82l342 -436q23 -26 23 -56q0 -33 -24.5 -57t-59.5 -24q-44 0 -70 38l-399 527h-361v-486q0 -32 -23.5 -55.5t-57.5 -23.5q-35 0 -58.5 23t-23.5 56zM317 682 h385q158 0 240 47q121 72 121 240t-117 237q-81 49 -239 49h-390v-573zM557 -215q0 38 24.5 64t71.5 26q55 0 85 -36.5t30 -100.5q0 -89 -63 -154t-113 -65q-13 0 -22 8t-9 20q0 17 17.5 33t35 35.5t17.5 44.5q0 14 -7.5 25t-18.5 18.5t-22 17t-18.5 25.5t-7.5 39z" />
<glyph unicode="&#x157;" horiz-adv-x="774" d="M113 -215q0 38 24.5 64t71.5 26q55 0 85 -36.5t30 -100.5q0 -89 -63.5 -154t-113.5 -65q-13 0 -21.5 8t-8.5 20q0 13 11 26.5t23.5 23t23.5 26.5t11 37q0 17 -11.5 30.5t-25 21t-25 26.5t-11.5 47zM133 53v486q0 158 66 258q47 72 134 109.5t204 37.5q91 0 163 -29 q80 -33 80 -81q0 -29 -18.5 -48.5t-46.5 -19.5q-12 0 -22.5 3.5t-27 11t-30.5 12.5q-52 20 -103 20q-78 0 -133 -28.5t-80 -79.5q-36 -65 -36 -177v-475q0 -31 -21.5 -52t-52.5 -21q-32 0 -54 21t-22 52z" />
<glyph unicode="&#x158;" horiz-adv-x="1329" d="M154 59v1256q0 33 23.5 56.5t58.5 23.5h489q221 0 340 -80q166 -111 166 -346q0 -213 -164 -334q-84 -62 -201 -82l342 -436q23 -26 23 -56q0 -33 -24.5 -57t-59.5 -24q-44 0 -70 38l-399 527h-361v-486q0 -32 -23.5 -55.5t-57.5 -23.5q-35 0 -58.5 23t-23.5 56zM317 682 h385q158 0 240 47q121 72 121 240t-117 237q-81 49 -239 49h-390v-573zM330 1933q0 25 16 40.5t39 15.5q26 0 45 -23l225 -233l228 233q19 23 45 23q22 0 38.5 -16t16.5 -40q0 -20 -27 -47l-251 -260q-22 -22 -50 -22q-25 0 -47 22l-254 260q-24 24 -24 47z" />
<glyph unicode="&#x159;" horiz-adv-x="837" d="M133 53v486q0 158 66 258q47 72 134 109.5t204 37.5q91 0 163 -29q80 -33 80 -81q0 -29 -18.5 -48.5t-46.5 -19.5q-12 0 -22.5 3.5t-27 11t-30.5 12.5q-52 20 -103 20q-78 0 -133 -28.5t-80 -79.5q-36 -65 -36 -177v-475q0 -31 -21.5 -52t-52.5 -21q-32 0 -54 21t-22 52z M160 1520q0 24 15.5 39.5t39.5 15.5q26 0 45 -23l225 -233l228 233q19 23 45 23q22 0 38.5 -15.5t16.5 -39.5q0 -20 -27 -47l-251 -261q-22 -22 -50 -22q-25 0 -47 22l-254 261q-24 24 -24 47z" />
<glyph unicode="&#x15a;" horiz-adv-x="1138" d="M88 172q0 35 23 57.5t57 22.5q15 0 31.5 -9.5t48.5 -29.5t69 -37q112 -55 246 -55q159 0 239.5 71.5t80.5 186.5q0 137 -176 213q-50 22 -187.5 62.5t-218.5 80.5q-207 101 -207 307q0 174 128 272.5t366 98.5q185 0 319 -59q94 -38 94 -97q0 -33 -21 -54t-56 -21 q-16 0 -35.5 8t-49.5 22t-55 23q-105 37 -204 37q-157 0 -235.5 -57.5t-78.5 -167.5q0 -73 51.5 -122t149.5 -85q50 -18 133 -41t152.5 -46.5t126.5 -56.5q180 -107 180 -303q0 -193 -136 -303t-360 -110q-103 0 -212 28.5t-185 69.5q-78 44 -78 94zM424 1626q0 18 12 39 l156 283q21 43 57 43q26 0 44 -17t18 -41q0 -17 -17 -45l-166 -274q-23 -37 -53 -37q-21 0 -36 14t-15 35z" />
<glyph unicode="&#x15b;" horiz-adv-x="825" d="M74 123q0 25 16.5 42t42.5 17q29 0 82 -30q88 -52 191 -52q192 0 192 140q0 53 -32.5 84.5t-98.5 60.5q-26 12 -104.5 39.5t-118.5 46.5q-152 71 -152 223q0 118 88 184t250 66q125 0 213 -31q86 -29 86 -82q0 -25 -16 -41t-41 -16q-26 0 -96.5 22.5t-139.5 22.5 q-188 0 -188 -125q0 -46 28.5 -73.5t83.5 -51.5q31 -14 111 -41.5t113 -44.5q170 -80 170 -231q0 -126 -92.5 -199t-249.5 -73q-150 0 -260 51q-34 16 -56 40t-22 52zM274 1212q0 16 13 39l155 283q21 43 58 43q26 0 43.5 -16.5t17.5 -40.5q0 -18 -16 -45l-166 -275 q-23 -37 -53 -37q-21 0 -36.5 14t-15.5 35z" />
<glyph unicode="&#x15e;" horiz-adv-x="1138" d="M88 172q0 35 23 57.5t57 22.5q15 0 31.5 -9.5t48.5 -29.5t69 -37q112 -55 246 -55q159 0 239.5 71.5t80.5 186.5q0 137 -176 213q-50 22 -187.5 62.5t-218.5 80.5q-207 101 -207 307q0 174 128 272.5t366 98.5q185 0 319 -59q94 -38 94 -97q0 -33 -21 -54t-56 -21 q-16 0 -35.5 8t-49.5 22t-55 23q-105 37 -204 37q-157 0 -235.5 -57.5t-78.5 -167.5q0 -73 51.5 -122t149.5 -85q50 -18 133 -41t152.5 -46.5t126.5 -56.5q180 -107 180 -303q0 -186 -126.5 -294.5t-336.5 -116.5l2 -54q81 -6 131.5 -46.5t50.5 -106.5q0 -64 -40.5 -106.5 t-95.5 -58.5t-120 -16q-43 0 -73 9q-35 11 -35 41q0 17 12.5 29t28.5 12q8 0 31 -3.5t44 -3.5q59 0 102.5 24t43.5 75q0 43 -36.5 64.5t-90.5 21.5q-21 0 -33.5 12.5t-9.5 36.5l6 70q-93 6 -186.5 33t-161.5 63q-78 44 -78 94z" />
<glyph unicode="&#x15f;" horiz-adv-x="825" d="M74 123q0 25 16.5 42t42.5 17q29 0 82 -30q88 -52 191 -52q192 0 192 140q0 53 -32.5 84.5t-98.5 60.5q-26 12 -104.5 39.5t-118.5 46.5q-152 71 -152 223q0 118 88 184t250 66q125 0 213 -31q86 -29 86 -82q0 -25 -16 -41t-41 -16q-26 0 -96.5 22.5t-139.5 22.5 q-188 0 -188 -125q0 -46 28.5 -73.5t83.5 -51.5q31 -14 111 -41.5t113 -44.5q170 -80 170 -231q0 -120 -84.5 -192t-229.5 -78l2 -54q81 -6 132 -46.5t51 -106.5q0 -64 -40.5 -106.5t-95.5 -58.5t-120 -16q-44 0 -74 9q-35 11 -35 41q0 17 12.5 29t28.5 12q8 0 31.5 -3.5 t44.5 -3.5q59 0 102 24t43 75q0 43 -36.5 64.5t-90.5 21.5q-21 0 -33.5 12.5t-9.5 36.5l6 70q-120 6 -206 49q-34 16 -56 40t-22 52z" />
<glyph unicode="&#x160;" horiz-adv-x="1138" d="M88 172q0 35 23 57.5t57 22.5q15 0 31.5 -9.5t48.5 -29.5t69 -37q112 -55 246 -55q159 0 239.5 71.5t80.5 186.5q0 137 -176 213q-50 22 -187.5 62.5t-218.5 80.5q-207 101 -207 307q0 174 128 272.5t366 98.5q185 0 319 -59q94 -38 94 -97q0 -33 -21 -54t-56 -21 q-16 0 -35.5 8t-49.5 22t-55 23q-105 37 -204 37q-157 0 -235.5 -57.5t-78.5 -167.5q0 -73 51.5 -122t149.5 -85q50 -18 133 -41t152.5 -46.5t126.5 -56.5q180 -107 180 -303q0 -193 -136 -303t-360 -110q-103 0 -212 28.5t-185 69.5q-78 44 -78 94zM242 1933q0 25 16 40.5 t39 15.5q26 0 45 -23l225 -233l228 233q19 23 45 23q22 0 38.5 -16t16.5 -40q0 -20 -27 -47l-252 -260q-22 -22 -49 -22q-25 0 -47 22l-254 260q-24 24 -24 47z" />
<glyph unicode="&#x161;" horiz-adv-x="825" d="M74 123q0 25 16.5 42t42.5 17q29 0 82 -30q88 -52 191 -52q192 0 192 140q0 53 -32.5 84.5t-98.5 60.5q-26 12 -104.5 39.5t-118.5 46.5q-152 71 -152 223q0 118 88 184t250 66q125 0 213 -31q86 -29 86 -82q0 -25 -16 -41t-41 -16q-26 0 -96.5 22.5t-139.5 22.5 q-188 0 -188 -125q0 -46 28.5 -73.5t83.5 -51.5q31 -14 111 -41.5t113 -44.5q170 -80 170 -231q0 -126 -92.5 -199t-249.5 -73q-150 0 -260 51q-34 16 -56 40t-22 52zM86 1520q0 24 15.5 39.5t39.5 15.5q26 0 45 -23l226 -233l227 233q19 23 45 23q22 0 38.5 -15.5 t16.5 -39.5q0 -21 -26 -47l-252 -261q-22 -22 -49 -22q-25 0 -47 22l-254 261q-25 25 -25 47z" />
<glyph unicode="&#x162;" horiz-adv-x="1155" d="M0 1323q0 30 21 51t51 21h1013q29 0 49.5 -21.5t20.5 -50.5q0 -31 -20.5 -52.5t-49.5 -21.5h-426v-1190q0 -32 -23.5 -55.5t-57.5 -23.5t-58 23.5t-24 55.5v1190h-424q-31 0 -51.5 21.5t-20.5 52.5zM473 -215q0 38 24.5 64t71.5 26q55 0 85 -36.5t30 -100.5 q0 -89 -63 -154t-113 -65q-13 0 -22 8t-9 20q0 17 17.5 33t35 35.5t17.5 44.5q0 14 -7.5 25t-18.5 18.5t-22 17t-18.5 25.5t-7.5 39z" />
<glyph unicode="&#x163;" horiz-adv-x="722" d="M29 866q0 24 17.5 41t41.5 17h88v153q0 31 22 52.5t54 21.5q30 0 52 -22t22 -52v-153h282q25 0 42.5 -17.5t17.5 -40.5q0 -25 -17.5 -43t-42.5 -18h-282v-496q0 -101 38 -149.5t130 -48.5q44 0 82.5 16.5t65.5 33.5t42 17q26 0 40.5 -16.5t14.5 -42.5q0 -58 -98 -103 q-80 -36 -174 -36q-153 0 -222 85t-69 230v510h-88q-25 0 -42 18t-17 43zM373 -215q0 38 24.5 64t71.5 26q55 0 85 -36.5t30 -100.5q0 -89 -63 -154t-113 -65q-13 0 -22 8t-9 20q0 17 17.5 33t34.5 35.5t17 44.5q0 17 -11.5 30.5t-25 21t-25 26.5t-11.5 47z" />
<glyph unicode="&#x164;" horiz-adv-x="1155" d="M0 1323q0 30 21 51t51 21h1013q29 0 49.5 -21.5t20.5 -50.5q0 -31 -20.5 -52.5t-49.5 -21.5h-426v-1190q0 -32 -23.5 -55.5t-57.5 -23.5t-58 23.5t-24 55.5v1190h-424q-31 0 -51.5 21.5t-20.5 52.5zM252 1933q0 25 16 40.5t39 15.5q26 0 45 -23l226 -233l227 233 q19 23 45 23q22 0 38.5 -16t16.5 -40q0 -21 -26 -47l-252 -260q-22 -22 -49 -22q-26 0 -48 22l-254 260q-24 24 -24 47z" />
<glyph unicode="&#x165;" horiz-adv-x="858" d="M29 866q0 24 17.5 41t41.5 17h88v153q0 31 22 52.5t54 21.5q30 0 52 -22t22 -52v-153h282q25 0 42.5 -17.5t17.5 -40.5q0 -25 -17.5 -43t-42.5 -18h-282v-496q0 -101 38 -149.5t130 -48.5q44 0 82.5 16.5t65.5 33.5t42 17q26 0 40.5 -16.5t14.5 -42.5q0 -58 -98 -103 q-80 -36 -174 -36q-153 0 -222 85t-69 230v510h-88q-25 0 -42 18t-17 43zM629 1323q0 38 24.5 64t71.5 26q55 0 85 -36.5t30 -100.5q0 -89 -63 -154t-113 -65q-13 0 -22 8t-9 20q0 17 17.5 33t34.5 35.5t17 44.5q0 17 -11.5 30.5t-25 21t-25 26.5t-11.5 47z" />
<glyph unicode="&#x16a;" horiz-adv-x="1478" d="M150 551v782q0 33 24 56.5t57 23.5q35 0 58.5 -23.5t23.5 -56.5v-762q0 -202 105 -319q113 -125 319 -125q211 0 324 125q104 116 104 319v762q0 33 23.5 56.5t58.5 23.5q34 0 58 -24t24 -56v-782q0 -248 -135 -395q-156 -176 -455 -176q-298 0 -454 176 q-135 147 -135 395zM465 1804q0 25 18 43.5t43 18.5h422q26 0 44 -18.5t18 -43.5q0 -26 -18 -43.5t-44 -17.5h-422q-25 0 -43 17.5t-18 43.5z" />
<glyph unicode="&#x16b;" horiz-adv-x="1118" d="M133 391v479q0 31 22 51.5t54 20.5q31 0 52.5 -20.5t21.5 -51.5v-467q0 -111 39 -180q28 -50 88.5 -80t148.5 -30t149 30t89 80q37 65 37 180v467q0 30 22 51t53 21t53.5 -21t22.5 -51v-479q0 -158 -70 -262q-47 -72 -139 -110.5t-217 -38.5q-256 0 -358 149 q-68 106 -68 262zM287 1348q0 25 18 43t43 18h422q26 0 43.5 -18t17.5 -43q0 -26 -17.5 -44t-43.5 -18h-422q-25 0 -43 18t-18 44z" />
<glyph unicode="&#x16e;" horiz-adv-x="1478" d="M150 551v782q0 33 24 56.5t57 23.5q35 0 58.5 -23.5t23.5 -56.5v-762q0 -202 105 -319q113 -125 319 -125q211 0 324 125q104 116 104 319v762q0 33 23.5 56.5t58.5 23.5q34 0 58 -24t24 -56v-782q0 -248 -135 -395q-156 -176 -455 -176q-298 0 -454 176 q-135 147 -135 395zM500 1765q0 98 69.5 168t167.5 70t167 -70t69 -168q0 -99 -68.5 -168t-167.5 -69t-168 69t-69 168zM575 1765q0 -69 47 -116t115 -47t115 47t47 116q0 68 -47.5 116t-114.5 48t-114.5 -48t-47.5 -116z" />
<glyph unicode="&#x16f;" horiz-adv-x="1118" d="M133 391v479q0 31 22 51.5t54 20.5q31 0 52.5 -20.5t21.5 -51.5v-467q0 -111 39 -180q28 -50 88.5 -80t148.5 -30t149 30t89 80q37 65 37 180v467q0 30 22 51t53 21t53.5 -21t22.5 -51v-479q0 -158 -70 -262q-47 -72 -139 -110.5t-217 -38.5q-256 0 -358 149 q-68 106 -68 262zM322 1356q0 98 69.5 167.5t167.5 69.5t167 -69.5t69 -167.5q0 -100 -69 -169t-167 -69q-99 0 -168 69t-69 169zM397 1356q0 -69 47 -116.5t115 -47.5t115 47.5t47 116.5q0 68 -47.5 116t-114.5 48t-114.5 -48t-47.5 -116z" />
<glyph unicode="&#x170;" horiz-adv-x="1478" d="M150 551v782q0 33 24 56.5t57 23.5q35 0 58.5 -23.5t23.5 -56.5v-762q0 -202 105 -319q113 -125 319 -125q211 0 324 125q104 116 104 319v762q0 33 23.5 56.5t58.5 23.5q34 0 58 -24t24 -56v-782q0 -248 -135 -395q-156 -176 -455 -176q-298 0 -454 176 q-135 147 -135 395zM406 1626q0 18 12 39l155 283q21 43 60 43q25 0 43 -17.5t18 -40.5q0 -15 -18 -45l-166 -274q-23 -37 -53 -37q-21 0 -36 14t-15 35zM784 1626q0 16 13 39l155 283q21 43 58 43q26 0 43.5 -17t17.5 -41q0 -18 -16 -45l-166 -274q-23 -37 -53 -37 q-21 0 -36.5 14t-15.5 35z" />
<glyph unicode="&#x171;" horiz-adv-x="1118" d="M133 391v479q0 31 22 51.5t54 20.5q31 0 52.5 -20.5t21.5 -51.5v-467q0 -111 39 -180q28 -50 88.5 -80t148.5 -30t149 30t89 80q37 65 37 180v467q0 30 22 51t53 21t53.5 -21t22.5 -51v-479q0 -158 -70 -262q-47 -72 -139 -110.5t-217 -38.5q-256 0 -358 149 q-68 106 -68 262zM256 1212q0 18 12 39l156 283q21 43 59 43q25 0 43.5 -17t18.5 -40q0 -13 -19 -45l-166 -275q-23 -37 -53 -37q-21 0 -36 14t-15 35zM635 1212q0 18 12 39l156 283q21 43 57 43q26 0 44 -17t18 -40q0 -17 -17 -45l-166 -275q-23 -37 -53 -37q-21 0 -36 14 t-15 35z" />
<glyph unicode="&#x172;" horiz-adv-x="1478" d="M150 551v782q0 33 24 56.5t57 23.5q35 0 58.5 -23.5t23.5 -56.5v-762q0 -202 105 -319q113 -125 319 -125q211 0 324 125q104 116 104 319v762q0 33 23.5 56.5t58.5 23.5q34 0 58 -24t24 -56v-782q0 -248 -135 -395q-146 -162 -416 -174q-35 -83 -35 -160q0 -23 5 -41.5 t19.5 -37.5t47 -29.5t80.5 -10.5q30 0 61 7t39 7q45 0 45 -45q0 -43 -47 -57q-52 -18 -108 -18q-244 0 -244 190q0 77 49 195q-265 15 -405 174q-135 147 -135 395z" />
<glyph unicode="&#x173;" horiz-adv-x="1118" d="M133 391v479q0 31 22 51.5t54 20.5q31 0 52.5 -20.5t21.5 -51.5v-475q0 -106 39 -180q65 -111 237 -111q88 0 148 30.5t90 80.5q37 70 37 180v475q0 30 22 51t53 21t53.5 -21t22.5 -51v-479q0 -158 -70 -262q-43 -66 -123.5 -103.5t-189.5 -43.5q-37 -87 -37 -160 q0 -23 5 -41.5t19.5 -37.5t47 -29.5t80.5 -10.5q31 0 62.5 7t37.5 7q45 0 45 -45q0 -43 -47 -57q-52 -18 -108 -18q-242 0 -242 190q0 81 49 195q-109 6 -189.5 43.5t-123.5 103.5q-68 106 -68 262z" />
<glyph unicode="&#x174;" horiz-adv-x="2197" d="M150 508v825q0 33 24 56.5t57 23.5q35 0 58.5 -23.5t23.5 -56.5v-825q0 -179 86 -275q94 -102 269 -102q138 0 225 84q123 113 123 326v792q0 32 24 56t58 24q35 0 58.5 -23.5t23.5 -56.5v-792q0 -211 125 -326q87 -84 225 -84q175 0 266 102q88 94 88 275v825 q0 33 23.5 56.5t58.5 23.5q34 0 58 -24t24 -56v-825q0 -244 -127 -381q-70 -75 -171.5 -111t-215.5 -36q-147 0 -258 71q-118 72 -178 223q-56 -150 -176 -223q-111 -71 -258 -71q-249 0 -388 147q-126 136 -126 381zM770 1659q0 20 25 45l254 260q25 25 47 25q24 0 49 -25 l252 -260q26 -30 26 -45q0 -25 -16 -40t-39 -15t-39 16l-233 240l-232 -240q-16 -16 -39 -16q-24 0 -39.5 14.5t-15.5 40.5z" />
<glyph unicode="&#x175;" horiz-adv-x="1630" d="M133 391v479q0 31 22 52.5t54 21.5q31 0 52.5 -21.5t21.5 -52.5v-471q0 -117 34 -184q51 -100 191 -100q146 0 199 110q32 63 32 178v467q0 31 22.5 52.5t53.5 21.5t53.5 -21.5t22.5 -52.5v-467q0 -112 31 -178q50 -110 200 -110q136 0 191 98q35 69 35 186v471 q0 31 21 52.5t52 21.5t53.5 -21.5t22.5 -52.5v-479q0 -161 -55 -262q-41 -72 -120 -110.5t-187 -38.5q-176 0 -265 110q-39 49 -55 84q-19 -41 -55 -84q-92 -110 -262 -110q-109 0 -188.5 39t-121.5 112q-55 96 -55 260zM485 1245q0 20 25 45l254 260q25 25 47 25 q24 0 49 -25l252 -260q27 -31 27 -45q0 -25 -16.5 -40t-39.5 -15t-39 16l-233 240l-231 -240q-16 -16 -39 -16q-24 0 -40 15t-16 40z" />
<glyph unicode="&#x176;" horiz-adv-x="1169" d="M8 1335q0 34 23 56t57 22q44 0 72 -41l424 -596l426 596q28 41 71 41q34 0 57 -23t23 -55q0 -28 -16 -57l-479 -666v-553q0 -32 -24 -55.5t-58 -23.5t-58 23.5t-24 55.5v553l-475 668q-19 30 -19 55zM256 1659q0 20 25 45l254 260q25 25 47 25q24 0 49 -25l252 -260 q26 -30 26 -45q0 -25 -16 -40t-39 -15t-39 16l-233 240l-232 -240q-16 -16 -39 -16q-24 0 -39.5 14.5t-15.5 40.5z" />
<glyph unicode="&#x177;" horiz-adv-x="1138" d="M133 373v497q0 30 22.5 51t53.5 21t52.5 -20.5t21.5 -51.5v-458q0 -172 75 -242q60 -57 183 -57q159 0 239 123q56 89 56 231v403q0 30 22 51t53 21t52.5 -20.5t21.5 -51.5v-888q0 -202 -96 -318q-58 -68 -148 -102.5t-194 -34.5q-145 0 -264 45q-64 24 -88.5 44 t-24.5 52q0 27 18.5 46.5t47.5 19.5q16 0 33.5 -6t49 -20t54.5 -23q83 -31 172 -31q67 0 126.5 22.5t96.5 65.5t52.5 98t15.5 135v166q-53 -85 -132 -123t-194 -38q-175 0 -270 88q-107 96 -107 305zM242 1245q0 21 24 45l254 260q25 25 47 25q24 0 49 -25l252 -260 q27 -31 27 -45q0 -25 -16 -40t-39 -15t-39 16l-234 240l-231 -240q-16 -16 -39 -16q-24 0 -39.5 14.5t-15.5 40.5z" />
<glyph unicode="&#x178;" horiz-adv-x="1157" d="M2 1335q0 34 23 56t57 22q44 0 72 -41l424 -596l426 596q28 41 71 41q34 0 57 -23t23 -55q0 -28 -16 -57l-480 -666v-553q0 -32 -23.5 -55.5t-57.5 -23.5t-58 23.5t-24 55.5v553l-476 668q-18 29 -18 55zM295 1831q0 37 26.5 62.5t63.5 25.5q38 0 64 -25.5t26 -62.5 q0 -38 -26 -65t-64 -27q-37 0 -63.5 27t-26.5 65zM680 1831q0 37 26.5 62.5t63.5 25.5t63.5 -25.5t26.5 -62.5q0 -38 -26.5 -65t-63.5 -27t-63.5 27t-26.5 65z" />
<glyph unicode="&#x179;" horiz-adv-x="1134" d="M16 1323q0 28 20.5 50t49.5 22h911q30 0 51 -22t21 -50q0 -27 -14 -47l-787 -1131h772q29 0 50.5 -22t21.5 -51t-21.5 -50.5t-50.5 -21.5h-921q-29 0 -50.5 21.5t-21.5 50.5q0 24 19 51l784 1126h-764q-29 0 -49.5 21.5t-20.5 52.5zM422 1626q0 18 12 39l156 283 q21 43 57 43q26 0 44 -17t18 -41q0 -17 -17 -45l-166 -274q-23 -37 -53 -37q-21 0 -36 14t-15 35z" />
<glyph unicode="&#x17a;" horiz-adv-x="808" d="M10 860q0 26 19 46t45 20h643q28 0 45.5 -16.5t17.5 -41.5q0 -27 -28 -67l-516 -670h503q26 0 45 -19.5t19 -45.5q0 -28 -19 -47t-45 -19h-647q-28 0 -45.5 16t-17.5 43q0 30 26 62l518 674h-499q-26 0 -45 18.5t-19 46.5zM266 1212q0 16 13 39l155 283q21 43 58 43 q26 0 43.5 -16.5t17.5 -40.5q0 -18 -16 -45l-166 -275q-23 -37 -54 -37q-21 0 -36 14t-15 35z" />
<glyph unicode="&#x17b;" horiz-adv-x="1134" d="M16 1323q0 28 20.5 50t49.5 22h911q30 0 51 -22t21 -50q0 -27 -14 -47l-787 -1131h772q29 0 50.5 -22t21.5 -51t-21.5 -50.5t-50.5 -21.5h-921q-29 0 -50.5 21.5t-21.5 50.5q0 24 19 51l784 1126h-764q-29 0 -49.5 21.5t-20.5 52.5zM475 1792q0 37 26.5 62.5t63.5 25.5 t63.5 -25.5t26.5 -62.5q0 -38 -26.5 -64t-63.5 -26t-63.5 26t-26.5 64z" />
<glyph unicode="&#x17c;" horiz-adv-x="808" d="M10 860q0 26 19 46t45 20h643q28 0 45.5 -16.5t17.5 -41.5q0 -27 -28 -67l-516 -670h503q26 0 45 -19.5t19 -45.5q0 -28 -19 -47t-45 -19h-647q-28 0 -45.5 16t-17.5 43q0 30 26 62l518 674h-499q-26 0 -45 18.5t-19 46.5zM315 1368q0 36 27 62t64 26t63.5 -25.5 t26.5 -62.5q0 -38 -26.5 -64t-63.5 -26t-64 26t-27 64z" />
<glyph unicode="&#x17d;" horiz-adv-x="1134" d="M16 1323q0 28 20.5 50t49.5 22h911q30 0 51 -22t21 -50q0 -27 -14 -47l-787 -1131h772q29 0 50.5 -22t21.5 -51t-21.5 -50.5t-50.5 -21.5h-921q-29 0 -50.5 21.5t-21.5 50.5q0 24 19 51l784 1126h-764q-29 0 -49.5 21.5t-20.5 52.5zM238 1933q0 25 16 40.5t39 15.5 q26 0 45 -23l225 -233l228 233q19 23 45 23q22 0 38.5 -16t16.5 -40q0 -20 -27 -47l-252 -260q-22 -22 -49 -22q-25 0 -47 22l-254 260q-24 24 -24 47z" />
<glyph unicode="&#x17e;" horiz-adv-x="808" d="M10 860q0 26 19 46t45 20h643q28 0 45.5 -16.5t17.5 -41.5q0 -27 -28 -67l-516 -670h503q26 0 45 -19.5t19 -45.5q0 -28 -19 -47t-45 -19h-647q-28 0 -45.5 16t-17.5 43q0 30 26 62l518 674h-499q-26 0 -45 18.5t-19 46.5zM80 1520q0 24 15.5 39.5t39.5 15.5q26 0 45 -23 l226 -233l227 233q19 23 45 23q22 0 38.5 -15.5t16.5 -39.5q0 -21 -26 -47l-252 -261q-22 -22 -49 -22q-26 0 -48 22l-254 261q-24 24 -24 47z" />
<glyph unicode="&#x192;" d="M-53 -410q0 26 18 43t45 17q9 0 45 -12q33 -11 72 -11q83 0 127.5 50.5t64.5 154.5l175 977h-97q-23 0 -39 16t-16 41q0 24 16 41t39 17h117l33 176q58 313 317 313q117 0 189 -41q55 -30 55 -74q0 -26 -18.5 -42.5t-45.5 -16.5q-6 0 -13 2t-12 4.5t-15 8t-15 8.5 q-54 26 -112 26q-85 0 -126 -49t-61 -152l-28 -163h251q23 0 39.5 -17.5t16.5 -40.5q0 -24 -16.5 -40.5t-39.5 -16.5h-272l-176 -989q-58 -318 -336 -318q-59 0 -115 17q-67 25 -67 71z" />
<glyph unicode="&#x218;" horiz-adv-x="1138" d="M88 172q0 35 23 57.5t57 22.5q15 0 31.5 -9.5t48.5 -29.5t69 -37q112 -55 246 -55q159 0 239.5 71.5t80.5 186.5q0 137 -176 213q-50 22 -187.5 62.5t-218.5 80.5q-207 101 -207 307q0 174 128 272.5t366 98.5q185 0 319 -59q94 -38 94 -97q0 -33 -21 -54t-56 -21 q-16 0 -35.5 8t-49.5 22t-55 23q-105 37 -204 37q-157 0 -235.5 -57.5t-78.5 -167.5q0 -73 51.5 -122t149.5 -85q50 -18 133 -41t152.5 -46.5t126.5 -56.5q180 -107 180 -303q0 -193 -136 -303t-360 -110q-103 0 -212 28.5t-185 69.5q-78 44 -78 94zM473 -215q0 38 24.5 64 t71.5 26q55 0 85 -36.5t30 -100.5q0 -89 -63 -154t-113 -65q-13 0 -22 8t-9 20q0 17 17.5 33t35 35.5t17.5 44.5q0 14 -7.5 25t-18.5 18.5t-22 17t-18.5 25.5t-7.5 39z" />
<glyph unicode="&#x219;" horiz-adv-x="825" d="M74 123q0 25 16.5 42t42.5 17q29 0 82 -30q88 -52 191 -52q192 0 192 140q0 53 -32.5 84.5t-98.5 60.5q-26 12 -104.5 39.5t-118.5 46.5q-152 71 -152 223q0 118 88 184t250 66q125 0 213 -31q86 -29 86 -82q0 -25 -16 -41t-41 -16q-26 0 -96.5 22.5t-139.5 22.5 q-188 0 -188 -125q0 -46 28.5 -73.5t83.5 -51.5q31 -14 111 -41.5t113 -44.5q170 -80 170 -231q0 -126 -92.5 -199t-249.5 -73q-150 0 -260 51q-34 16 -56 40t-22 52zM322 -215q0 38 24.5 64t71.5 26q55 0 84.5 -36.5t29.5 -100.5q0 -89 -63 -154t-113 -65q-13 0 -21.5 8 t-8.5 20q0 13 11 26.5t23.5 23t23.5 26.5t11 37q0 17 -11.5 30.5t-25 21t-25 26.5t-11.5 47z" />
<glyph unicode="&#x21a;" horiz-adv-x="1155" d="M0 1323q0 30 21 51t51 21h1013q29 0 49.5 -21.5t20.5 -50.5q0 -31 -20.5 -52.5t-49.5 -21.5h-426v-1190q0 -32 -23.5 -55.5t-57.5 -23.5t-58 23.5t-24 55.5v1190h-424q-31 0 -51.5 21.5t-20.5 52.5zM473 -215q0 38 24.5 64t71.5 26q55 0 85 -36.5t30 -100.5 q0 -89 -63 -154t-113 -65q-13 0 -22 8t-9 20q0 17 17.5 33t35 35.5t17.5 44.5q0 14 -7.5 25t-18.5 18.5t-22 17t-18.5 25.5t-7.5 39z" />
<glyph unicode="&#x21b;" horiz-adv-x="722" d="M29 866q0 24 17.5 41t41.5 17h88v153q0 31 22 52.5t54 21.5q30 0 52 -22t22 -52v-153h282q25 0 42.5 -17.5t17.5 -40.5q0 -25 -17.5 -43t-42.5 -18h-282v-496q0 -101 38 -149.5t130 -48.5q44 0 82.5 16.5t65.5 33.5t42 17q26 0 40.5 -16.5t14.5 -42.5q0 -58 -98 -103 q-80 -36 -174 -36q-153 0 -222 85t-69 230v510h-88q-25 0 -42 18t-17 43zM373 -215q0 38 24.5 64t71.5 26q55 0 85 -36.5t30 -100.5q0 -89 -63 -154t-113 -65q-13 0 -22 8t-9 20q0 17 17.5 33t34.5 35.5t17 44.5q0 17 -11.5 30.5t-25 21t-25 26.5t-11.5 47z" />
<glyph unicode="&#x2c6;" horiz-adv-x="854" d="M100 1245q0 20 25 45l254 260q25 25 47 25q24 0 49 -25l252 -260q27 -31 27 -45q0 -25 -16.5 -40t-39.5 -15t-39 16l-233 240l-231 -240q-16 -16 -39 -16q-24 0 -40 15t-16 40z" />
<glyph unicode="&#x2c7;" horiz-adv-x="854" d="M100 1520q0 24 16 39.5t40 15.5q26 0 45 -23l225 -233l227 233q19 23 45 23q23 0 39.5 -15.5t16.5 -39.5q0 -20 -27 -47l-252 -261q-22 -22 -49 -22q-25 0 -47 22l-254 261q-25 25 -25 47z" />
<glyph unicode="&#x2d8;" horiz-adv-x="854" d="M129 1430q0 23 16.5 38t40.5 15q19 0 37 -17.5t36 -43t39 -51t54 -43t74 -17.5t74 17.5t54 43t39 51t36 43t37 17.5q24 0 40.5 -15t16.5 -38q0 -37 -61 -111q-95 -119 -236 -119t-236 119q-61 74 -61 111z" />
<glyph unicode="&#x2d9;" horiz-adv-x="854" d="M336 1368q0 37 26.5 62.5t63.5 25.5t63.5 -25.5t26.5 -62.5q0 -38 -26.5 -64t-63.5 -26t-63.5 26t-26.5 64z" />
<glyph unicode="&#x2da;" horiz-adv-x="854" d="M188 1356q0 98 70 167.5t168 69.5t167 -69.5t69 -167.5q0 -100 -69 -169t-167 -69q-99 0 -168.5 69.5t-69.5 168.5zM264 1356q0 -69 47 -116.5t115 -47.5t115 47.5t47 116.5q0 68 -47.5 116t-114.5 48t-114.5 -48t-47.5 -116z" />
<glyph unicode="&#x2db;" horiz-adv-x="854" d="M244 -213q0 90 73 233h84q-57 -131 -57 -198q0 -23 5 -41.5t20 -37.5t47.5 -29.5t81.5 -10.5q30 0 61 7t39 7q21 0 33 -12t12 -33q0 -42 -47 -57q-52 -18 -109 -18q-243 0 -243 190z" />
<glyph unicode="&#x2dc;" horiz-adv-x="854" d="M88 1331q0 41 45 86q57 60 143 60q80 0 162 -54q7 -4 25 -16.5t26.5 -17.5t22.5 -12t26.5 -10t26.5 -3q28 0 50.5 14.5t34.5 31.5t28.5 31.5t34.5 14.5q23 0 36 -15.5t13 -39.5q0 -43 -43 -86q-55 -58 -144 -58q-74 0 -161 56q-6 4 -20.5 13.5t-21 13l-19.5 10.5 t-21.5 10t-20.5 5.5t-24 2.5q-29 0 -51.5 -14t-33.5 -31t-27.5 -31t-35.5 -14q-23 0 -37 15t-14 38z" />
<glyph unicode="&#x2dd;" horiz-adv-x="854" d="M92 1212q0 18 12 39l156 283q21 43 59 43q25 0 43.5 -17t18.5 -40q0 -13 -19 -45l-165 -275q-23 -37 -54 -37q-21 0 -36 14t-15 35zM471 1212q0 18 12 39l156 283q21 43 57 43q26 0 44 -17t18 -40q0 -17 -17 -45l-166 -275q-23 -37 -53 -37q-21 0 -36 14t-15 35z" />
<glyph unicode="&#x3c0;" horiz-adv-x="1200" d="M72 860q0 27 18.5 46.5t44.5 19.5h932q26 0 43.5 -19.5t17.5 -46.5q0 -28 -17.5 -46.5t-43.5 -18.5h-131v-496q0 -112 47 -174q11 -14 29 -32t25 -28.5t7 -23.5q0 -61 -75 -61q-51 0 -99 51q-82 89 -82 248v516h-382l-44 -529q-7 -86 -30.5 -141t-65.5 -94 q-54 -51 -102 -51q-34 0 -57 15t-23 46q0 9 4.5 17.5t9 13.5t17 16.5t18.5 17.5q38 36 58 79t26 116l39 494h-121q-26 0 -44.5 18.5t-18.5 46.5z" />
<glyph unicode="&#x401;" horiz-adv-x="1232" d="M154 80v1235q0 33 23.5 56.5t58.5 23.5h862q29 0 49 -21t20 -51q0 -31 -20 -52.5t-49 -21.5h-781v-477h674q30 0 51 -22t21 -52t-20.5 -50.5t-51.5 -20.5h-674v-482h781q29 0 49 -21t20 -52q0 -30 -20 -51t-49 -21h-862q-35 0 -58.5 23.5t-23.5 56.5zM334 1782 q0 37 26.5 62.5t63.5 25.5q38 0 64 -25.5t26 -62.5q0 -38 -26 -65t-64 -27q-37 0 -63.5 27t-26.5 65zM719 1782q0 37 26.5 62.5t63.5 25.5t63.5 -25.5t26.5 -62.5q0 -38 -26.5 -65t-63.5 -27t-63.5 27t-26.5 65z" />
<glyph unicode="&#x402;" horiz-adv-x="1531" d="M-12 1323q0 29 21 50.5t50 21.5h1014q29 0 50.5 -21.5t21.5 -50.5q0 -31 -21.5 -52.5t-50.5 -21.5h-424v-495q47 87 123 133q91 55 221 55q181 0 281 -86q125 -104 125 -338v-49q0 -254 -99 -383q-33 -45 -83.5 -75.5t-104.5 -30.5q-37 0 -58.5 18.5t-21.5 48.5 q0 22 15 36t49 33.5t57 39.5q44 38 70 111t26 167v60q0 179 -82 258q-67 67 -202 67q-177 0 -258 -125q-58 -86 -58 -205v-430q0 -32 -24.5 -55.5t-57.5 -23.5q-35 0 -58.5 23t-23.5 56v1190h-426q-29 0 -50 21.5t-21 52.5z" />
<glyph unicode="&#x403;" horiz-adv-x="1091" d="M154 59v1256q0 33 23.5 56.5t58.5 23.5h749q29 0 49.5 -21.5t20.5 -50.5q0 -31 -20.5 -52.5t-49.5 -21.5h-668v-1190q0 -32 -23.5 -55.5t-57.5 -23.5q-35 0 -58.5 23t-23.5 56zM416 1626q0 18 12 39l156 283q21 43 57 43q26 0 43.5 -17t17.5 -41q0 -18 -16 -45l-166 -274 q-23 -37 -53 -37q-21 0 -36 14t-15 35z" />
<glyph unicode="&#x404;" horiz-adv-x="1349" d="M96 698q0 147 61 280.5t167 233.5q100 95 229.5 148t271.5 53q188 0 342 -70q99 -42 99 -100q0 -33 -21.5 -54.5t-54.5 -21.5q-14 0 -33.5 10t-52 27t-66.5 29q-97 33 -215 33q-213 0 -374 -154q-70 -67 -114.5 -156t-53.5 -186h747q30 0 51 -21t21 -51t-21 -50.5 t-51 -20.5h-749q21 -225 178 -363q153 -137 366 -137q114 0 217 35q46 15 95 41t65 26q31 0 53.5 -21.5t22.5 -53.5q0 -59 -100 -103q-152 -71 -351 -71q-141 0 -268 46.5t-225 131.5q-111 99 -173.5 236t-62.5 304z" />
<glyph unicode="&#x405;" horiz-adv-x="1138" d="M88 172q0 35 23 57.5t57 22.5q15 0 31.5 -9.5t48.5 -29.5t69 -37q112 -55 246 -55q159 0 239.5 71.5t80.5 186.5q0 137 -176 213q-48 21 -186 62.5t-220 80.5q-207 101 -207 307q0 173 128 271t366 98q192 0 319 -59q94 -38 94 -97q0 -32 -21.5 -53.5t-55.5 -21.5 q-16 0 -35.5 8t-49.5 22t-55 23q-105 37 -204 37q-156 0 -235 -58t-79 -168q0 -73 51 -121.5t150 -84.5q10 -4 172.5 -52t239.5 -92q180 -103 180 -301q0 -193 -136 -303t-360 -110q-105 0 -212.5 28.5t-184.5 71.5q-78 33 -78 92z" />
<glyph unicode="&#x406;" horiz-adv-x="471" d="M154 59v1274q0 32 24 56t58 24t57.5 -23.5t23.5 -56.5v-1274q0 -32 -23.5 -55.5t-57.5 -23.5t-58 23.5t-24 55.5z" />
<glyph unicode="&#x407;" horiz-adv-x="471" d="M-43 1782q0 37 26.5 62.5t63.5 25.5q38 0 64 -25.5t26 -62.5q0 -38 -26 -65t-64 -27q-37 0 -63.5 27t-26.5 65zM154 59v1274q0 32 24 56t58 24t57.5 -23.5t23.5 -56.5v-1274q0 -32 -23.5 -55.5t-57.5 -23.5t-58 23.5t-24 55.5zM342 1782q0 37 26.5 62.5t63.5 25.5 t63.5 -25.5t26.5 -62.5q0 -38 -26.5 -65t-63.5 -27t-63.5 27t-26.5 65z" />
<glyph unicode="&#x408;" horiz-adv-x="1062" d="M20 168q0 32 22 54t54 22q27 0 56 -25q105 -94 235 -94q160 0 256 96t96 293v819q0 32 24 56t58 24q35 0 58.5 -23.5t23.5 -56.5v-821q0 -267 -149 -403q-144 -129 -365 -129q-88 0 -176.5 30.5t-157.5 87.5q-35 32 -35 70z" />
<glyph unicode="&#x409;" horiz-adv-x="2232" d="M39 61q0 23 17.5 51t47 74t48.5 99q54 146 73 331.5t19 434.5v264q0 33 23.5 56.5t58.5 23.5h845q35 0 58.5 -23.5t23.5 -56.5v-539h387q75 0 140.5 -9.5t132.5 -35.5t114 -68t77 -111.5t30 -160.5q0 -84 -27 -151.5t-72 -111.5t-107.5 -73.5t-130.5 -42t-144 -12.5h-482 q-33 0 -57 24t-24 56v1169h-682v-198q0 -609 -134 -899q-46 -100 -79 -136t-74 -36q-34 0 -58 23t-24 58zM1253 135h387q148 0 238 64.5t90 191.5q0 124 -89 188t-249 64h-377v-508z" />
<glyph unicode="&#x40a;" horiz-adv-x="2297" d="M154 59v1274q0 32 24 56t58 24t57.5 -23.5t23.5 -56.5v-559h838v561q0 33 23.5 55.5t58.5 22.5q34 0 58 -23t24 -55v-559h385q75 0 140.5 -9.5t132.5 -35.5t114 -68t77 -111.5t30 -160.5q0 -104 -40 -182t-109.5 -122.5t-152.5 -65.5t-180 -21h-479q-35 0 -58.5 23.5 t-23.5 56.5v563h-838v-584q0 -32 -23.5 -55.5t-57.5 -23.5t-58 23.5t-24 55.5zM1319 135h385q148 0 238 64.5t90 191.5q0 124 -89 188t-249 64h-375v-508z" />
<glyph unicode="&#x40b;" horiz-adv-x="1531" d="M-12 1323q0 29 21 50.5t50 21.5h1014q29 0 50.5 -21.5t21.5 -50.5q0 -31 -21.5 -52.5t-50.5 -21.5h-424v-495q47 87 123 133q91 55 221 55q181 0 281 -86q125 -104 125 -338v-465q0 -30 -22 -51.5t-52 -21.5q-32 0 -54 21t-22 52v441q0 179 -82 258q-67 67 -202 67 q-177 0 -258 -125q-58 -86 -58 -205v-430q0 -32 -24.5 -55.5t-57.5 -23.5q-35 0 -58.5 23t-23.5 56v1190h-426q-29 0 -50 21.5t-21 52.5z" />
<glyph unicode="&#x40c;" horiz-adv-x="1222" d="M154 59v1276q0 32 24 55t58 23t57.5 -23t23.5 -55v-563h150l534 606q31 35 70 35q32 0 54 -23t22 -57q0 -27 -25 -55l-518 -569l535 -592q22 -26 22 -60q0 -33 -21.5 -55t-56.5 -22q-23 0 -39.5 10t-37.5 33l-535 604h-154v-568q0 -32 -23.5 -55.5t-57.5 -23.5t-58 23.5 t-24 55.5zM467 1675q0 18 12 39l156 283q21 43 57 43q26 0 44 -17t18 -41q0 -17 -17 -45l-166 -274q-23 -37 -53 -37q-21 0 -36 14t-15 35z" />
<glyph unicode="&#x40e;" horiz-adv-x="1155" d="M20 1333q0 33 23.5 56.5t56.5 23.5q31 0 50 -13.5t34 -45.5l412 -803l385 803q26 59 84 59q31 0 54.5 -22.5t23.5 -55.5q0 -21 -15 -51l-415 -868q-101 -216 -235 -326t-324 -110q-40 0 -62 19.5t-22 51.5q0 31 21.5 51.5t58.5 20.5q84 0 151.5 32t115 83t95.5 133 l-477 911q-15 30 -15 51zM279 1874q0 23 16.5 38t40.5 15q19 0 37 -17.5t35.5 -43t38.5 -51t54 -43t74 -17.5t74 17.5t54 43t39 51t36 43t37 17.5q24 0 40.5 -15t16.5 -38q0 -37 -61 -111q-94 -118 -236 -118q-141 0 -235 118q-61 74 -61 111z" />
<glyph unicode="&#x40f;" horiz-adv-x="1443" d="M154 80v1255q0 32 24 55t58 23t57.5 -23t23.5 -55v-1190h809v1190q0 33 23.5 55.5t58.5 22.5t58.5 -22.5t23.5 -55.5v-1255q0 -33 -23.5 -56.5t-58.5 -23.5h-405v-420q0 -33 -23.5 -56.5t-58.5 -23.5q-34 0 -58 24t-24 56v420h-403q-34 0 -58 24t-24 56z" />
<glyph unicode="&#x410;" horiz-adv-x="1263" d="M16 55q0 13 13 43l491 1231q32 84 113 84q83 0 115 -84l489 -1231q10 -20 10 -43q0 -35 -23 -55t-59 -20q-61 0 -82 59l-120 305h-662l-125 -305q-22 -59 -82 -59q-36 0 -57 21.5t-21 53.5zM342 477h578l-289 725z" />
<glyph unicode="&#x411;" horiz-adv-x="1296" d="M154 80v1235q0 33 23.5 56.5t58.5 23.5h813q29 0 49 -21t20 -51q0 -31 -20 -52.5t-49 -21.5h-732v-473h385q75 0 140.5 -9.5t132.5 -35.5t114 -68t77 -111.5t30 -160.5q0 -104 -40 -182t-109 -122.5t-151.5 -65.5t-178.5 -21h-481q-35 0 -58.5 23.5t-23.5 56.5zM317 135 h385q148 0 238 64.5t90 191.5q0 124 -89 188t-249 64h-375v-508z" />
<glyph unicode="&#x412;" horiz-adv-x="1296" d="M154 80v1235q0 33 23.5 56.5t58.5 23.5h421q83 0 157.5 -21.5t135 -64t96 -112t35.5 -157.5q0 -114 -48.5 -191.5t-133.5 -115.5v-4q145 -29 221 -123t76 -233q0 -94 -38.5 -167.5t-104 -117t-146.5 -66t-172 -22.5h-499q-35 0 -58.5 23.5t-23.5 56.5zM317 135h385 q67 0 122.5 12.5t103.5 40.5t75 79.5t27 123.5q0 109 -76 180.5t-221 71.5h-416v-508zM317 776h342q112 0 185.5 60t73.5 186q0 116 -81.5 178t-203.5 62h-316v-486z" />
<glyph unicode="&#x413;" horiz-adv-x="1091" d="M154 59v1256q0 33 23.5 56.5t58.5 23.5h749q29 0 49.5 -21.5t20.5 -50.5q0 -31 -20.5 -52.5t-49.5 -21.5h-668v-1190q0 -32 -23.5 -55.5t-57.5 -23.5q-35 0 -58.5 23t-23.5 56z" />
<glyph unicode="&#x414;" horiz-adv-x="1542" d="M37 68q0 32 23.5 54.5t58.5 22.5h127q53 88 87 198.5t48 240t17.5 229t2.5 238.5v264q0 32 24 56t58 24h723q34 0 58 -24t24 -56v-1170h135q34 0 58 -22.5t24 -54.5v-476q0 -32 -24 -55.5t-58 -23.5q-35 0 -58.5 23t-23.5 56v408h-1140v-408q0 -32 -24 -55.5t-58 -23.5 q-35 0 -58.5 23t-23.5 56v476zM414 145h710v1104h-559v-198q0 -138 -4 -238t-18 -228t-46.5 -238.5t-82.5 -201.5z" />
<glyph unicode="&#x415;" horiz-adv-x="1232" d="M154 80v1235q0 33 23.5 56.5t58.5 23.5h862q29 0 49 -21t20 -51q0 -31 -20 -52.5t-49 -21.5h-781v-477h674q30 0 51 -22t21 -52t-20.5 -50.5t-51.5 -20.5h-674v-482h781q29 0 49 -21t20 -52q0 -30 -20 -51t-49 -21h-862q-35 0 -58.5 23.5t-23.5 56.5z" />
<glyph unicode="&#x416;" horiz-adv-x="1957" d="M51 57q0 35 25 60l534 592l-518 569q-24 24 -24 55q0 34 21 57t54 23q41 0 68 -35l537 -606h149v563q0 32 24 55t58 23t58 -23t24 -55v-563h149l535 606q31 35 70 35q32 0 53.5 -23t21.5 -57q0 -28 -24 -55l-518 -569l534 -592q23 -27 23 -60t-21.5 -55t-56.5 -22 q-38 0 -78 43l-535 604h-153v-568q0 -32 -24 -55.5t-58 -23.5t-58 23.5t-24 55.5v568h-154l-534 -604q-40 -43 -80 -43q-33 0 -55.5 22t-22.5 55z" />
<glyph unicode="&#x417;" horiz-adv-x="1042" d="M80 123q0 28 20 47.5t50 19.5q21 0 66 -21t65 -28q81 -30 182 -30q148 0 236.5 75t88.5 199q0 181 -178 244q-65 22 -161 22h-164q-27 0 -46.5 19.5t-19.5 46.5q0 28 19.5 46.5t46.5 18.5h147q105 0 174 31q135 59 135 213q0 105 -73.5 176.5t-194.5 71.5q-98 0 -182 -41 q-21 -10 -47.5 -24.5t-41 -20.5t-28.5 -6q-31 0 -51.5 20t-20.5 49q0 33 26.5 55t76.5 46q125 61 276 61q186 0 298 -104.5t112 -261.5q0 -112 -56.5 -196t-168.5 -124q141 -41 208.5 -133t67.5 -221q0 -175 -129 -284t-342 -109q-139 0 -242 28q-70 20 -109.5 50.5 t-39.5 64.5z" />
<glyph unicode="&#x418;" horiz-adv-x="1488" d="M154 59v1274q0 32 24 56t58 24t57.5 -23.5t23.5 -56.5v-979l854 879v100q0 32 24 56t58 24q35 0 58.5 -23.5t23.5 -56.5v-1274q0 -32 -24 -55.5t-58 -23.5t-58 23.5t-24 55.5v971l-854 -880v-91q0 -32 -23.5 -55.5t-57.5 -23.5t-58 23.5t-24 55.5z" />
<glyph unicode="&#x419;" horiz-adv-x="1488" d="M154 59v1274q0 32 24 56t58 24t57.5 -23.5t23.5 -56.5v-979l854 879v100q0 32 24 56t58 24q35 0 58.5 -23.5t23.5 -56.5v-1274q0 -32 -24 -55.5t-58 -23.5t-58 23.5t-24 55.5v971l-854 -880v-91q0 -32 -23.5 -55.5t-57.5 -23.5t-58 23.5t-24 55.5zM459 1874q0 23 16.5 38 t40.5 15q19 0 37 -17.5t36 -43t39 -51t54 -43t74 -17.5t74 17.5t54 43t38.5 51t35.5 43t37 17.5q24 0 41 -15t17 -38q0 -36 -62 -111q-94 -118 -235 -118q-142 0 -236 118q-61 74 -61 111z" />
<glyph unicode="&#x41a;" horiz-adv-x="1214" d="M154 59v1276q0 32 24 55t58 23t57.5 -23t23.5 -55v-563h150l534 606q31 35 70 35q32 0 54 -23t22 -57q0 -27 -25 -55l-518 -569l535 -592q22 -26 22 -60q0 -33 -21.5 -55t-56.5 -22q-23 0 -39.5 10t-37.5 33l-535 604h-154v-568q0 -32 -23.5 -55.5t-57.5 -23.5t-58 23.5 t-24 55.5z" />
<glyph unicode="&#x41b;" horiz-adv-x="1406" d="M39 61q0 23 17.5 51t47 74t48.5 99q54 146 73 331.5t19 434.5v264q0 33 23.5 56.5t58.5 23.5h845q35 0 58.5 -23.5t23.5 -56.5v-1256q0 -33 -23.5 -56t-58.5 -23q-34 0 -57.5 23.5t-23.5 55.5v1190h-682v-198q0 -609 -134 -899q-46 -100 -79 -136t-74 -36q-34 0 -58 23 t-24 58z" />
<glyph unicode="&#x41c;" horiz-adv-x="1703" d="M154 57v1256q0 42 27.5 71t72.5 29q59 0 90 -53l508 -838l508 838q31 53 90 53q45 0 72.5 -29t27.5 -71v-1256q0 -33 -21 -55t-56 -22q-36 0 -58 22t-22 55v1053l-461 -745q-31 -52 -80 -52t-80 52l-461 745v-1053q0 -33 -21.5 -55t-56.5 -22q-36 0 -57.5 22t-21.5 55z " />
<glyph unicode="&#x41d;" horiz-adv-x="1470" d="M154 59v1274q0 32 24 56t58 24t57.5 -23.5t23.5 -56.5v-561h838v561q0 33 23.5 56.5t58.5 23.5q34 0 58 -24t24 -56v-1274q0 -32 -24.5 -55.5t-57.5 -23.5q-35 0 -58.5 23t-23.5 56v568h-838v-568q0 -32 -23.5 -55.5t-57.5 -23.5t-58 23.5t-24 55.5z" />
<glyph unicode="&#x41e;" horiz-adv-x="1650" d="M96 694q0 149 58.5 283t157 229t233.5 151t282 56t281 -56t232 -151t156 -229t58 -283q0 -197 -98.5 -362t-265.5 -258.5t-363 -93.5q-147 0 -282 55.5t-233.5 150t-157 227.5t-58.5 281zM270 694q0 -153 73 -282t201 -205t281 -76q154 0 282 76t201.5 205t73.5 282 t-73.5 283.5t-201.5 206.5t-282 76t-281.5 -76t-200.5 -206t-73 -284z" />
<glyph unicode="&#x41f;" horiz-adv-x="1443" d="M154 59v1256q0 32 24 56t58 24h972q35 0 58.5 -23.5t23.5 -56.5v-1256q0 -33 -23.5 -56t-58.5 -23t-58.5 23t-23.5 56v1190h-809v-1190q0 -32 -23.5 -55.5t-57.5 -23.5t-58 23.5t-24 55.5z" />
<glyph unicode="&#x420;" horiz-adv-x="1282" d="M154 59v1256q0 32 24 56t58 24h485q193 0 321 -99q164 -131 164 -360q0 -117 -46.5 -213.5t-129.5 -157.5q-120 -88 -330 -88h-383v-418q0 -32 -23.5 -55.5t-57.5 -23.5t-58 23.5t-24 55.5zM317 621h357q153 0 239 57q60 39 93.5 106t33.5 152q0 171 -118 252 q-84 63 -226 63h-379v-630z" />
<glyph unicode="&#x421;" horiz-adv-x="1349" d="M96 698q0 144 59 277t157.5 228.5t233 152.5t279.5 57q194 0 342 -67q99 -42 99 -103q0 -33 -21.5 -54.5t-54.5 -21.5q-14 0 -33.5 10t-52 27t-66.5 29q-97 33 -215 33q-149 0 -277.5 -76.5t-204 -207.5t-75.5 -284q0 -166 76.5 -297.5t203.5 -202.5t277 -71 q114 0 217 35q37 13 71.5 30.5t54.5 27t34 9.5q31 0 53.5 -21.5t22.5 -53.5q0 -33 -25.5 -56.5t-74.5 -46.5q-152 -71 -351 -71q-201 0 -366 87.5t-264 253t-99 377.5z" />
<glyph unicode="&#x422;" horiz-adv-x="1155" d="M0 1323q0 30 21 51t51 21h1013q29 0 49.5 -21.5t20.5 -50.5q0 -31 -20.5 -52.5t-49.5 -21.5h-426v-1190q0 -32 -23.5 -55.5t-57.5 -23.5t-58 23.5t-24 55.5v1190h-424q-31 0 -51.5 21.5t-20.5 52.5z" />
<glyph unicode="&#x423;" horiz-adv-x="1155" d="M20 1333q0 33 23.5 56.5t56.5 23.5q31 0 50 -13.5t34 -45.5l412 -803l385 803q26 59 84 59q31 0 54.5 -22.5t23.5 -55.5q0 -21 -15 -51l-415 -868q-101 -216 -235 -326t-324 -110q-40 0 -62 19.5t-22 51.5q0 31 21.5 51.5t58.5 20.5q84 0 151.5 32t115 83t95.5 133 l-477 911q-15 30 -15 51z" />
<glyph unicode="&#x424;" horiz-adv-x="1581" d="M98 696q0 127 48.5 232t134.5 174q123 98 335 98h93v133q0 32 24 56t58 24q33 0 57 -23.5t24 -56.5v-133h95q210 0 333 -98q86 -69 134.5 -174t48.5 -232t-48.5 -231.5t-134.5 -173.5q-126 -98 -333 -98h-95v-134q0 -32 -23.5 -55.5t-57.5 -23.5t-58 23.5t-24 55.5v134 h-93q-212 0 -335 98q-87 68 -135 172.5t-48 232.5zM264 696q0 -96 35 -172t96 -121q87 -65 238 -65h76v717h-76q-150 0 -238 -66q-61 -45 -96 -121t-35 -172zM872 338h76q148 0 236 65q62 47 97.5 122.5t35.5 170.5t-35.5 170.5t-97.5 122.5q-89 66 -236 66h-76v-717z" />
<glyph unicode="&#x425;" horiz-adv-x="1269" d="M18 66q0 29 23 55l491 575l-485 576q-22 29 -22 55q0 35 28.5 60.5t65.5 25.5q43 0 76 -41l442 -545l440 545q35 41 76 41q35 0 64.5 -25.5t29.5 -60.5q0 -28 -24 -55l-482 -574l490 -577q20 -23 20 -55q0 -35 -27.5 -60.5t-64.5 -25.5q-44 0 -76 40l-446 549l-449 -549 q-32 -40 -77 -40q-36 0 -64.5 24.5t-28.5 61.5z" />
<glyph unicode="&#x426;" horiz-adv-x="1544" d="M154 80v1255q0 32 24 55t58 23t57.5 -23t23.5 -55v-1190h809v1190q0 33 23.5 55.5t58.5 22.5t58.5 -22.5t23.5 -55.5v-1190h135q35 0 58.5 -22.5t23.5 -54.5v-488q0 -33 -23.5 -56.5t-58.5 -23.5t-58.5 23.5t-23.5 56.5v420h-1107q-34 0 -58 24t-24 56z" />
<glyph unicode="&#x427;" horiz-adv-x="1296" d="M129 944v391q0 33 23.5 55.5t58.5 22.5q34 0 58 -23t24 -55v-387q0 -163 74 -238t229 -75q176 0 383 78v622q0 32 24 55t58 23t58 -23t24 -55v-1276q0 -32 -24 -55.5t-58 -23.5t-58 23.5t-24 55.5v504q-202 -76 -393 -76q-457 0 -457 457z" />
<glyph unicode="&#x428;" horiz-adv-x="2269" d="M154 80v1255q0 32 24 55t58 23t57.5 -23t23.5 -55v-1190h736v1190q0 33 23.5 55.5t58.5 22.5t58.5 -22.5t23.5 -55.5v-1190h735v1190q0 32 24 55t58 23q35 0 58.5 -22.5t23.5 -55.5v-1255q0 -33 -23.5 -56.5t-58.5 -23.5h-1798q-34 0 -58 24t-24 56z" />
<glyph unicode="&#x429;" horiz-adv-x="2369" d="M154 80v1255q0 32 24 55t58 23t57.5 -23t23.5 -55v-1190h736v1190q0 33 23.5 55.5t58.5 22.5t58.5 -22.5t23.5 -55.5v-1190h735v1190q0 32 24 55t58 23q35 0 58.5 -22.5t23.5 -55.5v-1190h135q35 0 58.5 -22.5t23.5 -54.5v-488q0 -33 -23.5 -56.5t-58.5 -23.5 q-34 0 -58 24t-24 56v420h-1933q-34 0 -58 24t-24 56z" />
<glyph unicode="&#x42a;" horiz-adv-x="1683" d="M41 1323q0 29 20.5 50.5t49.5 21.5h510q35 0 58 -23.5t23 -56.5v-539h388q75 0 140.5 -9.5t132 -35.5t114 -68t77 -111.5t29.5 -160.5q0 -84 -27 -151.5t-72 -111.5t-107.5 -73.5t-130.5 -42t-144 -12.5h-481q-34 0 -58 24t-24 56v1169h-428q-29 0 -49.5 21.5t-20.5 52.5 zM702 135h388q148 0 237.5 64.5t89.5 191.5q0 124 -89 188t-249 64h-377v-508z" />
<glyph unicode="&#x42b;" horiz-adv-x="1767" d="M154 80v1255q0 32 24 55t58 23t57.5 -23t23.5 -55v-559h385q75 0 140.5 -9.5t132.5 -35.5t114 -68t77 -111.5t30 -160.5q0 -104 -40 -182t-109 -122.5t-151.5 -65.5t-178.5 -21h-481q-35 0 -58.5 23.5t-23.5 56.5zM317 135h385q148 0 238 64.5t90 191.5q0 124 -89 188 t-249 64h-375v-508zM1450 59v1274q0 32 24 56t58 24t58 -24t24 -56v-1274q0 -32 -24 -55.5t-58 -23.5t-58 23.5t-24 55.5z" />
<glyph unicode="&#x42c;" horiz-adv-x="1296" d="M154 80v1255q0 32 24 55t58 23t57.5 -23t23.5 -55v-559h385q75 0 140.5 -9.5t132.5 -35.5t114 -68t77 -111.5t30 -160.5q0 -104 -40 -182t-109 -122.5t-151.5 -65.5t-178.5 -21h-481q-35 0 -58.5 23.5t-23.5 56.5zM317 135h385q148 0 238 64.5t90 191.5q0 124 -89 188 t-249 64h-375v-508z" />
<glyph unicode="&#x42d;" horiz-adv-x="1349" d="M74 154q0 32 22.5 53.5t53.5 21.5q14 0 33.5 -9.5t54 -27t71.5 -30.5q103 -35 217 -35q214 0 367 137q160 141 178 363h-749q-29 0 -49.5 21t-20.5 50t20.5 50.5t49.5 21.5h747q-9 97 -52.5 186t-113.5 156q-164 154 -377 154q-118 0 -215 -33q-34 -12 -66 -29t-51.5 -27 t-33.5 -10q-31 0 -53.5 21.5t-22.5 54.5q0 58 98 100q158 70 342 70q144 0 274.5 -51t229.5 -145q106 -98 165.5 -234t59.5 -285q0 -169 -61 -308t-172 -236q-96 -84 -224 -129t-270 -45q-200 0 -352 71q-100 44 -100 103z" />
<glyph unicode="&#x42e;" horiz-adv-x="2199" d="M154 59v1274q0 32 24 56t58 24t57.5 -23.5t23.5 -56.5v-561h334q14 134 76.5 252.5t158 204t223 135t265.5 49.5q147 0 281 -56t232.5 -151t157 -229t58.5 -283q0 -197 -99 -362t-266.5 -258.5t-363.5 -93.5q-140 0 -268 50t-224 136t-158 206t-73 255h-334v-568 q0 -32 -23.5 -55.5t-57.5 -23.5t-58 23.5t-24 55.5zM817 694q0 -153 73.5 -282t201.5 -205t282 -76q153 0 281 76t201 205t73 282q0 154 -73 284t-200.5 206t-281.5 76t-282 -76t-201.5 -206.5t-73.5 -283.5z" />
<glyph unicode="&#x42f;" horiz-adv-x="1331" d="M100 61q0 27 15 45l348 447q-115 15 -195 78q-82 61 -125 148.5t-43 189.5q0 234 164 346q122 80 340 80h492q35 0 58.5 -23.5t23.5 -56.5v-1256q0 -33 -23.5 -56t-58.5 -23q-34 0 -58 23.5t-24 55.5v486h-361l-399 -527q-30 -38 -70 -38q-35 0 -59.5 24t-24.5 57z M266 969q0 -78 33.5 -142t93.5 -102q69 -43 201 -43h420v573h-389q-156 0 -240 -49q-119 -73 -119 -237z" />
<glyph unicode="&#x430;" horiz-adv-x="974" d="M88 252q0 170 188 242q55 22 136.5 36.5t129 19t148.5 11.5v29q0 117 -47 172q-51 59 -166 59q-91 0 -184 -35q-20 -8 -42.5 -19t-36 -16.5t-24.5 -5.5q-25 0 -41 18t-16 42q0 45 100 88q114 49 261 49q184 0 270 -98q78 -91 78 -252v-541q0 -29 -22.5 -50t-53.5 -21 q-30 0 -52.5 19t-23.5 46q-124 -65 -270 -65q-86 0 -159 28t-123 91.5t-50 152.5zM229 260q0 -80 69 -121t165 -41q110 0 227 60v288q-210 -9 -305 -36q-156 -41 -156 -150z" />
<glyph unicode="&#x431;" horiz-adv-x="1167" d="M100 569q0 168 57 300t169 214q77 55 225.5 105t206.5 80q65 33 119 106q26 37 63 37q34 0 53 -28t6 -60q-41 -89 -127 -137q-61 -34 -216 -84.5t-220 -95.5q-134 -91 -174 -267q152 129 373 129q84 0 160 -26.5t137.5 -78t98 -137.5t36.5 -196q0 -203 -134 -326.5 t-349 -123.5q-106 0 -190 33.5t-138.5 89t-90 132.5t-50.5 159.5t-15 174.5zM246 569q0 -74 9.5 -139t34 -126.5t62 -105.5t97 -71t135.5 -27q158 0 247 91t89 239q0 84 -28 149.5t-75.5 103.5t-104 57.5t-118.5 19.5q-210 0 -348 -144v-47z" />
<glyph unicode="&#x432;" horiz-adv-x="1032" d="M154 72v782q0 28 21.5 50t51.5 22h316q135 0 222 -61.5t87 -178.5q0 -134 -115 -201q97 -21 147 -82.5t50 -150.5q0 -67 -26 -116.5t-73 -78.5t-106 -43t-131 -14h-371q-31 0 -52 20.5t-21 51.5zM299 111h270q98 0 157.5 36t59.5 117q0 65 -50 107.5t-144 42.5h-293v-303 zM299 524h244q70 0 118 38t48 110q0 69 -55 106t-134 37h-221v-291z" />
<glyph unicode="&#x433;" horiz-adv-x="862" d="M154 51v803q0 30 21 51t52 21h555q28 0 48 -20t20 -48q0 -27 -20 -46t-48 -19h-479v-742q0 -29 -22.5 -50t-53.5 -21t-52 21t-21 50z" />
<glyph unicode="&#x434;" horiz-adv-x="1323" d="M53 59q0 30 22.5 51t53.5 21h94q82 134 111 314t31 409q0 30 21.5 51t51.5 21h568q32 0 52.5 -21t20.5 -51v-723h123q32 0 53 -20.5t21 -51.5v-327q0 -30 -21 -52t-53 -22t-53 22t-21 52v268h-925v-268q0 -30 -21 -52t-53 -22q-31 0 -53.5 22.5t-22.5 51.5v327zM377 131 h555v662h-422q-8 -440 -133 -662z" />
<glyph unicode="&#x435;" horiz-adv-x="1075" d="M92 473q0 202 123 334q125 135 338 135q202 0 321 -129q113 -119 113 -301q0 -38 -21 -65t-59 -27h-659q12 -126 80 -205q95 -113 258 -113q126 0 221 50q10 5 25.5 13.5t22.5 12.5t17 7t19 3q24 0 40.5 -18t16.5 -43q0 -22 -17.5 -39.5t-58.5 -40.5q-127 -67 -292 -67 q-232 0 -367 151q-121 130 -121 342zM248 528h594q-6 127 -76 203q-83 90 -213 90q-146 0 -231 -98q-64 -73 -74 -195z" />
<glyph unicode="&#x436;" horiz-adv-x="1462" d="M37 51q0 26 22 55l334 367l-317 344q-23 30 -23 53q0 30 20 51t52 21q35 0 61 -33l336 -379h135v340q0 31 21.5 51.5t52.5 20.5t52.5 -20.5t21.5 -51.5v-340h135l336 379q26 33 61 33q32 0 52 -21t20 -51q0 -23 -23 -53l-317 -344l334 -367q22 -29 22 -55q0 -31 -20 -51 t-51 -20q-42 0 -72 38l-340 381h-137v-348q0 -29 -21.5 -50t-52.5 -21t-52.5 21t-21.5 50v348h-137l-340 -381q-30 -38 -71 -38q-31 0 -51.5 20t-20.5 51z" />
<glyph unicode="&#x437;" horiz-adv-x="817" d="M74 84q0 28 18.5 45.5t48.5 17.5q19 0 72 -22q72 -29 154 -29q98 0 157.5 45t59.5 119q0 110 -129 146q-37 10 -164 10q-30 0 -51 14.5t-21 44.5q0 26 17 43t45 17q123 0 172 16q98 33 98 125q0 61 -50 103t-128 42q-73 0 -150 -35q-50 -26 -67 -26q-28 0 -46 18t-18 43 q0 42 66 76q88 45 219 45q142 0 227.5 -73t85.5 -179q0 -151 -151 -207q93 -27 140.5 -88t47.5 -147q0 -120 -96.5 -194t-257.5 -74q-141 0 -221 30q-78 28 -78 74z" />
<glyph unicode="&#x438;" horiz-adv-x="1196" d="M154 51v819q0 31 21 51.5t52 20.5q32 0 54 -20.5t22 -51.5v-614l590 567v47q0 30 22 51t52 21q32 0 53.5 -20.5t21.5 -51.5v-819q0 -30 -21.5 -50.5t-53.5 -20.5q-31 0 -52.5 21t-21.5 50v615l-590 -568v-47q0 -29 -22.5 -50t-53.5 -21t-52 21t-21 50z" />
<glyph unicode="&#x439;" horiz-adv-x="1196" d="M154 51v819q0 31 21 51.5t52 20.5q32 0 54 -20.5t22 -51.5v-614l590 567v47q0 30 22 51t52 21q32 0 53.5 -20.5t21.5 -51.5v-819q0 -30 -21.5 -50.5t-53.5 -20.5q-31 0 -52.5 21t-21.5 50v615l-590 -568v-47q0 -29 -22.5 -50t-53.5 -21t-52 21t-21 50zM299 1430 q0 23 16.5 38t40.5 15q19 0 37 -17.5t36 -43t39 -51t54 -43t74 -17.5t74 17.5t54 43t39 51t36 43t37 17.5q24 0 40.5 -15t16.5 -38q0 -36 -62 -111q-95 -119 -235 -119q-141 0 -236 119q-61 74 -61 111z" />
<glyph unicode="&#x43a;" horiz-adv-x="958" d="M154 51v819q0 31 21 51.5t52 20.5t53.5 -21t22.5 -51v-340h135l334 379q26 33 64 33q30 0 49.5 -21t19.5 -51q0 -28 -22 -53l-318 -344l334 -367q23 -23 23 -55q0 -31 -20.5 -51t-51.5 -20q-37 0 -72 38l-340 381h-135v-348q0 -29 -22.5 -50t-53.5 -21t-52 21t-21 50z " />
<glyph unicode="&#x43b;" horiz-adv-x="1099" d="M35 53q0 22 15 47.5t42 68t45 89.5q75 195 78 596q0 29 22.5 50.5t53.5 21.5h579q31 0 53.5 -21.5t22.5 -50.5v-803q0 -29 -22 -50t-52 -21q-31 0 -53 21t-22 50v742h-432q-16 -454 -113 -660q-41 -89 -73 -121t-70 -32q-31 0 -52.5 21t-21.5 52z" />
<glyph unicode="&#x43c;" horiz-adv-x="1312" d="M154 51v805q0 37 24.5 61.5t63.5 24.5q54 0 77 -45l338 -557l334 557q27 45 80 45q39 0 64.5 -24.5t25.5 -61.5v-805q0 -30 -21 -50.5t-53 -20.5t-52.5 20.5t-20.5 50.5v619l-283 -465q-26 -47 -74 -47q-47 0 -73 47l-285 465v-619q0 -30 -20 -50.5t-52 -20.5 q-33 0 -53 20.5t-20 50.5z" />
<glyph unicode="&#x43d;" horiz-adv-x="1148" d="M154 51v819q0 31 21 51.5t52 20.5t53.5 -21t22.5 -51v-340h545v340q0 31 21.5 51.5t52.5 20.5t52 -20.5t21 -51.5v-819q0 -29 -21 -50t-52 -21t-52.5 21t-21.5 50v348h-545v-348q0 -29 -22.5 -50t-53.5 -21t-52 21t-21 50z" />
<glyph unicode="&#x43e;" horiz-adv-x="1179" d="M98 461q0 207 140 344t352 137q103 0 194 -36t158 -101q137 -134 137 -344q0 -208 -137 -342q-67 -67 -158 -103t-194 -36q-213 0 -352 139q-66 64 -103 152.5t-37 189.5zM248 461q0 -148 90 -252q99 -107 252 -107q151 0 250 107q92 107 92 252q0 150 -92 252 q-97 108 -250 108q-155 0 -252 -108q-90 -99 -90 -252z" />
<glyph unicode="&#x43f;" horiz-adv-x="1122" d="M154 51v803q0 30 21 51t52 21h668q31 0 52.5 -21.5t21.5 -50.5v-803q0 -29 -21.5 -50t-52.5 -21t-53.5 21t-22.5 50v742h-516v-742q0 -29 -22.5 -50t-53.5 -21t-52 21t-21 50z" />
<glyph unicode="&#x440;" horiz-adv-x="1087" d="M154 -408v1233q0 86 88 101q98 16 207 16q255 0 397 -133q143 -130 143 -346q0 -211 -117 -338q-67 -73 -162 -109t-192 -36q-127 0 -215 40v-428q0 -30 -22.5 -50.5t-53.5 -20.5t-52 20t-21 51zM303 145q85 -43 203 -43q147 0 239 95q95 95 95 266q0 159 -99 258 q-103 100 -278 100q-87 0 -160 -12v-664z" />
<glyph unicode="&#x441;" horiz-adv-x="964" d="M92 463q0 181 105 305q70 84 173 129t222 45q129 0 227 -49q70 -34 70 -80q0 -25 -18 -42t-44 -17q-8 0 -16 2t-14 4.5t-18.5 8.5t-22.5 11q-79 35 -164 35q-163 0 -266 -119q-82 -95 -82 -233q0 -160 94 -260q96 -99 256 -99q99 0 168 29q15 6 29.5 14t23 11.5t19.5 3.5 q24 0 41.5 -18.5t17.5 -43.5q0 -27 -20.5 -45.5t-65.5 -36.5q-96 -38 -217 -38q-238 0 -371 139q-127 133 -127 344z" />
<glyph unicode="&#x442;" horiz-adv-x="931" d="M14 858q0 28 19 48t47 20h772q26 0 46 -20t20 -48q0 -27 -19.5 -46t-46.5 -19h-311v-742q0 -29 -22.5 -50t-53.5 -21q-30 0 -52 21t-22 50v742h-311q-28 0 -47 18.5t-19 46.5z" />
<glyph unicode="&#x443;" horiz-adv-x="942" d="M14 862q0 34 24 58t58 24q32 0 51.5 -16t26.5 -37l315 -754l279 740q26 67 80 67q33 0 56.5 -23.5t23.5 -56.5q0 -22 -17 -65l-333 -848q-165 -424 -461 -424q-32 0 -53 21t-21 51q0 31 21 52t53 21q102 0 170.5 68t128.5 205l-383 860q-19 44 -19 57z" />
<glyph unicode="&#x444;" horiz-adv-x="1501" d="M98 461q0 210 101 340q57 71 137.5 106t163.5 35q106 0 176 -41v293q0 31 22 51.5t54 20.5q31 0 52 -20.5t21 -51.5v-293q70 41 176 41q85 0 166.5 -34.5t137.5 -106.5q98 -126 98 -340q0 -215 -98 -338q-56 -73 -137.5 -108t-166.5 -35q-108 0 -176 40v-290 q0 -30 -21.5 -51t-51.5 -21q-32 0 -54 21t-22 51v290q-68 -40 -176 -40q-83 0 -163.5 35.5t-137.5 107.5q-101 131 -101 338zM248 461q0 -171 74 -266q73 -93 194 -93q95 0 160 43v631q-65 43 -160 43q-122 0 -194 -92q-74 -90 -74 -266zM825 145q68 -43 162 -43 q120 0 193 93q73 94 73 266q0 181 -73 266q-72 92 -193 92q-94 0 -162 -43v-631z" />
<glyph unicode="&#x445;" horiz-adv-x="917" d="M14 55q0 6 1 11.5t2 9.5t4.5 9.5t5 8.5t7 9t7 8t8 9t8.5 9l303 344l-294 334q-2 2 -9.5 11t-9.5 12.5t-6.5 10.5t-6 13.5t-1.5 13.5q0 32 23 54t57 22q43 0 77 -43l269 -321l270 319q35 45 76 45q32 0 54 -21t22 -51q0 -27 -29 -59l-297 -332l317 -362q33 -41 33 -64 q0 -31 -22.5 -53t-57.5 -22q-48 0 -86 51l-280 334l-287 -342q-38 -43 -78 -43q-34 0 -57 21.5t-23 53.5z" />
<glyph unicode="&#x446;" horiz-adv-x="1212" d="M154 68v802q0 31 21 51.5t52 20.5t53.5 -21t22.5 -51v-739h516v739q0 30 22.5 51t53.5 21t52.5 -20.5t21.5 -51.5v-739h123q31 0 52 -20.5t21 -51.5v-327q0 -30 -21.5 -52t-51.5 -22q-32 0 -53 22t-21 52v268h-799q-27 0 -46 20t-19 48z" />
<glyph unicode="&#x447;" horiz-adv-x="1060" d="M137 631v239q0 31 21.5 51.5t52.5 20.5q32 0 54 -20.5t22 -51.5v-239q0 -109 53 -159t162 -50q121 0 256 51v397q0 30 22.5 51t53.5 21t53 -21t22 -51v-819q0 -29 -22 -50t-53 -21t-53.5 21t-22.5 50v297q-134 -49 -271 -49q-179 0 -264.5 80.5t-85.5 251.5z" />
<glyph unicode="&#x448;" horiz-adv-x="1724" d="M154 68v802q0 31 21 51.5t52 20.5t53.5 -21t22.5 -51v-739h483v739q0 30 22.5 51t53.5 21t52.5 -20.5t21.5 -51.5v-739h485v739q0 30 22 51t52 21q31 0 53.5 -21t22.5 -51v-802q0 -28 -20 -48t-48 -20h-1284q-27 0 -46 20t-19 48z" />
<glyph unicode="&#x449;" horiz-adv-x="1814" d="M154 68v802q0 31 21 51.5t52 20.5t53.5 -21t22.5 -51v-739h483v739q0 30 22.5 51t53.5 21t52.5 -20.5t21.5 -51.5v-739h485v739q0 30 22.5 51t53.5 21q30 0 52 -21t22 -51v-739h123q31 0 51 -20.5t20 -51.5v-327q0 -30 -20.5 -52t-50.5 -22q-32 0 -54 22t-22 52v268 h-1399q-27 0 -46 20t-19 48z" />
<glyph unicode="&#x44a;" horiz-adv-x="1282" d="M20 858q0 28 20 48t46 20h391q31 0 53.5 -21.5t22.5 -50.5v-330h295q72 0 131 -15t105.5 -45.5t72 -82t25.5 -119.5q0 -134 -90.5 -198t-239.5 -64h-375q-34 0 -55 21t-21 55v717h-315q-27 0 -46.5 19t-19.5 46zM553 111h270q211 0 211 151q0 152 -221 152h-260v-303z " />
<glyph unicode="&#x44b;" horiz-adv-x="1382" d="M154 76v794q0 31 21 51.5t52 20.5q32 0 54 -20.5t22 -51.5v-346h295q151 0 243.5 -64t92.5 -198q0 -91 -45 -151t-117.5 -85.5t-169.5 -25.5h-375q-33 0 -53 21t-20 55zM303 111h270q213 0 213 151q0 152 -221 152h-262v-303zM1079 51v819q0 31 21.5 51.5t52.5 20.5 q32 0 54 -20.5t22 -51.5v-819q0 -29 -22.5 -50t-53.5 -21t-52.5 21t-21.5 50z" />
<glyph unicode="&#x44c;" horiz-adv-x="1032" d="M154 76v794q0 31 21 51.5t52 20.5q32 0 54 -20.5t22 -51.5v-346h295q151 0 243.5 -64t92.5 -198q0 -91 -45 -151t-117.5 -85.5t-169.5 -25.5h-375q-33 0 -53 21t-20 55zM303 111h270q213 0 213 151q0 152 -221 152h-262v-303z" />
<glyph unicode="&#x44d;" horiz-adv-x="970" d="M70 100q0 25 17.5 43.5t43.5 18.5q11 0 19.5 -3.5t23 -11.5t29.5 -14q69 -29 168 -29q160 0 256 99q80 83 86 211h-506q-21 0 -35 14t-14 35q0 20 14.5 34.5t34.5 14.5h504q-6 105 -72 184q-50 57 -119 88t-147 31q-89 0 -164 -35q-11 -5 -24 -11t-19 -8.5t-14 -4.5 t-17 -2q-25 0 -43 17t-18 42t16.5 42.5t52.5 35.5q105 51 230 51q119 0 222 -45t173 -129q104 -123 104 -305q0 -211 -127 -344q-136 -139 -370 -139q-136 0 -217 40q-45 16 -66.5 34.5t-21.5 45.5z" />
<glyph unicode="&#x44e;" horiz-adv-x="1660" d="M154 51v819q0 31 21 51.5t52 20.5t53.5 -21t22.5 -51v-338h287q18 160 131 273q65 65 156 101t194 36q104 0 195 -36.5t157 -100.5q140 -137 140 -344q0 -202 -140 -342q-142 -139 -352 -139q-208 0 -350 139q-116 113 -131 280h-287v-348q0 -29 -22.5 -50t-53.5 -21 t-52 21t-21 50zM729 461q0 -149 92 -252q44 -51 109.5 -79t140.5 -28q159 0 252 107q90 101 90 252q0 153 -90 252q-97 108 -252 108q-153 0 -250 -108q-92 -102 -92 -252z" />
<glyph unicode="&#x44f;" horiz-adv-x="993" d="M104 635q0 150 94 219.5t246 69.5h322q31 0 52.5 -20t21.5 -50v-805q0 -29 -21.5 -49t-52.5 -20q-30 0 -51 20t-21 49v295h-223l-225 -324q-28 -40 -68 -40q-29 0 -48 15t-19 42q0 21 20 49l191 272q-100 27 -159 95t-59 182zM252 635q0 -51 18 -86t51.5 -52t69 -23.5 t82.5 -6.5h221v334h-243q-199 0 -199 -166z" />
<glyph unicode="&#x451;" horiz-adv-x="1075" d="M92 473q0 202 123 334q125 135 338 135q202 0 321 -129q113 -119 113 -301q0 -38 -21 -65t-59 -27h-659q12 -126 80 -205q95 -113 258 -113q126 0 221 50q10 5 25.5 13.5t22.5 12.5t17 7t19 3q24 0 40.5 -18t16.5 -43q0 -22 -17.5 -39.5t-58.5 -40.5q-127 -67 -292 -67 q-232 0 -367 151q-121 130 -121 342zM248 528h594q-6 127 -76 203q-83 90 -213 90q-146 0 -231 -98q-64 -73 -74 -195zM250 1368q0 37 26.5 62.5t63.5 25.5q38 0 64 -25.5t26 -62.5q0 -38 -26 -65t-64 -27q-37 0 -63.5 27t-26.5 65zM635 1368q0 37 26.5 62.5t63.5 25.5 t63.5 -25.5t26.5 -62.5q0 -38 -26.5 -65t-63.5 -27t-63.5 27t-26.5 65z" />
<glyph unicode="&#x452;" horiz-adv-x="1138" d="M4 1174q0 25 17 42t42 17h89v106q0 31 22 52.5t53 21.5t53.5 -21.5t22.5 -52.5v-106h283q23 0 40 -17t17 -42t-17 -42.5t-40 -17.5h-283v-346q46 87 131 130.5t193 43.5q171 0 268 -84q111 -97 111 -309v-350q0 -127 -12.5 -218.5t-49.5 -160.5q-31 -57 -86 -102.5 t-121 -45.5q-37 0 -59.5 20t-22.5 50q0 18 15 33t37 26t48.5 35t48.5 55.5t37 93t15 142.5v389q0 166 -76 236q-62 59 -182 59q-166 0 -242 -141q-53 -101 -53 -244v-375q0 -29 -22.5 -50t-53.5 -21t-53 21t-22 50v1063h-89q-25 0 -42 17.5t-17 42.5z" />
<glyph unicode="&#x453;" horiz-adv-x="862" d="M154 51v803q0 30 21 51t52 21h555q28 0 48 -20t20 -48q0 -27 -20 -46t-48 -19h-479v-742q0 -29 -22.5 -50t-53.5 -21t-52 21t-21 50zM340 1212q0 18 12 39l156 283q21 43 57 43q26 0 44 -17t18 -40q0 -17 -17 -45l-166 -275q-23 -37 -53 -37q-21 0 -36 14t-15 35z" />
<glyph unicode="&#x454;" horiz-adv-x="970" d="M98 463q0 179 107 305q68 84 171.5 129t221.5 45q127 0 229 -51q37 -18 53.5 -35.5t16.5 -42.5t-18 -42t-43 -17q-9 0 -17 2t-14 4.5t-18.5 8.5t-22.5 11q-75 35 -164 35q-80 0 -149.5 -31t-116.5 -88q-66 -79 -72 -184h502q20 0 34.5 -14.5t14.5 -34.5q0 -21 -14 -35 t-35 -14h-506q9 -132 88 -211q93 -99 254 -99q99 0 168 29q16 6 30.5 14t23 11.5t20.5 3.5q24 0 41.5 -18.5t17.5 -43.5q0 -49 -86 -80q-84 -40 -219 -40q-235 0 -371 139q-127 133 -127 344z" />
<glyph unicode="&#x455;" horiz-adv-x="825" d="M74 123q0 25 16.5 42t42.5 17q29 0 82 -30q88 -52 191 -52q192 0 192 140q0 53 -32.5 84.5t-98.5 60.5q-26 12 -104.5 39.5t-118.5 46.5q-152 71 -152 223q0 118 88 184t250 66q125 0 213 -31q86 -29 86 -82q0 -25 -16 -41t-41 -16q-26 0 -96.5 22.5t-139.5 22.5 q-188 0 -188 -125q0 -46 28.5 -73.5t83.5 -51.5q31 -14 111 -41.5t113 -44.5q170 -80 170 -231q0 -126 -92.5 -199t-249.5 -73q-150 0 -260 51q-34 16 -56 40t-22 52z" />
<glyph unicode="&#x456;" horiz-adv-x="446" d="M131 1366q0 37 26.5 63.5t63.5 26.5t63.5 -26.5t26.5 -63.5t-26.5 -63.5t-63.5 -26.5t-63.5 26.5t-26.5 63.5zM147 51v819q0 30 22.5 51t53.5 21t53.5 -21t22.5 -51v-819q0 -29 -22.5 -50t-53.5 -21t-53.5 21t-22.5 50z" />
<glyph unicode="&#x457;" horiz-adv-x="446" d="M-57 1368q0 37 26.5 62.5t63.5 25.5q38 0 64 -25.5t26 -62.5q0 -38 -26 -65t-64 -27q-37 0 -63.5 27t-26.5 65zM147 51v819q0 30 22.5 51t53.5 21t53.5 -21t22.5 -51v-819q0 -29 -22.5 -50t-53.5 -21t-53.5 21t-22.5 50zM328 1368q0 37 26.5 62.5t63.5 25.5t63.5 -25.5 t26.5 -62.5q0 -38 -26.5 -65t-63.5 -27t-63.5 27t-26.5 65z" />
<glyph unicode="&#x458;" horiz-adv-x="446" d="M-12 -412q0 24 15 37t44.5 35t52.5 55q27 37 37 100.5t10 168.5v886q0 31 22.5 52.5t53.5 21.5t53.5 -21.5t22.5 -52.5v-931q0 -214 -80 -326q-29 -40 -70.5 -64t-82.5 -24q-34 0 -56 16t-22 47zM131 1366q0 37 26.5 63.5t63.5 26.5t63.5 -26.5t26.5 -63.5t-26.5 -63.5 t-63.5 -26.5t-63.5 26.5t-26.5 63.5z" />
<glyph unicode="&#x459;" horiz-adv-x="1699" d="M35 53q0 22 15 47.5t42 68t45 89.5q75 195 78 596q0 29 22.5 50.5t53.5 21.5h604q31 0 53.5 -21.5t22.5 -50.5v-330h295q97 0 169.5 -25.5t118 -85.5t45.5 -151q0 -134 -90 -198t-239 -64h-373q-35 0 -55.5 21t-20.5 55v717h-456q-16 -454 -113 -660q-41 -89 -73 -121 t-70 -32q-31 0 -52.5 21t-21.5 52zM971 111h270q211 0 211 151q0 152 -221 152h-260v-303z" />
<glyph unicode="&#x45a;" horiz-adv-x="1724" d="M154 51v819q0 31 21 51.5t52 20.5t53.5 -21t22.5 -51v-346h545v346q0 31 21.5 51.5t52.5 20.5t52 -20.5t21 -51.5v-346h297q72 0 131 -15t105.5 -45.5t72 -82t25.5 -119.5q0 -134 -90.5 -198t-241.5 -64h-372q-34 0 -54 21t-20 55v338h-545v-363q0 -29 -22.5 -50 t-53.5 -21t-52 21t-21 50zM995 111h271q213 0 213 151q0 152 -222 152h-262v-303z" />
<glyph unicode="&#x45b;" horiz-adv-x="1138" d="M4 1174q0 25 17 42t42 17h89v106q0 31 22 52.5t53 21.5t53.5 -21.5t22.5 -52.5v-106h283q23 0 40 -17t17 -42t-17 -42.5t-40 -17.5h-283v-346q46 87 131 130.5t193 43.5q171 0 268 -84q111 -97 111 -309v-498q0 -29 -22.5 -50t-53.5 -21t-52.5 21t-21.5 50v465 q0 166 -76 236q-62 59 -182 59q-166 0 -242 -141q-53 -101 -53 -244v-375q0 -29 -22.5 -50t-53.5 -21t-53 21t-22 50v1063h-89q-25 0 -42 17.5t-17 42.5z" />
<glyph unicode="&#x45c;" horiz-adv-x="968" d="M154 51v819q0 31 21 51.5t52 20.5t53.5 -21t22.5 -51v-340h135l334 379q26 33 64 33q30 0 49.5 -21t19.5 -51q0 -28 -22 -53l-318 -344l334 -367q23 -23 23 -55q0 -31 -20.5 -51t-51.5 -20q-37 0 -72 38l-340 381h-135v-348q0 -29 -22.5 -50t-53.5 -21t-52 21t-21 50z M371 1212q0 18 12 39l156 283q21 43 57 43q26 0 43.5 -16.5t17.5 -40.5q0 -18 -16 -45l-166 -275q-23 -37 -53 -37q-21 0 -36 14t-15 35z" />
<glyph unicode="&#x45e;" horiz-adv-x="942" d="M14 862q0 34 24 58t58 24q32 0 51.5 -16t26.5 -37l315 -754l279 740q26 67 80 67q33 0 56.5 -23.5t23.5 -56.5q0 -22 -17 -65l-333 -848q-165 -424 -461 -424q-32 0 -53 21t-21 51q0 31 21 52t53 21q102 0 170.5 68t128.5 205l-383 860q-19 44 -19 57zM172 1430 q0 23 16.5 38t40.5 15q19 0 37 -17.5t36 -43t39 -51t54 -43t74 -17.5t74 17.5t54 43t39 51t36 43t37 17.5q24 0 40.5 -15t16.5 -38q0 -37 -61 -111q-95 -119 -236 -119t-236 119q-61 74 -61 111z" />
<glyph unicode="&#x45f;" horiz-adv-x="1122" d="M152 68v802q0 29 22 50.5t53 21.5t52.5 -21.5t21.5 -50.5v-739h518v739q0 29 22.5 50.5t53.5 21.5q29 0 51.5 -21.5t22.5 -50.5v-802q0 -28 -20 -48t-48 -20h-266v-268q0 -29 -21.5 -50.5t-52.5 -21.5q-32 0 -54 21t-22 51v268h-266q-28 0 -47.5 20t-19.5 48z" />
<glyph unicode="&#x490;" horiz-adv-x="1091" d="M154 59v1256q0 33 23.5 56.5t58.5 23.5h673v309q0 29 21.5 50.5t52.5 21.5q30 0 51 -21t21 -51v-385q0 -30 -20 -50t-50 -20h-668v-1190q0 -32 -23.5 -55.5t-57.5 -23.5q-35 0 -58.5 23t-23.5 56z" />
<glyph unicode="&#x491;" horiz-adv-x="862" d="M154 51v803q0 30 21 51t52 21h478v309q0 29 21 49.5t50 20.5t50.5 -20.5t21.5 -49.5v-373q0 -29 -21 -49t-51 -20h-473v-742q0 -29 -22.5 -50t-53.5 -21t-52 21t-21 50z" />
<glyph unicode="&#x2000;" horiz-adv-x="1020" />
<glyph unicode="&#x2001;" horiz-adv-x="2040" />
<glyph unicode="&#x2002;" horiz-adv-x="1020" />
<glyph unicode="&#x2003;" horiz-adv-x="2040" />
<glyph unicode="&#x2004;" horiz-adv-x="680" />
<glyph unicode="&#x2005;" horiz-adv-x="510" />
<glyph unicode="&#x2006;" horiz-adv-x="340" />
<glyph unicode="&#x2007;" horiz-adv-x="340" />
<glyph unicode="&#x2008;" horiz-adv-x="255" />
<glyph unicode="&#x2009;" horiz-adv-x="408" />
<glyph unicode="&#x200a;" horiz-adv-x="113" />
<glyph unicode="&#x2010;" horiz-adv-x="1024" d="M174 594q0 28 20.5 49t49.5 21h536q29 0 49.5 -21t20.5 -49q0 -29 -20.5 -50.5t-49.5 -21.5h-536q-29 0 -49.5 21.5t-20.5 50.5z" />
<glyph unicode="&#x2011;" horiz-adv-x="1024" d="M174 594q0 28 20.5 49t49.5 21h536q29 0 49.5 -21t20.5 -49q0 -29 -20.5 -50.5t-49.5 -21.5h-536q-29 0 -49.5 21.5t-20.5 50.5z" />
<glyph unicode="&#x2012;" horiz-adv-x="1024" d="M174 594q0 28 20.5 49t49.5 21h536q29 0 49.5 -21t20.5 -49q0 -29 -20.5 -50.5t-49.5 -21.5h-536q-29 0 -49.5 21.5t-20.5 50.5z" />
<glyph unicode="&#x2013;" horiz-adv-x="1433" d="M174 516q0 29 20.5 50.5t49.5 21.5h946q28 0 49 -21.5t21 -50.5q0 -30 -21 -51t-49 -21h-946q-29 0 -49.5 20.5t-20.5 51.5z" />
<glyph unicode="&#x2014;" horiz-adv-x="2519" d="M174 516q0 29 20.5 50.5t49.5 21.5h2031q28 0 49 -21.5t21 -50.5q0 -30 -21 -51t-49 -21h-2031q-29 0 -49.5 20.5t-20.5 51.5z" />
<glyph unicode="&#x2018;" horiz-adv-x="428" d="M109 1194q0 90 63.5 154.5t114.5 64.5q12 0 20 -8t8 -21q0 -17 -16.5 -32.5t-33.5 -35t-17 -44.5q0 -17 11 -29.5t24.5 -21t24.5 -27t11 -45.5q0 -38 -24.5 -65t-71.5 -27q-54 0 -84 37t-30 100z" />
<glyph unicode="&#x2019;" horiz-adv-x="428" d="M109 1323q0 38 24.5 65t71.5 27q54 0 84 -37t30 -100q0 -90 -62.5 -154.5t-113.5 -64.5q-13 0 -21.5 8t-8.5 20q0 13 11 26.5t23.5 23t23.5 26.5t11 37q0 17 -11.5 29.5t-25 21t-25 27t-11.5 45.5z" />
<glyph unicode="&#x201a;" horiz-adv-x="401" d="M100 72q0 38 25 65t72 27q54 0 84 -37t30 -100q0 -90 -63 -156t-113 -66q-13 0 -22 8.5t-9 20.5q0 20 35 51.5t35 61.5q0 14 -7.5 25t-18.5 19t-22 17.5t-18.5 25.5t-7.5 38z" />
<glyph unicode="&#x201c;" horiz-adv-x="743" d="M109 1194q0 90 63.5 154.5t114.5 64.5q12 0 20 -8t8 -21q0 -17 -16.5 -32.5t-33.5 -35t-17 -44.5q0 -17 11 -29.5t24.5 -21t24.5 -27t11 -45.5q0 -38 -24.5 -65t-71.5 -27q-54 0 -84 37t-30 100zM424 1194q0 90 63 154.5t115 64.5q12 0 20.5 -8t8.5 -21q0 -17 -17 -32.5 t-34 -35t-17 -44.5q0 -17 11.5 -29.5t24.5 -21t24.5 -27t11.5 -45.5q0 -38 -24.5 -65t-71.5 -27q-55 0 -85 37t-30 100z" />
<glyph unicode="&#x201d;" horiz-adv-x="743" d="M109 1323q0 38 24.5 65t71.5 27q54 0 84 -37t30 -100q0 -90 -62.5 -154.5t-113.5 -64.5q-13 0 -21.5 8t-8.5 20q0 13 11 26.5t23.5 23t23.5 26.5t11 37q0 17 -11.5 29.5t-25 21t-25 27t-11.5 45.5zM424 1323q0 38 24.5 65t71.5 27q55 0 85 -37t30 -100q0 -90 -63 -154.5 t-115 -64.5q-12 0 -20.5 8t-8.5 20q0 17 17 33t34 35.5t17 44.5q0 17 -11 29.5t-25 21t-25 27t-11 45.5z" />
<glyph unicode="&#x201e;" horiz-adv-x="716" d="M100 72q0 38 25 65t72 27q54 0 84 -37t30 -100q0 -90 -63 -156t-113 -66q-13 0 -22 8.5t-9 20.5q0 20 35 51.5t35 61.5q0 14 -7.5 25t-18.5 19t-22 17.5t-18.5 25.5t-7.5 38zM416 72q0 38 24.5 65t71.5 27q55 0 85 -37t30 -100q0 -47 -19.5 -90.5t-48 -71t-58.5 -44 t-52 -16.5q-12 0 -20.5 8.5t-8.5 20.5q0 20 33.5 51.5t33.5 61.5q0 14 -7.5 25t-17.5 19t-20.5 17.5t-18 25.5t-7.5 38z" />
<glyph unicode="&#x2020;" horiz-adv-x="1019" d="M49 805q0 31 21.5 52.5t52.5 21.5q8 0 29.5 -1.5t109 -8.5t199.5 -15q-27 441 -27 485q0 32 22 54t54 22t54 -22t22 -54q0 -44 -27 -485q74 5 137.5 10t95.5 7.5t56.5 4.5t34 2.5t14.5 0.5q31 0 52.5 -21.5t21.5 -52.5q0 -32 -21.5 -54t-52.5 -22q-40 0 -338 25 q31 -1009 31 -1139q0 -34 -23 -57t-57 -23t-57 23t-23 57q0 130 31 1139q-298 -25 -338 -25q-31 0 -52.5 22t-21.5 54z" />
<glyph unicode="&#x2021;" horiz-adv-x="1019" d="M49 145q0 31 21.5 52.5t52.5 21.5q52 0 338 -24l-25 280l25 279q-298 -25 -338 -25q-31 0 -52.5 22t-21.5 54q0 31 21.5 52.5t52.5 21.5q8 0 29.5 -1.5t109 -8.5t199.5 -15q-27 441 -27 485q0 32 22 54t54 22t54 -22t22 -54q0 -44 -27 -485q74 5 137.5 10t95.5 7.5 t56.5 4.5t34 2.5t14.5 0.5q31 0 52.5 -21.5t21.5 -52.5q0 -32 -21.5 -54t-52.5 -22q-40 0 -338 25l25 -279l-25 -280q286 24 338 24q31 0 52.5 -21.5t21.5 -52.5q0 -32 -21.5 -53.5t-52.5 -21.5q-9 0 -338 24q27 -441 27 -485q0 -32 -22 -54t-54 -22t-54 22t-22 54 q0 44 27 485q-329 -24 -338 -24q-31 0 -52.5 21.5t-21.5 53.5z" />
<glyph unicode="&#x2022;" horiz-adv-x="1044" d="M109 698q0 170 121.5 292t291.5 122t292 -122t122 -292t-122 -291.5t-292 -121.5t-291.5 121.5t-121.5 291.5z" />
<glyph unicode="&#x2026;" horiz-adv-x="1400" d="M100 76q0 40 27.5 67t67.5 27t67 -27t27 -67t-27 -67t-67 -27t-67.5 27t-27.5 67zM612 76q0 40 27.5 67t67.5 27q39 0 66.5 -27.5t27.5 -66.5t-27.5 -66.5t-66.5 -27.5q-40 0 -67.5 27t-27.5 67zM1124 76q0 40 27.5 67t67.5 27q38 0 65 -27t27 -67t-27 -67t-65 -27 q-40 0 -67.5 27t-27.5 67z" />
<glyph unicode="&#x202f;" horiz-adv-x="408" />
<glyph unicode="&#x2030;" horiz-adv-x="2074" d="M51 1100q0 129 92.5 221t221.5 92q128 0 220.5 -92t92.5 -221t-92.5 -221.5t-220.5 -92.5q-129 0 -221.5 92t-92.5 222zM137 1100q0 -95 67 -162.5t161 -67.5q95 0 161 67t66 163q0 94 -66 160.5t-161 66.5q-94 0 -161 -66.5t-67 -160.5zM195 29q0 15 10 32l852 1323 q17 29 43 29q21 0 35 -14t14 -35q0 -18 -10 -31l-850 -1327q-1 -1 -2.5 -3t-2.5 -3.5t-3 -3.5l-3.5 -3.5t-4 -3.5t-4.5 -3l-5 -2.5t-6 -2t-6.5 -1t-7.5 -0.5q-20 0 -34.5 14.5t-14.5 34.5zM668 293q0 129 92 221t221 92q128 0 220.5 -92t92.5 -221t-92.5 -221t-220.5 -92 q-129 0 -221 91.5t-92 221.5zM752 293q0 -95 67 -161t162 -66q94 0 159.5 66t65.5 161q0 94 -65.5 160.5t-159.5 66.5q-95 0 -162 -66.5t-67 -160.5zM1397 293q0 129 92 221t221 92q128 0 220.5 -92t92.5 -221t-92.5 -221t-220.5 -92q-129 0 -221 91.5t-92 221.5zM1483 293 q0 -95 66.5 -161t160.5 -66t160.5 66t66.5 161q0 94 -66.5 160.5t-160.5 66.5t-160.5 -66.5t-66.5 -160.5z" />
<glyph unicode="&#x2039;" horiz-adv-x="696" d="M80 461q0 25 20 49l398 410q17 20 49 20q29 0 49 -19t20 -47q0 -29 -20 -49l-352 -364l352 -365q20 -20 20 -49t-19.5 -47t-49.5 -18q-32 0 -49 20l-398 410q-20 24 -20 49z" />
<glyph unicode="&#x203a;" horiz-adv-x="696" d="M80 47q0 26 20 49l351 365l-351 364q-20 23 -20 49q0 28 19.5 47t47.5 19q32 0 52 -20l395 -410q22 -22 22 -49t-22 -49l-395 -410q-20 -20 -49 -20q-30 0 -50 18t-20 47z" />
<glyph unicode="&#x2044;" horiz-adv-x="763" d="M-27 51q0 19 15 49l649 1266q24 49 76 49q30 0 52.5 -21.5t22.5 -50.5q0 -23 -14 -51l-649 -1263q-25 -49 -76 -49q-30 0 -53 21t-23 50z" />
<glyph unicode="&#x205f;" horiz-adv-x="510" />
<glyph unicode="&#x20ac;" d="M-23 559q0 19 12 32t31 13h84q-4 62 -4 94q0 44 6 90h-86q-19 0 -31 12t-12 31t12.5 33.5t30.5 14.5h103q61 235 256.5 384.5t431.5 149.5q186 0 336 -70q96 -42 96 -100q0 -32 -22.5 -54t-53.5 -22q-13 0 -32 10t-50.5 27t-64.5 29q-99 35 -211 35q-171 0 -315 -108 t-201 -281h717q18 0 30.5 -14.5t12.5 -33.5t-12 -31t-31 -12h-738q-6 -46 -6 -90q0 -50 6 -94h623q19 0 31 -13t12 -32t-12 -32t-31 -13h-604q36 -119 116 -207.5t184.5 -133t219.5 -44.5q120 0 211 33q35 13 70 30.5t55.5 27t34.5 9.5q31 0 50 -20.5t19 -54.5 q0 -33 -24.5 -56.5t-71.5 -46.5q-160 -71 -344 -71q-252 0 -443 144t-247 390h-101q-19 0 -31 13t-12 32z" />
<glyph unicode="&#x2116;" horiz-adv-x="2693" d="M154 53v1272q0 36 27 62t65 26q46 0 82 -45l876 -1102v1071q0 31 23.5 53.5t56.5 22.5q32 0 55 -22.5t23 -53.5v-1269q0 -37 -27 -62.5t-67 -25.5q-51 0 -82 45l-875 1101v-1073q0 -31 -23 -52t-57 -21q-33 0 -55 21t-22 52zM1614 66q0 28 19.5 46.5t47.5 18.5h848 q27 0 46.5 -19t19.5 -46t-19.5 -46.5t-46.5 -19.5h-848q-28 0 -47.5 19t-19.5 47zM1614 932q0 203 139 342q142 139 352 139q102 0 193 -36.5t158 -102.5q139 -139 139 -342q0 -208 -139 -344q-66 -64 -157.5 -100.5t-193.5 -36.5q-104 0 -195 36.5t-157 100.5 q-139 136 -139 344zM1763 932q0 -153 90 -252q98 -109 252 -109q152 0 250 109q92 102 92 252q0 149 -92 252q-92 106 -250 106q-160 0 -252 -106q-90 -101 -90 -252z" />
<glyph unicode="&#x2122;" horiz-adv-x="1591" d="M57 1415q0 20 12.5 32.5t30.5 12.5h512q19 0 31 -12.5t12 -32.5q0 -19 -12 -31t-31 -12h-206v-608q0 -20 -14.5 -33.5t-35.5 -13.5q-20 0 -33.5 13.5t-13.5 33.5v608h-209q-17 0 -30 13t-13 30zM739 764v657q0 19 14 32t38 13q22 0 34 -8.5t25 -30.5l254 -419l256 419 q13 22 25 30.5t34 8.5q24 0 37.5 -12.5t13.5 -32.5v-657q0 -20 -13.5 -33.5t-33.5 -13.5q-19 0 -33 13.5t-14 33.5v518l-227 -375q-16 -28 -45 -28q-27 0 -43 28l-227 375v-518q0 -20 -14.5 -33.5t-33.5 -13.5q-20 0 -33.5 13.5t-13.5 33.5z" />
<glyph unicode="&#x2126;" horiz-adv-x="1542" d="M145 63q0 26 20 46t46 20h317q-13 27 -36.5 58.5t-69.5 86t-76 93.5q-170 217 -170 462q0 283 160.5 433.5t435.5 150.5q180 0 312 -65t207 -197.5t75 -321.5q0 -247 -168 -462q-32 -41 -76.5 -94t-69 -85t-38.5 -59h319q26 0 45 -20t19 -46t-19 -44.5t-45 -18.5h-401 q-32 0 -51 19t-19 47q0 27 15 58.5t30 52.5t58 73.5t65 81.5q168 217 168 473q0 225 -112.5 344t-313.5 119t-313.5 -119t-112.5 -344q0 -146 46 -259.5t120 -213.5q22 -28 55 -68t49 -60t34 -46.5t25 -48t7 -43.5q0 -29 -19.5 -47.5t-52.5 -18.5h-399q-27 0 -46.5 18.5 t-19.5 44.5z" />
<glyph unicode="&#x2202;" horiz-adv-x="1046" d="M92 424q0 174 113 287q60 60 139.5 91.5t161.5 31.5q123 0 235 -70q-116 278 -417 534q-25 19 -25 45q0 31 20.5 51.5t49.5 20.5q21 0 94 -55q98 -77 183 -172t155.5 -209.5t111.5 -249.5t41 -272q0 -116 -35 -208.5t-95.5 -150t-138.5 -88t-167 -30.5q-173 0 -285 100 q-141 122 -141 344zM231 424q0 -159 93 -246q78 -72 194 -72q128 0 211.5 89t83.5 262q0 90 -18 176q-129 84 -269 84q-59 0 -117 -24t-100 -68q-78 -78 -78 -201z" />
<glyph unicode="&#x2206;" horiz-adv-x="1257" d="M74 82q0 18 10 45l440 1202q30 82 105 82q37 0 62 -18.5t42 -63.5l441 -1202q10 -27 10 -45q0 -34 -25 -58t-67 -24h-926q-42 0 -67 24t-25 58zM262 143h733l-366 1020z" />
<glyph unicode="&#x220f;" horiz-adv-x="1411" d="M154 -270v1585q0 32 24 56t58 24h940q35 0 58 -23.5t23 -56.5v-1585q0 -33 -23 -56.5t-58 -23.5t-58.5 23.5t-23.5 56.5v1519h-777v-1519q0 -32 -23.5 -56t-57.5 -24t-58 24t-24 56z" />
<glyph unicode="&#x2211;" horiz-adv-x="1060" d="M78 72q0 29 28 61l562 565l-562 562q-28 28 -28 63q0 31 21 51.5t59 20.5h760q30 0 50.5 -20.5t20.5 -51.5q0 -28 -21 -50t-50 -22h-609l494 -493q31 -28 31 -60q0 -30 -31 -61l-494 -494h609q29 0 50 -21.5t21 -49.5q0 -30 -20.5 -51t-50.5 -21h-760q-38 0 -59 20.5 t-21 51.5z" />
<glyph unicode="&#x2212;" horiz-adv-x="1097" d="M72 723q0 28 20 50t49 22h817q27 0 47.5 -22t20.5 -50q0 -29 -20 -50.5t-48 -21.5h-817q-29 0 -49 21t-20 51z" />
<glyph unicode="&#x221a;" horiz-adv-x="1519" d="M98 434q0 31 21.5 52.5t52.5 21.5h238q48 0 73 -43l183 -305l665 1276q22 43 70 43q30 0 51 -22t21 -52q0 -17 -11 -39l-723 -1380q-23 -45 -69 -45q-44 0 -68 41l-227 378h-203q-31 0 -52.5 21.5t-21.5 52.5z" />
<glyph unicode="&#x221e;" horiz-adv-x="1665" d="M98 551q0 182 99 300t282 118q231 0 352 -285q121 285 355 285q183 0 283 -118t100 -300t-100 -300t-283 -118q-235 0 -355 287q-120 -287 -352 -287q-183 0 -282 118t-99 300zM223 551q0 -129 67.5 -213t190.5 -84q199 0 289 297q-90 297 -289 297q-123 0 -190.5 -83.5 t-67.5 -213.5zM895 551q42 -139 113.5 -218t173.5 -79q124 0 192 84t68 213q0 130 -68 213.5t-192 83.5q-102 0 -173.5 -79t-113.5 -218z" />
<glyph unicode="&#x222b;" horiz-adv-x="811" d="M43 -283q0 32 20.5 52t51.5 20h65q146 0 146 158v1136q0 141 75 222t213 81h80q32 0 53 -20.5t21 -52.5t-21 -52t-53 -20h-63q-144 0 -144 -158v-1136q0 -142 -76 -222.5t-214 -80.5h-82q-31 0 -51.5 20.5t-20.5 52.5z" />
<glyph unicode="&#x2248;" horiz-adv-x="1032" d="M74 438q0 68 75 115t177 47q68 0 132.5 -26t123 -52t110.5 -26q44 0 79.5 12.5t54 27t37.5 27t34 12.5q25 0 42 -15t17 -38q0 -70 -75 -116t-176 -46q-49 0 -101 16.5t-89 36t-86 36t-93 16.5t-79.5 -12.5t-53 -27.5t-36.5 -27.5t-34 -12.5q-26 0 -42.5 15t-16.5 38z M74 913q0 70 75 116t177 46q68 0 132.5 -26t123 -52t110.5 -26q44 0 79.5 12.5t54 27.5t37.5 27.5t34 12.5q25 0 42 -15.5t17 -38.5q0 -70 -74.5 -115.5t-176.5 -45.5q-49 0 -101 16t-89 36t-86 36t-93 16t-79.5 -12.5t-53 -27.5t-36.5 -27.5t-34 -12.5q-26 0 -42.5 15 t-16.5 38z" />
<glyph unicode="&#x2260;" horiz-adv-x="1146" d="M72 477q0 28 20 49t49 21h289l154 350h-443q-29 0 -49 20.5t-20 51.5q0 28 20 48.5t49 20.5h508l107 240q18 35 51 35q24 0 39.5 -16.5t15.5 -39.5q0 -14 -8 -30l-84 -189h238q28 0 47.5 -20.5t19.5 -48.5q0 -31 -19.5 -51.5t-47.5 -20.5h-301l-156 -350h457q27 0 47 -21 t20 -49q0 -30 -19.5 -50.5t-47.5 -20.5h-521l-100 -228q-14 -35 -51 -35q-24 0 -39.5 16.5t-15.5 39.5q0 10 8 30l78 177h-226q-29 0 -49 20t-20 51z" />
<glyph unicode="&#x2264;" horiz-adv-x="1148" d="M84 72q0 28 19.5 48.5t48.5 20.5h843q28 0 48 -20.5t20 -48.5q0 -30 -20 -51t-48 -21h-843q-29 0 -48.5 20.5t-19.5 51.5zM84 901q0 54 53 78l781 401q22 11 40 11q29 0 49.5 -19t20.5 -49q0 -40 -47 -63l-692 -359l692 -358q47 -23 47 -64q0 -30 -20.5 -48.5 t-49.5 -18.5q-20 0 -40 10l-781 401q-53 24 -53 78z" />
<glyph unicode="&#x2265;" horiz-adv-x="1148" d="M84 72q0 28 20 48.5t48 20.5h843q29 0 48.5 -20.5t19.5 -48.5q0 -31 -19.5 -51.5t-48.5 -20.5h-843q-28 0 -48 21t-20 51zM119 479q0 41 47 64l692 358l-692 359q-47 23 -47 63q0 30 20 49t49 19q19 0 41 -11l781 -401q53 -24 53 -78t-53 -78l-781 -401q-20 -10 -41 -10 q-29 0 -49 18.5t-20 48.5z" />
<glyph unicode="&#x25ca;" horiz-adv-x="1204" d="M74 696q0 25 20 52l447 630q25 35 61 35q38 0 62 -35l446 -630q20 -27 20 -52q0 -24 -20 -51l-446 -631q-24 -34 -62 -34q-37 0 -61 34l-447 631q-20 27 -20 51zM233 696l369 -528l369 528l-369 529z" />
<glyph unicode="&#x25fc;" horiz-adv-x="942" d="M0 0v942h942v-942h-942z" />
<glyph unicode="&#xe000;" horiz-adv-x="1417" d="M150 59v754q0 127 43 244t129 205q151 151 385 151q239 0 387 -151q85 -88 128.5 -205.5t43.5 -243.5v-754q0 -32 -24.5 -55.5t-57.5 -23.5q-35 0 -58.5 23t-23.5 56v435h-789v-435q0 -32 -24 -55.5t-58 -23.5t-57.5 23.5t-23.5 55.5zM313 639h789v170q0 209 -111 332 q-111 121 -284 121q-177 0 -285 -121q-109 -118 -109 -332v-170z" />
<glyph unicode="&#xe001;" horiz-adv-x="1310" d="M109 367q0 226 208 342q116 62 285 91.5t395 43.5v28q0 203 -79 297q-82 99 -259 99q-64 0 -122 -12.5t-90.5 -26t-75.5 -35.5q-5 -3 -19 -10.5t-19.5 -10t-16.5 -8t-17.5 -8t-16 -5.5t-17.5 -4t-17 -1q-32 0 -54 22t-22 54q0 60 109 108q175 82 391 82q261 0 383 -147 q106 -131 106 -383v-824q0 -33 -23.5 -56t-58.5 -23t-58.5 23t-23.5 56v27q-93 -58 -185.5 -82t-223.5 -24q-87 0 -169.5 22.5t-153 67.5t-113.5 122t-43 175zM285 373q0 -68 30.5 -119.5t83 -80t113.5 -42.5t131 -14q202 0 354 102v494q-121 -8 -195 -15t-173 -26.5 t-164 -48.5q-180 -79 -180 -250z" />
<glyph unicode="&#xe002;" horiz-adv-x="1263" d="M16 55q0 13 13 43l491 1231q32 84 113 84q83 0 115 -84l489 -1231q10 -20 10 -43q0 -35 -23 -55t-59 -20q-61 0 -82 59l-120 305h-662l-125 -305q-22 -59 -82 -59q-36 0 -57 21.5t-21 53.5zM342 477h578l-289 725z" />
<glyph unicode="&#xe003;" horiz-adv-x="2377" d="M109 367q0 244 286 346q202 73 602 82v77q0 203 -79 297q-84 101 -259 101q-93 0 -159 -20.5t-131 -55.5q-6 -3 -30.5 -16t-33 -17t-25.5 -9t-32 -5q-32 0 -54 22t-22 54q0 60 109 108q175 82 391 82q262 0 381 -147q43 -56 69 -123q14 22 52 65q185 205 489 205 q290 0 465 -190q164 -175 164 -449q0 -59 -28.5 -89t-76.5 -30h-1009q15 -217 133 -354q73 -84 175 -129t224 -45q158 0 272 49q40 16 79.5 39t62.5 36t39 13q31 0 51 -21t20 -55q0 -36 -43 -72.5t-116 -66.5q-170 -69 -365 -69q-336 0 -528 208q-112 -96 -253 -152 t-337 -56q-71 0 -138.5 13.5t-130.5 44t-110 74.5t-75.5 110t-28.5 145zM285 373q0 -68 30.5 -119.5t83 -80t113.5 -42.5t131 -14q107 0 200.5 29t148 64t110.5 85q-91 155 -103 360q-331 0 -499 -55q-215 -71 -215 -227zM1180 797h942q-9 200 -119 323q-59 66 -146 104 t-192 38q-233 0 -369 -162q-100 -115 -116 -303z" />
<glyph unicode="&#xe004;" horiz-adv-x="2004" d="M16 55q0 27 27 66l920 1194q32 42 62.5 61t78.5 19h766q29 0 50.5 -22t21.5 -50q0 -31 -21.5 -52.5t-50.5 -21.5h-676v-477h569q29 0 50.5 -22.5t21.5 -51.5t-21.5 -50t-50.5 -21h-569v-482h676q29 0 50.5 -22t21.5 -51t-21.5 -50.5t-50.5 -21.5h-758q-35 0 -58.5 23.5 t-23.5 56.5v264h-614l-238 -309q-17 -23 -25 -31.5t-23 -16t-36 -7.5q-36 0 -57 20.5t-21 54.5zM516 477h514v670z" />
<glyph unicode="&#xe005;" horiz-adv-x="1935" d="M117 303q0 50 15.5 92.5t40.5 74t64.5 57t79.5 42.5t94 30t99.5 20.5t105.5 12t102 6.5t97 3v51q0 160 -59 228q-63 75 -193 75q-52 0 -100.5 -12t-70.5 -22.5t-58 -30.5q-61 -33 -90 -33q-32 0 -53 20.5t-21 51.5q0 30 22.5 51t65.5 43q140 67 315 67q207 0 306 -120 q32 -41 47 -80q68 98 179 149t243 51q118 0 213.5 -41.5t160.5 -111.5q131 -140 131 -361q0 -100 -92 -100h-780q16 -161 94 -258q113 -137 311 -137q114 0 213 39q31 13 62 31t50 28t32 10q28 0 46.5 -20t18.5 -51t-37.5 -63t-103.5 -58q-127 -53 -285 -53q-262 0 -417 161 q-200 -161 -457 -161q-78 0 -147 20.5t-124 59t-87.5 100.5t-32.5 139zM270 309q0 -66 41 -112t99.5 -65t128.5 -19q188 0 358 125q-70 122 -82 278q-56 0 -99.5 -1t-103 -6t-104 -13t-91.5 -23.5t-77.5 -37t-50 -54t-19.5 -72.5zM983 637h715q-6 161 -94 252 q-45 46 -111.5 75t-140.5 29q-172 0 -277 -121q-79 -95 -92 -235z" />
<glyph unicode="&#xe006;" horiz-adv-x="1417" d="M150 59v754q0 127 43 244t129 205q151 151 385 151q239 0 387 -151q85 -88 128.5 -205.5t43.5 -243.5v-754q0 -32 -24.5 -55.5t-57.5 -23.5q-35 0 -58.5 23t-23.5 56v435h-789v-435q0 -32 -24 -55.5t-58 -23.5t-57.5 23.5t-23.5 55.5zM313 639h789v170q0 209 -111 332 q-111 121 -284 121q-177 0 -285 -121q-109 -118 -109 -332v-170zM563 1626q0 18 12 39l156 283q21 43 57 43q26 0 44 -17t18 -41q0 -18 -16 -45l-166 -274q-23 -37 -54 -37q-21 0 -36 14t-15 35z" />
<glyph unicode="&#xe007;" horiz-adv-x="1310" d="M109 367q0 226 208 342q116 62 285 91.5t395 43.5v28q0 203 -79 297q-82 99 -259 99q-64 0 -122 -12.5t-90.5 -26t-75.5 -35.5q-5 -3 -19 -10.5t-19.5 -10t-16.5 -8t-17.5 -8t-16 -5.5t-17.5 -4t-17 -1q-32 0 -54 22t-22 54q0 60 109 108q175 82 391 82q261 0 383 -147 q106 -131 106 -383v-824q0 -33 -23.5 -56t-58.5 -23t-58.5 23t-23.5 56v27q-93 -58 -185.5 -82t-223.5 -24q-87 0 -169.5 22.5t-153 67.5t-113.5 122t-43 175zM285 373q0 -68 30.5 -119.5t83 -80t113.5 -42.5t131 -14q202 0 354 102v494q-121 -8 -195 -15t-173 -26.5 t-164 -48.5q-180 -79 -180 -250zM516 1626q0 18 12 39l156 283q21 43 57 43q26 0 44 -17t18 -41q0 -17 -17 -45l-165 -274q-23 -37 -54 -37q-21 0 -36 14t-15 35z" />
<glyph unicode="&#xe008;" horiz-adv-x="1263" d="M16 55q0 13 13 43l491 1231q32 84 113 84q83 0 115 -84l489 -1231q10 -20 10 -43q0 -35 -23 -55t-59 -20q-61 0 -82 59l-120 305h-662l-125 -305q-22 -59 -82 -59q-36 0 -57 21.5t-21 53.5zM342 477h578l-289 725zM489 1626q0 16 13 39l155 283q21 43 58 43 q26 0 43.5 -17t17.5 -41q0 -18 -16 -45l-166 -274q-23 -37 -53 -37q-21 0 -36.5 14t-15.5 35z" />
<glyph unicode="&#xe009;" horiz-adv-x="1417" d="M150 59v754q0 127 43 244t129 205q151 151 385 151q239 0 387 -151q85 -88 128.5 -205.5t43.5 -243.5v-754q0 -32 -24.5 -55.5t-57.5 -23.5q-35 0 -58.5 23t-23.5 56v435h-789v-435q0 -32 -24 -55.5t-58 -23.5t-57.5 23.5t-23.5 55.5zM313 639h789v170q0 209 -111 332 q-111 121 -284 121q-177 0 -285 -121q-109 -118 -109 -332v-170zM410 1919q0 23 16.5 38t40.5 15q19 0 37 -17.5t36 -43t39 -51t54 -43t74 -17.5t74 17.5t54 43t38.5 51t35.5 43t37 17.5q24 0 41 -15t17 -38q0 -36 -62 -111q-94 -118 -235 -118q-142 0 -236 118 q-61 74 -61 111z" />
<glyph unicode="&#xe00a;" horiz-adv-x="1310" d="M109 367q0 226 208 342q116 62 285 91.5t395 43.5v28q0 203 -79 297q-82 99 -259 99q-64 0 -122 -12.5t-90.5 -26t-75.5 -35.5q-5 -3 -19 -10.5t-19.5 -10t-16.5 -8t-17.5 -8t-16 -5.5t-17.5 -4t-17 -1q-32 0 -54 22t-22 54q0 60 109 108q175 82 391 82q261 0 383 -147 q106 -131 106 -383v-824q0 -33 -23.5 -56t-58.5 -23t-58.5 23t-23.5 56v27q-93 -58 -185.5 -82t-223.5 -24q-87 0 -169.5 22.5t-153 67.5t-113.5 122t-43 175zM285 373q0 -68 30.5 -119.5t83 -80t113.5 -42.5t131 -14q202 0 354 102v494q-121 -8 -195 -15t-173 -26.5 t-164 -48.5q-180 -79 -180 -250zM352 1919q0 23 17 38t41 15q19 0 37 -17.5t35.5 -43t38.5 -51t54 -43t74 -17.5t74 17.5t54 43t39 51t36 43t37 17.5q24 0 40.5 -15t16.5 -38q0 -37 -61 -111q-94 -118 -236 -118q-141 0 -235 118q-62 75 -62 111z" />
<glyph unicode="&#xe00b;" horiz-adv-x="1263" d="M16 55q0 13 13 43l491 1231q32 84 113 84q83 0 115 -84l489 -1231q10 -20 10 -43q0 -35 -23 -55t-59 -20q-61 0 -82 59l-120 305h-662l-125 -305q-22 -59 -82 -59q-36 0 -57 21.5t-21 53.5zM326 1919q0 23 16.5 38t40.5 15q19 0 37 -17.5t36 -43t39 -51t54 -43t74 -17.5 t74 17.5t54 43t38.5 51t35.5 43t37 17.5q24 0 41 -15t17 -38q0 -36 -62 -111q-94 -118 -235 -118q-142 0 -236 118q-61 74 -61 111zM342 477h578l-289 725z" />
<glyph unicode="&#xe00c;" horiz-adv-x="1417" d="M150 59v754q0 127 43 244t129 205q151 151 385 151q239 0 387 -151q85 -88 128.5 -205.5t43.5 -243.5v-754q0 -32 -24.5 -55.5t-57.5 -23.5q-35 0 -58.5 23t-23.5 56v435h-789v-435q0 -32 -24 -55.5t-58 -23.5t-57.5 23.5t-23.5 55.5zM313 639h789v170q0 209 -111 332 q-111 121 -284 121q-177 0 -285 -121q-109 -118 -109 -332v-170zM381 1659q0 20 25 45l253 260q25 25 48 25q24 0 49 -25l252 -260q26 -30 26 -45q0 -25 -16 -40t-39 -15t-39 16l-233 240l-232 -240q-16 -16 -39 -16q-24 0 -39.5 14.5t-15.5 40.5z" />
<glyph unicode="&#xe00d;" horiz-adv-x="1310" d="M109 367q0 226 208 342q116 62 285 91.5t395 43.5v28q0 203 -79 297q-82 99 -259 99q-64 0 -122 -12.5t-90.5 -26t-75.5 -35.5q-5 -3 -19 -10.5t-19.5 -10t-16.5 -8t-17.5 -8t-16 -5.5t-17.5 -4t-17 -1q-32 0 -54 22t-22 54q0 60 109 108q175 82 391 82q261 0 383 -147 q106 -131 106 -383v-824q0 -33 -23.5 -56t-58.5 -23t-58.5 23t-23.5 56v27q-93 -58 -185.5 -82t-223.5 -24q-87 0 -169.5 22.5t-153 67.5t-113.5 122t-43 175zM285 373q0 -68 30.5 -119.5t83 -80t113.5 -42.5t131 -14q202 0 354 102v494q-121 -8 -195 -15t-173 -26.5 t-164 -48.5q-180 -79 -180 -250zM338 1659q0 21 24 45l254 260q25 25 48 25q24 0 49 -25l252 -260q26 -30 26 -45q0 -25 -16 -40t-39 -15t-39 16l-233 240l-232 -240q-16 -16 -39 -16q-24 0 -39.5 14.5t-15.5 40.5z" />
<glyph unicode="&#xe00e;" horiz-adv-x="1263" d="M16 55q0 13 13 43l491 1231q32 84 113 84q83 0 115 -84l489 -1231q10 -20 10 -43q0 -35 -23 -55t-59 -20q-61 0 -82 59l-120 305h-662l-125 -305q-22 -59 -82 -59q-36 0 -57 21.5t-21 53.5zM303 1659q0 20 25 45l254 260q25 25 47 25q24 0 49 -25l252 -260q26 -30 26 -45 q0 -25 -16 -40t-39 -15t-39 16l-233 240l-232 -240q-16 -16 -39 -16q-24 0 -39.5 14.5t-15.5 40.5zM342 477h578l-289 725z" />
<glyph unicode="&#xe00f;" horiz-adv-x="1417" d="M150 59v754q0 127 43 244t129 205q151 151 385 151q239 0 387 -151q85 -88 128.5 -205.5t43.5 -243.5v-754q0 -32 -24.5 -55.5t-57.5 -23.5q-35 0 -58.5 23t-23.5 56v435h-789v-435q0 -32 -24 -55.5t-58 -23.5t-57.5 23.5t-23.5 55.5zM313 639h789v170q0 209 -111 332 q-111 121 -284 121q-177 0 -285 -121q-109 -118 -109 -332v-170zM426 1782q0 37 26.5 62.5t63.5 25.5q38 0 64 -25.5t26 -62.5q0 -38 -26 -65t-64 -27q-37 0 -63.5 27t-26.5 65zM811 1782q0 37 26.5 62.5t63.5 25.5t63.5 -25.5t26.5 -62.5q0 -38 -26.5 -65t-63.5 -27 t-63.5 27t-26.5 65z" />
<glyph unicode="&#xe010;" horiz-adv-x="1310" d="M109 367q0 226 208 342q116 62 285 91.5t395 43.5v28q0 203 -79 297q-82 99 -259 99q-64 0 -122 -12.5t-90.5 -26t-75.5 -35.5q-5 -3 -19 -10.5t-19.5 -10t-16.5 -8t-17.5 -8t-16 -5.5t-17.5 -4t-17 -1q-32 0 -54 22t-22 54q0 60 109 108q175 82 391 82q261 0 383 -147 q106 -131 106 -383v-824q0 -33 -23.5 -56t-58.5 -23t-58.5 23t-23.5 56v27q-93 -58 -185.5 -82t-223.5 -24q-87 0 -169.5 22.5t-153 67.5t-113.5 122t-43 175zM285 373q0 -68 30.5 -119.5t83 -80t113.5 -42.5t131 -14q202 0 354 102v494q-121 -8 -195 -15t-173 -26.5 t-164 -48.5q-180 -79 -180 -250zM375 1782q0 37 26.5 62.5t63.5 25.5q38 0 64 -25.5t26 -62.5q0 -38 -26 -65t-64 -27q-37 0 -63.5 27t-26.5 65zM760 1782q0 37 26.5 62.5t63.5 25.5t63.5 -25.5t26.5 -62.5q0 -38 -26.5 -65t-63.5 -27t-63.5 27t-26.5 65z" />
<glyph unicode="&#xe011;" horiz-adv-x="1263" d="M16 55q0 13 13 43l491 1231q32 84 113 84q83 0 115 -84l489 -1231q10 -20 10 -43q0 -35 -23 -55t-59 -20q-61 0 -82 59l-120 305h-662l-125 -305q-22 -59 -82 -59q-36 0 -57 21.5t-21 53.5zM342 477h578l-289 725zM348 1782q0 37 26.5 62.5t63.5 25.5q38 0 64 -25.5 t26 -62.5q0 -38 -26 -65t-64 -27q-37 0 -63.5 27t-26.5 65zM733 1782q0 37 26.5 62.5t63.5 25.5t63.5 -25.5t26.5 -62.5q0 -38 -26.5 -65t-63.5 -27t-63.5 27t-26.5 65z" />
<glyph unicode="&#xe012;" horiz-adv-x="1417" d="M150 59v754q0 127 43 244t129 205q151 151 385 151q239 0 387 -151q85 -88 128.5 -205.5t43.5 -243.5v-754q0 -32 -24.5 -55.5t-57.5 -23.5q-35 0 -58.5 23t-23.5 56v435h-789v-435q0 -32 -24 -55.5t-58 -23.5t-57.5 23.5t-23.5 55.5zM313 639h789v170q0 209 -111 332 q-111 121 -284 121q-177 0 -285 -121q-109 -118 -109 -332v-170zM563 1933q0 23 18.5 40.5t43.5 17.5q35 0 57 -43l158 -283q12 -21 12 -39q0 -21 -15.5 -35t-37.5 -14q-33 0 -54 37l-165 274q-17 28 -17 45z" />
<glyph unicode="&#xe013;" horiz-adv-x="1310" d="M109 367q0 226 208 342q116 62 285 91.5t395 43.5v28q0 203 -79 297q-82 99 -259 99q-64 0 -122 -12.5t-90.5 -26t-75.5 -35.5q-5 -3 -19 -10.5t-19.5 -10t-16.5 -8t-17.5 -8t-16 -5.5t-17.5 -4t-17 -1q-32 0 -54 22t-22 54q0 60 109 108q175 82 391 82q261 0 383 -147 q106 -131 106 -383v-824q0 -33 -23.5 -56t-58.5 -23t-58.5 23t-23.5 56v27q-93 -58 -185.5 -82t-223.5 -24q-87 0 -169.5 22.5t-153 67.5t-113.5 122t-43 175zM285 373q0 -68 30.5 -119.5t83 -80t113.5 -42.5t131 -14q202 0 354 102v494q-121 -8 -195 -15t-173 -26.5 t-164 -48.5q-180 -79 -180 -250zM520 1933q0 23 18.5 40.5t43.5 17.5q35 0 57 -43l158 -283q12 -21 12 -39q0 -21 -15.5 -35t-37.5 -14q-33 0 -54 37l-165 274q-17 28 -17 45z" />
<glyph unicode="&#xe014;" horiz-adv-x="1263" d="M16 55q0 13 13 43l491 1231q32 84 113 84q83 0 115 -84l489 -1231q10 -20 10 -43q0 -35 -23 -55t-59 -20q-61 0 -82 59l-120 305h-662l-125 -305q-22 -59 -82 -59q-36 0 -57 21.5t-21 53.5zM342 477h578l-289 725zM485 1933q0 23 18.5 40.5t43.5 17.5q35 0 57 -43 l158 -283q12 -21 12 -39q0 -21 -15.5 -35t-37.5 -14q-32 0 -53 37l-166 274q-17 28 -17 45z" />
<glyph unicode="&#xe015;" horiz-adv-x="1417" d="M150 59v754q0 127 43 244t129 205q151 151 385 151q239 0 387 -151q85 -88 128.5 -205.5t43.5 -243.5v-754q0 -32 -24.5 -55.5t-57.5 -23.5q-35 0 -58.5 23t-23.5 56v435h-789v-435q0 -32 -24 -55.5t-58 -23.5t-57.5 23.5t-23.5 55.5zM313 639h789v170q0 209 -111 332 q-111 121 -284 121q-177 0 -285 -121q-109 -118 -109 -332v-170zM436 1804q0 25 18.5 43.5t43.5 18.5h422q26 0 43.5 -18.5t17.5 -43.5q0 -26 -17.5 -43.5t-43.5 -17.5h-422q-25 0 -43.5 17.5t-18.5 43.5z" />
<glyph unicode="&#xe016;" horiz-adv-x="1310" d="M109 367q0 226 208 342q116 62 285 91.5t395 43.5v28q0 203 -79 297q-82 99 -259 99q-64 0 -122 -12.5t-90.5 -26t-75.5 -35.5q-5 -3 -19 -10.5t-19.5 -10t-16.5 -8t-17.5 -8t-16 -5.5t-17.5 -4t-17 -1q-32 0 -54 22t-22 54q0 60 109 108q175 82 391 82q261 0 383 -147 q106 -131 106 -383v-824q0 -33 -23.5 -56t-58.5 -23t-58.5 23t-23.5 56v27q-93 -58 -185.5 -82t-223.5 -24q-87 0 -169.5 22.5t-153 67.5t-113.5 122t-43 175zM285 373q0 -68 30.5 -119.5t83 -80t113.5 -42.5t131 -14q202 0 354 102v494q-121 -8 -195 -15t-173 -26.5 t-164 -48.5q-180 -79 -180 -250zM393 1804q0 25 18.5 43.5t43.5 18.5h422q26 0 43.5 -18.5t17.5 -43.5q0 -26 -17.5 -43.5t-43.5 -17.5h-422q-25 0 -43.5 17.5t-18.5 43.5z" />
<glyph unicode="&#xe017;" horiz-adv-x="1263" d="M16 55q0 13 13 43l491 1231q32 84 113 84q83 0 115 -84l489 -1231q10 -20 10 -43q0 -35 -23 -55t-59 -20q-61 0 -82 59l-120 305h-662l-125 -305q-22 -59 -82 -59q-36 0 -57 21.5t-21 53.5zM342 477h578l-289 725zM358 1804q0 25 18.5 43.5t43.5 18.5h422 q26 0 43.5 -18.5t17.5 -43.5q0 -26 -17.5 -43.5t-43.5 -17.5h-422q-25 0 -43.5 17.5t-18.5 43.5z" />
<glyph unicode="&#xe018;" horiz-adv-x="1417" d="M150 59v754q0 127 43 244t129 205q151 151 385 151q239 0 387 -151q85 -88 128.5 -205.5t43.5 -243.5v-754q0 -32 -24.5 -55.5t-57.5 -23.5q-20 0 -35 6q-39 -93 -39 -164q0 -23 5 -41.5t19.5 -37.5t47 -29.5t80.5 -10.5q31 0 62.5 7t37.5 7q45 0 45 -45q0 -43 -47 -57 q-52 -18 -109 -18q-241 0 -241 190q0 112 92 281v426h-789v-435q0 -32 -24 -55.5t-58 -23.5t-57.5 23.5t-23.5 55.5zM313 639h789v170q0 209 -111 332q-111 121 -284 121q-177 0 -285 -121q-109 -118 -109 -332v-170z" />
<glyph unicode="&#xe019;" horiz-adv-x="1310" d="M109 367q0 226 208 342q116 62 285 91.5t395 43.5v28q0 203 -79 297q-82 99 -259 99q-64 0 -122 -12.5t-90.5 -26t-75.5 -35.5q-5 -3 -19 -10.5t-19.5 -10t-16.5 -8t-17.5 -8t-16 -5.5t-17.5 -4t-17 -1q-32 0 -54 22t-22 54q0 60 109 108q175 82 391 82q261 0 383 -147 q106 -131 106 -383v-824q0 -29 -19 -50.5t-48 -26.5q-41 -90 -41 -160q0 -24 5 -42t19.5 -37t47 -29.5t81.5 -10.5q30 0 61.5 7t39.5 7q21 0 33 -12t12 -33q0 -43 -47 -57q-52 -18 -109 -18q-244 0 -244 190q0 93 64 221q-19 22 -19 51v27q-93 -58 -185.5 -82t-223.5 -24 q-87 0 -169.5 22.5t-153 67.5t-113.5 122t-43 175zM285 373q0 -68 30.5 -119.5t83 -80t113.5 -42.5t131 -14q202 0 354 102v494q-121 -8 -195 -15t-173 -26.5t-164 -48.5q-180 -79 -180 -250z" />
<glyph unicode="&#xe01a;" horiz-adv-x="1263" d="M16 55q0 13 13 43l491 1231q32 84 113 84q83 0 115 -84l489 -1231q10 -20 10 -43q0 -35 -23 -55t-59 -20q-16 0 -22 2q-37 -84 -37 -160q0 -23 5 -41.5t20 -37.5t47.5 -29.5t81.5 -10.5q29 0 60.5 7t39.5 7q43 0 43 -45q0 -42 -45 -57q-56 -18 -111 -18q-241 0 -241 190 q0 97 75 254l-118 303h-662l-125 -305q-22 -59 -82 -59q-36 0 -57 21.5t-21 53.5zM342 477h578l-289 725z" />
<glyph unicode="&#xe01b;" horiz-adv-x="1417" d="M150 59v754q0 127 43 244t129 205q151 151 385 151q239 0 387 -151q85 -88 128.5 -205.5t43.5 -243.5v-754q0 -32 -24.5 -55.5t-57.5 -23.5q-35 0 -58.5 23t-23.5 56v435h-789v-435q0 -32 -24 -55.5t-58 -23.5t-57.5 23.5t-23.5 55.5zM313 639h789v170q0 209 -111 332 q-111 121 -284 121q-177 0 -285 -121q-109 -118 -109 -332v-170zM471 1765q0 98 70 168t168 70t166.5 -69.5t68.5 -168.5q0 -100 -68.5 -168.5t-166.5 -68.5q-99 0 -168.5 69t-69.5 168zM547 1765q0 -69 47 -116t115 -47t114.5 47t46.5 116q0 68 -47 116t-114 48t-114.5 -48 t-47.5 -116z" />
<glyph unicode="&#xe01c;" horiz-adv-x="1310" d="M109 367q0 226 208 342q116 62 285 91.5t395 43.5v28q0 203 -79 297q-82 99 -259 99q-64 0 -122 -12.5t-90.5 -26t-75.5 -35.5q-5 -3 -19 -10.5t-19.5 -10t-16.5 -8t-17.5 -8t-16 -5.5t-17.5 -4t-17 -1q-32 0 -54 22t-22 54q0 60 109 108q175 82 391 82q261 0 383 -147 q106 -131 106 -383v-824q0 -33 -23.5 -56t-58.5 -23t-58.5 23t-23.5 56v27q-93 -58 -185.5 -82t-223.5 -24q-87 0 -169.5 22.5t-153 67.5t-113.5 122t-43 175zM285 373q0 -68 30.5 -119.5t83 -80t113.5 -42.5t131 -14q202 0 354 102v494q-121 -8 -195 -15t-173 -26.5 t-164 -48.5q-180 -79 -180 -250zM424 1765q0 98 70 168t168 70t166.5 -69.5t68.5 -168.5q0 -100 -68.5 -168.5t-166.5 -68.5q-99 0 -168.5 69t-69.5 168zM500 1765q0 -69 47 -116t115 -47t114.5 47t46.5 116q0 68 -47 116t-114 48t-114.5 -48t-47.5 -116z" />
<glyph unicode="&#xe01d;" horiz-adv-x="1263" d="M16 55q0 13 13 43l491 1231q32 84 113 84q83 0 115 -84l489 -1231q10 -20 10 -43q0 -35 -23 -55t-59 -20q-61 0 -82 59l-120 305h-662l-125 -305q-22 -59 -82 -59q-36 0 -57 21.5t-21 53.5zM342 477h578l-289 725zM393 1765q0 98 70 168t168 70t166.5 -69.5t68.5 -168.5 q0 -100 -68.5 -168.5t-166.5 -68.5q-99 0 -168.5 69t-69.5 168zM469 1765q0 -69 47 -116t115 -47t115 47t47 116q0 68 -47.5 116t-114.5 48t-114.5 -48t-47.5 -116z" />
<glyph unicode="&#xe01e;" horiz-adv-x="1210" d="M147 55v592q0 96 31 186.5t92 157.5q129 139 334 139q207 0 336 -139q61 -67 92 -157.5t31 -186.5v-592q0 -29 -22.5 -50t-53.5 -21t-52.5 21t-21.5 50v326h-614v-326q0 -29 -22.5 -50t-53.5 -21t-53.5 21t-22.5 50zM299 510h614v131q0 154 -79 248q-82 102 -230 102 q-141 0 -227 -102q-78 -93 -78 -248v-131z" />
<glyph unicode="&#xe01f;" horiz-adv-x="1114" d="M117 303q0 205 198 291q160 75 500 84v14q0 160 -59 228q-63 75 -189 75q-90 0 -190 -41q-23 -10 -52.5 -26t-47.5 -23.5t-33 -7.5q-32 0 -53 20.5t-21 51.5q0 30 22.5 51t65.5 43q140 67 315 67q207 0 306 -120q86 -106 86 -312v-641q0 -31 -21.5 -52t-52.5 -21 q-32 0 -54 21t-22 52v6q-75 -45 -146 -62t-169 -17q-74 0 -141.5 20.5t-122 59t-87 100.5t-32.5 139zM270 309q0 -66 41 -112t99.5 -65t128.5 -19q153 0 276 77v365q-93 -5 -139 -8t-127 -16.5t-135 -36.5q-144 -60 -144 -185z" />
<glyph unicode="&#xe020;" horiz-adv-x="1046" d="M27 53q0 19 8 35l391 967q31 75 98 75q73 0 101 -75l387 -967q8 -24 8 -35q0 -29 -20 -49t-50 -20q-26 0 -46.5 14t-26.5 37l-97 235h-516l-94 -235q-20 -51 -74 -51q-32 0 -50.5 19.5t-18.5 49.5zM303 387h440l-219 543z" />
<glyph unicode="&#xe021;" horiz-adv-x="1210" d="M147 55v592q0 96 31 186.5t92 157.5q129 139 334 139q207 0 336 -139q61 -67 92 -157.5t31 -186.5v-592q0 -29 -22.5 -50t-53.5 -21t-52.5 21t-21.5 50v328h-614v-328q0 -29 -22.5 -50t-53.5 -21t-53.5 21t-22.5 50zM299 512h614v129q0 154 -79 248q-82 102 -230 102 q-141 0 -227 -102q-78 -93 -78 -248v-129zM461 1335q0 18 12 39l156 283q21 43 57 43q26 0 44 -17t18 -41q0 -17 -17 -45l-166 -274q-23 -37 -53 -37q-21 0 -36 14t-15 35z" />
<glyph unicode="&#xe022;" horiz-adv-x="1210" d="M147 55v592q0 96 31 186.5t92 157.5q129 139 334 139q207 0 336 -139q61 -67 92 -157.5t31 -186.5v-592q0 -29 -22.5 -50t-53.5 -21t-52.5 21t-21.5 50v326h-614v-326q0 -29 -22.5 -50t-53.5 -21t-53.5 21t-22.5 50zM299 510h614v131q0 154 -79 248q-82 102 -230 102 q-141 0 -227 -102q-78 -93 -78 -248v-131zM475 1335q0 18 12 39l156 283q21 43 57 43q26 0 44 -17t18 -41q0 -17 -17 -45l-165 -274q-23 -37 -54 -37q-21 0 -36 14t-15 35z" />
<glyph unicode="&#xe023;" horiz-adv-x="1114" d="M117 303q0 205 198 291q160 75 500 84v14q0 160 -59 228q-63 75 -189 75q-90 0 -190 -41q-23 -10 -52.5 -26t-47.5 -23.5t-33 -7.5q-32 0 -53 20.5t-21 51.5q0 30 22.5 51t65.5 43q140 67 315 67q207 0 306 -120q86 -106 86 -312v-641q0 -31 -21.5 -52t-52.5 -21 q-32 0 -54 21t-22 52v6q-75 -45 -146 -62t-169 -17q-74 0 -141.5 20.5t-122 59t-87 100.5t-32.5 139zM270 309q0 -66 41 -112t99.5 -65t128.5 -19q153 0 276 77v365q-93 -5 -139 -8t-127 -16.5t-135 -36.5q-144 -60 -144 -185zM424 1335q0 18 12 39l156 283q21 43 57 43 q26 0 44 -17t18 -41q0 -17 -17 -45l-166 -274q-23 -37 -53 -37q-21 0 -36 14t-15 35z" />
<glyph unicode="&#xe024;" horiz-adv-x="1046" d="M27 53q0 19 8 35l391 967q31 75 98 75q73 0 101 -75l387 -967q8 -24 8 -35q0 -29 -20 -49t-50 -20q-26 0 -46.5 14t-26.5 37l-97 235h-516l-94 -235q-20 -51 -74 -51q-32 0 -50.5 19.5t-18.5 49.5zM303 387h440l-219 543zM360 1335q0 16 13 39l155 283q21 43 58 43 q26 0 43.5 -17t17.5 -41q0 -18 -16 -45l-166 -274q-23 -37 -53 -37q-21 0 -36.5 14t-15.5 35z" />
<glyph unicode="&#xe025;" horiz-adv-x="1210" d="M147 55v592q0 96 31 186.5t92 157.5q129 139 334 139q207 0 336 -139q61 -67 92 -157.5t31 -186.5v-592q0 -29 -22.5 -50t-53.5 -21t-52.5 21t-21.5 50v328h-614v-328q0 -29 -22.5 -50t-53.5 -21t-53.5 21t-22.5 50zM299 512h614v129q0 154 -79 248q-82 102 -230 102 q-141 0 -227 -102q-78 -93 -78 -248v-129zM305 1552q0 23 16.5 38.5t40.5 15.5q19 0 37 -17.5t36 -43t39 -51t54 -43t74 -17.5t74 17.5t54 43t39 51t36 43t37 17.5q24 0 40.5 -15.5t16.5 -38.5q0 -36 -61 -110q-95 -119 -236 -119q-140 0 -235 119q-62 75 -62 110z" />
<glyph unicode="&#xe026;" horiz-adv-x="1210" d="M147 55v592q0 96 31 186.5t92 157.5q129 139 334 139q207 0 336 -139q61 -67 92 -157.5t31 -186.5v-592q0 -29 -22.5 -50t-53.5 -21t-52.5 21t-21.5 50v326h-614v-326q0 -29 -22.5 -50t-53.5 -21t-53.5 21t-22.5 50zM299 510h614v131q0 154 -79 248q-82 102 -230 102 q-141 0 -227 -102q-78 -93 -78 -248v-131zM305 1552q0 23 16.5 38.5t40.5 15.5q19 0 37 -17.5t36 -43t39 -51t54 -43t74 -17.5t74 17.5t54 43t39 51t36 43t37 17.5q24 0 40.5 -15.5t16.5 -38.5q0 -36 -61 -110q-95 -119 -236 -119q-140 0 -235 119q-62 75 -62 110z" />
</font>
</defs>
</svg>
