<?xml version="1.0" encoding="UTF-8" standalone="no"?>
<!-- Generator: Adobe Illustrator 25.1.0, SVG Export Plug-In . SVG Version: 6.00 Build 0)  -->

<svg
   version="1.1"
   id="Layer_1"
   x="0px"
   y="0px"
   viewBox="0 0 523.09998 129"
   xml:space="preserve"
   sodipodi:docname="adecco-group-horizontal.svg"
   width="523.09998"
   height="129"
   inkscape:version="1.4.2 (f4327f4, 2025-05-13)"
   xmlns:inkscape="http://www.inkscape.org/namespaces/inkscape"
   xmlns:sodipodi="http://sodipodi.sourceforge.net/DTD/sodipodi-0.dtd"
   xmlns="http://www.w3.org/2000/svg"
   xmlns:svg="http://www.w3.org/2000/svg"><defs
   id="defs12" /><sodipodi:namedview
   id="namedview12"
   pagecolor="#ffffff"
   bordercolor="#000000"
   borderopacity="0.25"
   inkscape:showpageshadow="2"
   inkscape:pageopacity="0.0"
   inkscape:pagecheckerboard="0"
   inkscape:deskcolor="#d1d1d1"
   inkscape:zoom="1.4824708"
   inkscape:cx="237.77872"
   inkscape:cy="-20.573761"
   inkscape:window-width="1920"
   inkscape:window-height="1009"
   inkscape:window-x="1912"
   inkscape:window-y="-6"
   inkscape:window-maximized="1"
   inkscape:current-layer="Layer_1" />
<style
   type="text/css"
   id="style1">
	.st0{fill:#54C3BD;}
</style>
<g
   id="g12"
   transform="translate(-38.1,-36)">
	<path
   d="m 75.1,55.2 -37,80.6 h 3 L 65.7,81.9 90.2,135.8 H 116 Z m -20.6,58.9 -1.3,2.8 h 15.2 l -1.3,-2.8 z"
   id="path1" />
	<polygon
   points="177,90.5 197,90.5 197,95.1 189.6,95.1 189.6,116.1 184.4,116.1 184.4,95.1 177,95.1 "
   id="polygon1" />
	<polygon
   points="207.1,101.3 218.1,101.3 218.1,90.5 223.3,90.5 223.3,116.1 218.1,116.1 218.1,106.1 207.1,106.1 207.1,116.1 201.8,116.1 201.8,90.5 207.1,90.5 "
   id="polygon2" />
	<polygon
   points="246.6,95.1 235,95.1 235,100.9 245.2,100.9 245.2,105.5 235,105.5 235,111.5 247.2,111.5 247.2,116.1 229.6,116.1 229.6,90.5 246.6,90.5 "
   id="polygon3" />
	<path
   d="m 271.7,90.2 h 0.5 l 11.7,25.9 h -5.5 l -1.4,-3.5 h -10 l -1.4,3.5 h -5.1 z m 3.3,18 -1.6,-3.9 c -0.7,-1.6 -1.5,-4.3 -1.6,-4.6 -0.1,0.2 -0.8,2.8 -1.5,4.6 l -1.6,3.9 z"
   id="path3" />
	<path
   d="m 288.3,90.5 h 7.9 c 7.9,0 13.5,5.3 13.5,12.8 0,7.6 -5.6,12.9 -13.5,12.9 h -7.9 z m 7.6,21 c 5.7,0 8.3,-3.4 8.3,-8.2 0,-4.8 -2.6,-8.2 -8.3,-8.2 h -2.4 v 16.4 z"
   id="path4" />
	<polygon
   points="332.1,95.1 320.4,95.1 320.4,100.9 330.7,100.9 330.7,105.5 320.4,105.5 320.4,111.5 332.6,111.5 332.6,116.1 315.1,116.1 315.1,90.5 332.1,90.5 "
   id="polygon4" />
	<path
   d="m 337.1,103.2 c 0,-7.6 5.8,-13.1 13.2,-13.1 4.6,0 7.9,1.6 10.2,5.3 l -4,2.9 c -1.2,-2 -3.3,-3.4 -6.2,-3.4 -4.6,0 -7.8,3.5 -7.8,8.3 0,4.9 3.1,8.5 7.8,8.5 3.3,0 5.2,-1.6 6.6,-3.8 l 4.1,2.8 c -2.2,3.5 -5.8,5.7 -10.7,5.7 -7.4,0 -13.2,-5.5 -13.2,-13.2"
   id="path5" />
	<path
   d="m 364.6,103.2 c 0,-7.6 5.8,-13.1 13.2,-13.1 4.6,0 8,1.6 10.3,5.3 l -4,2.9 c -1.2,-2 -3.3,-3.4 -6.3,-3.4 -4.6,0 -7.8,3.5 -7.8,8.3 0,4.9 3.1,8.5 7.8,8.5 3.3,0 5.2,-1.6 6.6,-3.8 l 4.1,2.8 c -2.2,3.5 -5.8,5.7 -10.7,5.7 -7.3,0 -13.2,-5.5 -13.2,-13.2"
   id="path6" />
	<path
   d="m 392.1,103.2 c 0,-7.6 5.9,-13.1 13.3,-13.1 7.4,0 13.3,5.6 13.3,13.1 0,7.6 -5.8,13.2 -13.3,13.2 -7.5,0 -13.3,-5.5 -13.3,-13.2 m 21.2,0 c 0,-4.8 -3.1,-8.4 -7.9,-8.4 -4.8,0 -7.9,3.6 -7.9,8.4 0,4.9 3.1,8.5 7.9,8.5 4.8,0 7.9,-3.6 7.9,-8.5"
   id="path7" />
	<path
   d="m 430.3,103.2 c 0,-7.6 5.4,-13.1 13.1,-13.1 4.2,0 7.2,1.2 9.3,3.5 l -3.5,3.5 c -1.3,-1.3 -2.8,-2.4 -5.7,-2.4 -4.6,0 -7.7,3.5 -7.7,8.3 0,4.9 3.1,8.5 8.5,8.5 1.6,0 3.7,-0.3 5,-0.9 v -4.2 h -6.2 v -4.6 h 11 v 11.5 c -1.5,1.2 -5.2,3 -9.8,3 -8.4,0.1 -14,-5.4 -14,-13.1"
   id="path8" />
	<path
   d="m 460,90.5 h 9.5 c 5.3,0 9.6,2.5 9.6,8.5 0,3.9 -2.1,6.3 -5,7.6 l 5.8,9.7 h -6.1 l -5.2,-8.9 h -3.4 v 8.9 h -5.3 z m 9.3,12.2 c 2.6,0 4.2,-1 4.2,-3.9 0,-2.9 -1.7,-3.8 -4.2,-3.8 h -4 v 7.7 z"
   id="path9" />
	<path
   d="m 483.6,103.2 c 0,-7.6 5.9,-13.1 13.3,-13.1 7.4,0 13.3,5.6 13.3,13.1 0,7.6 -5.9,13.2 -13.3,13.2 -7.3,0 -13.3,-5.5 -13.3,-13.2 m 21.1,0 c 0,-4.8 -3.1,-8.4 -7.8,-8.4 -4.7,0 -7.9,3.6 -7.9,8.4 0,4.9 3.1,8.5 7.9,8.5 4.7,0 7.8,-3.6 7.8,-8.5"
   id="path10" />
	<path
   d="M 515.5,106.8 V 90.5 h 5.3 v 16.1 c 0,3.8 1.6,5.2 5.1,5.2 3.5,0 5,-1.4 5,-5.2 V 90.5 h 5.3 v 16.4 c 0,6.4 -4.5,9.6 -10.4,9.6 -5.7,-0.1 -10.3,-3.1 -10.3,-9.7"
   id="path11" />
	<path
   d="m 542.5,90.5 h 9.1 c 5.3,0 9.6,2.6 9.6,8.6 0,6 -4.4,8.6 -9.6,8.6 h -3.8 v 8.4 h -5.3 z m 8.9,12.6 c 2.6,0 4.2,-1.2 4.2,-4 0,-2.9 -1.7,-4 -4.2,-4 h -3.5 v 7.9 c -0.1,0.1 3.5,0.1 3.5,0.1 z"
   id="path12" />
	<rect
   x="141.8"
   y="36"
   class="st0"
   width="5.9000001"
   height="129"
   id="rect12" />
</g>
</svg>
